<svg id="Layer_1" enable-background="new 0 0 512.023 512.023" height="512" viewBox="0 0 512.023 512.023" width="512" xmlns="http://www.w3.org/2000/svg"><path d="m232.754 78.862-94.966-71.923c-22.345-16.922-54.428-.966-54.428 27.055v133.903c0 8.915 7.248 16 16 16 6.394 0-2.461 4.314 132.13-78.66 9.539-5.881 10.252-19.567 1.264-26.375z" fill="#dfb7a4"/><path d="m374.235 6.939-94.966 71.923c-8.934 6.767-8.333 20.458 1.264 26.375 134.432 82.875 125.66 78.66 132.13 78.66 8.75 0 16-7.085 16-16v-133.903c0-28.031-32.091-43.97-54.428-27.055z" fill="#dfb7a4"/><path d="m83.36 98.025v69.872c0 12.494 13.741 20.189 24.396 13.62l123.733-76.279c9.539-5.88 10.252-19.567 1.264-26.375l-52.482-39.748c-36.874 11.611-70.088 31.659-96.911 58.91z" fill="#c69a85"/><path d="m428.663 98.025c-26.799-27.226-60.003-47.288-96.911-58.91l-52.482 39.748c-8.934 6.767-8.333 20.458 1.264 26.375l123.733 76.279c10.635 6.558 24.396-1.104 24.396-13.62z" fill="#c69a85"/><path d="m256.012 298.464c-88.418 0-160.353 71.934-160.353 160.353v37.207c0 8.836 7.164 16 16 16h288.705c8.836 0 16-7.164 16-16v-37.207c0-88.419-71.934-160.353-160.352-160.353z" fill="#e0c8bf"/><path d="m416.119 450.013c-4.586-84.34-74.643-151.549-160.108-151.549s-155.52 67.209-160.107 151.549c94.212 60.434 223.07 62.316 320.215 0z" fill="#f9f9f9"/><path d="m406.032 402.199c-22.932-60.56-81.524-103.735-150.02-103.735s-127.088 43.175-150.02 103.735c86.059 66.906 213.427 67.336 300.04 0z" fill="#727272"/><path d="m392.262 114.284c-75.454-68.492-197.027-68.509-272.5 0-36.903 33.5-57.228 78.163-57.228 125.764 0 44.165 2.275 90.113 29.469 123.941 29.156 36.269 81.271 53.161 164.009 53.161s134.853-16.893 164.009-53.161c27.193-33.828 29.469-79.777 29.469-123.941-.001-47.601-20.325-92.265-57.228-125.764z" fill="#dfb7a4"/><path d="m256.012 360.999c-145.791 0-186.378-53.444-192.421-139.562-.695 6.141-1.056 12.35-1.056 18.611 0 44.165 2.275 90.113 29.469 123.941 29.156 36.269 81.271 53.161 164.009 53.161s134.853-16.893 164.009-53.161c27.193-33.828 29.469-79.777 29.469-123.941 0-6.261-.361-12.47-1.056-18.611-6.046 86.118-46.632 139.562-192.423 139.562z" fill="#c69a85"/><path d="m142.348 307.364h-61.382c-8.066 0-14.871-6.004-15.875-14.007-2.253-17.943-2.557-37.018-2.557-53.309 0-104.513 97.347-184.529 208.752-176.554 8.372.599 14.858 7.565 14.858 15.959v84.114c0 79.29-64.506 143.797-143.796 143.797z" fill="#727272"/><path d="m311.506 287.175c-30.732-24.416-80.249-24.422-110.989 0-31.104 24.712-31.105 64.953 0 89.665 30.732 24.416 80.249 24.422 110.989 0 31.104-24.711 31.105-64.953 0-89.665z" fill="#f9f9f9"/><path d="m296.19 329.293h-15c-5.062 0-9.179-4.117-9.179-9.178v-2.151l9.064-13.111c6.203-8.971-.219-21.218-11.126-21.218h-27.877c-10.907 0-17.328 12.246-11.126 21.218l9.064 13.111v2.151c0 5.061-4.117 9.178-9.179 9.178h-15c-8.837 0-16 7.164-16 16s7.163 16 16 16c15.898 0 27.14 1.48 40.179-8.629 12.982 10.065 24.384 8.629 40.179 8.629 8.837 0 16-7.164 16-16s-7.162-16-15.999-16z"/><circle cx="188.745" cy="220.206" r="19.841"/><circle cx="323.279" cy="220.206" r="19.841"/><path d="m496.012 275.045h-47.415c2.721-43.398 1.108-77.272-19.934-115.16v-125.891c0-28.031-32.091-43.969-54.428-27.054l-78.796 59.676c-25.652-4.837-52.583-4.954-78.855 0l-78.796-59.677c-22.347-16.922-54.428-.966-54.428 27.055v125.892c-21.002 37.816-22.663 71.64-19.934 115.16h-47.414c-8.837 0-16 7.164-16 16s7.163 16 16 16h51.287c3.044 15.762 8 30.791 16.028 44.372l-38.481 24.827c-7.426 4.791-9.562 14.694-4.771 22.119 4.805 7.449 14.715 9.546 22.118 4.771l41.491-26.769c3.204 2.904 6.614 5.645 10.228 8.229-21.059 40.143-18.253 70.717-18.253 111.429 0 8.836 7.163 16 16 16h288.705c8.837 0 16-7.164 16-16 0-40.952 2.777-71.341-18.253-111.429 3.614-2.584 7.024-5.324 10.228-8.229 44.513 28.719 43.84 29.326 50.15 29.326 15.921 0 22.059-20.82 8.688-29.447l-38.481-24.827c8.028-13.582 12.984-28.61 16.028-44.372h51.287c8.837 0 16-7.164 16-16s-7.162-16.001-15.999-16.001zm-102.456-242.596c1.291-.98 3.107-.083 3.107 1.544v84.431c-18.41-17.809-39.802-31.381-62.933-40.666zm-243.587 242.65c-1.193-.079 3.706-.054-54.493-.054-.809-9.508-.941-25.981-.941-34.998 0-79.449 71.429-144.178 159.61-145.082v68.601c-.001 59.084-46.073 107.602-104.176 111.533zm-33.534-242.84c1.626-.809-3.467-3.974 61.858 45.5-23.116 9.278-44.512 22.845-62.933 40.666 0-93.092-.461-85.403 1.075-86.166zm267.929 447.764h-256.705c0-25.244-1.803-49.006 14.401-80.18 28.804 11.688 66.287 17.307 113.951 17.307s85.147-5.62 113.951-17.307c16.236 31.232 14.402 55.561 14.402 80.18zm17.425-145.966-17.278-11.148c-7.422-4.79-17.328-2.655-22.118 4.771-4.791 7.425-2.655 17.328 4.771 22.119l13.067 8.431c-17.242 12.428-51.803 26.92-124.219 26.92-22.784 0-86.041-.006-123.939-27.101l12.788-8.251c7.426-4.791 9.562-14.694 4.771-22.119-4.791-7.426-14.696-9.56-22.118-4.771l-17.278 11.148c-4.627-8.089-7.905-17.064-10.218-26.693h42.332c79.29 0 143.797-64.507 143.797-143.797v-66.077c74.687 12.72 131.345 71.801 131.345 142.559 0 11.933-.157 23.688-.918 34.998h-52.454c-8.837 0-16 7.164-16 16s7.163 16 16 16h47.965c-2.317 9.75-5.618 18.833-10.296 27.011z"/></svg>