<svg id="Layer_1" enable-background="new 0 0 512 512" height="512" viewBox="0 0 512 512" width="512" xmlns="http://www.w3.org/2000/svg"><path d="m512 192c0 32.25-1.04 46.72-27.2 81.6-28.33 37.773-21.117 103.1-63.5 103.1-22.571 0-34.13-17.297-38.59-39.33-16.951 23.316-14.055 37.206-15.15 44.91-1.119 30.18-52.742 81.72-111.56 81.72-58.777 0-110.44-51.521-111.56-81.72-1.121-7.887 1.835-21.419-15.16-44.84-4.37 21.49-14.22 34.29-29.4 38.08-15.23 3.81-28.44-1.68-37.21-15.46-13.425-21.143-15.473-59.798-35.47-86.46-26.16-34.88-27.2-49.35-27.2-81.6 0-17.17 27.27-58.13 44.47-79.91 23.07-29.24 57.68-64.09 91.53-64.09 10.27 0 20.62 7.03 34.59 20.19 19.841-8.847 63.361-20.19 85.41-20.19 21.997 0 65.52 11.322 85.41 20.19 13.97-13.16 24.32-20.19 34.59-20.19 33.85 0 68.46 34.85 91.53 64.09 17.2 21.78 44.47 62.74 44.47 79.91z" fill="#ffec8f"/><path d="m224 312s80-16 72 8-24 40-40 40-48-32-32-48z" fill="#999"/><path d="m206 168s-54 8-62 48 30 80 30 80 48-32 48-64 16-56-16-64z" fill="#ffe773"/><path d="m306 168s54 8 62 48-30 80-30 80-48-32-48-64-16-56 16-64z" fill="#ffe773"/><path d="m220 64s-96 40-104 128 24 152-8 160-40-32-64-80-64-56-24-96 104-128 120-112 80 0 80 0z" fill="#efd66c"/><path d="m292 64s96 40 104 128-24 152 8 160 40-32 64-80 64-56 24-96-104-128-120-112-80 0-80 0z" fill="#efd66c"/><circle cx="180" cy="212" r="20"/><circle cx="332" cy="212" r="20"/><path d="m467.534 112.088c-23.073-29.237-57.683-64.088-91.534-64.088-10.27 0-20.622 7.034-34.594 20.191-19.785-8.821-63.312-20.191-85.406-20.191-22.113 0-65.64 11.378-85.406 20.191-13.972-13.157-24.324-20.191-34.594-20.191-33.851 0-68.461 34.851-91.534 64.088-17.192 21.785-44.466 62.743-44.466 79.912 0 32.247 1.043 46.724 27.2 81.6 19.966 26.621 22.082 65.4 35.475 86.458 8.763 13.779 21.977 19.27 37.206 15.464 15.176-3.794 25.03-16.588 29.396-38.087 16.89 23.263 14.047 36.937 15.162 44.849 1.123 30.142 52.694 81.716 111.561 81.716 58.77 0 110.436-51.52 111.561-81.715 1.109-7.873-1.828-21.567 15.148-44.913 4.463 22.044 16.021 39.329 38.588 39.329 42.297 0 35.241-65.418 63.502-103.1 26.157-34.876 27.2-49.353 27.2-81.6.001-17.17-27.273-58.128-44.465-79.913zm-211.534 231.912c-8.33 0-18.196-12.575-22.268-20.516 11.83-4.646 32.698-4.648 44.535 0-4.071 7.941-13.937 20.516-22.267 20.516zm-.001 63.962c10.396 7.852 23.978 12.591 37.934 14.341-25.229 12.909-50.609 12.923-75.867 0 13.955-1.75 27.538-6.489 37.933-14.341zm203.201-153.562c-25.193 33.589-29.058 82.236-38.207 90.281-5.711-.52-7.822-17.966-8.331-23.682-2.622-29.497 3.338-71.64 3.338-96.999 0-43.279-32.313-108.404-33.689-111.155-3.952-7.904-13.564-11.106-21.466-7.156-7.904 3.952-11.107 13.563-7.156 21.466 8.431 16.862 30.311 67.13 30.311 96.845 0 16.692-3.052 43.399-3.821 69.035-8.651 7.456-44.179 40.656-44.179 82.965 0 19.833-55.647 19.892-65.865.533-.431-.817-1.024-1.752-1.658-2.544 24.039-7.67 43.523-37.929 43.523-53.989 0-42.948-112-42.948-112 0 0 16.054 19.418 46.297 43.523 53.989-.627.782-1.22 1.713-1.658 2.543-10.253 19.418-65.865 19.266-65.865-.532 0-42.309-35.528-75.509-44.179-82.965-.741-24.706-3.821-52.753-3.821-69.035 0-29.642 21.882-79.961 30.311-96.845 3.952-7.903.748-17.514-7.156-21.466-7.903-3.952-17.515-.748-21.466 7.156-1.376 2.751-33.689 67.876-33.689 111.155 0 25.372 5.958 67.523 3.337 96.999-.508 5.716-2.619 23.161-8.331 23.682-9.245-8.129-12.925-56.572-38.207-90.281-20.578-27.437-20.797-34.916-20.8-61.529 1.856-7.371 17.018-35.5 39.828-63.768 24.049-29.805 47.328-47.966 62.735-49.051 4.727 2.375 14.519 11.658 22.124 19.262 6.059 6.06 15.832 6.27 22.146.462 7.95-5.427 55.776-19.776 77.168-19.776s69.218 14.349 77.168 19.776c6.307 5.801 16.08 5.604 22.146-.462 13.201-13.201 19.307-17.838 22.126-19.262 15.407 1.087 38.685 19.249 62.732 49.051 22.81 28.268 37.972 56.397 39.828 63.768-.002 26.613-.222 34.092-20.8 61.529z"/><circle cx="180" cy="212" r="20"/><circle cx="332" cy="212" r="20"/><path d="m248 128s16-16 16 0-8 40-8 40-8-32-8-40z" fill="#ffe773"/></svg>