<svg id="Layer_1" enable-background="new 0 0 511.995 511.995" height="512" viewBox="0 0 511.995 511.995" width="512" xmlns="http://www.w3.org/2000/svg"><path d="m388.876 7.483-133.334 81.275-132.322-81.186c-32.888-20.18-74.312 7.272-68.629 45.383l31.328 210.057c1.837 12.316 16.391 17.814 25.927 10.047l143.605-116.919 143.604 116.918c9.56 7.783 24.034 2.226 25.915-9.968l32.389-209.931c5.889-38.173-35.539-65.758-68.483-45.676z" fill="#727272"/><path d="m424.97 263.09 17.623-114.228c-33.362-46.56-92.816-74.574-148.595-83.546l-38.456 23.441-37.989-23.307c-54.468 8.951-114.758 36.395-148.593 83.85l16.959 113.712c1.826 12.244 16.324 17.869 25.927 10.047l143.605-116.919 143.604 116.918c9.571 7.792 24.031 2.242 25.915-9.968z" fill="#3f3f3f"/><path d="m255.992 296.939c-88.419 0-160.353 71.934-160.353 160.353v37.207c0 8.836 7.163 16 16 16h288.705c8.837 0 16-7.164 16-16v-37.207c.001-88.419-71.933-160.353-160.352-160.353z" fill="#727272"/><path d="m387.812 366.74c-66.191-95.397-208.496-90.842-268.762 7.851-3.225 5.281-3.115 11.948.28 17.12l73.755 112.326c2.959 4.505 7.985 7.218 13.375 7.218h88.258c5.338 0 10.324-2.662 13.295-7.098l79.948-119.395c3.66-5.466 3.602-12.617-.149-18.022z" fill="#e0e0e0"/><path d="m481.469 336.443-28.577-112.587c-22.442-155.882-218.322-208.007-330.1-114.33-34.665 29.051-57.263 69.626-63.699 114.33l-28.578 112.587c-3.463 13.647 11.156 24.753 23.359 17.878 18.611-10.48 33.997-10.761 49.688-.847 43.759 48.594 65.9 85.162 152.431 85.162 86.309 0 108.396-36.281 152.539-85.282 9.446-6.364 24.717-12.562 49.782 1.079 12.227 6.656 26.585-4.478 23.155-17.99z" fill="#727272"/><path d="m469.152 287.916c-1.356-5.344-4.949-10.226-10.839-13.432-25.065-13.641-40.336-7.443-49.782-1.079-43.756 48.572-65.901 85.282-152.539 85.282-86.492 0-108.665-36.561-152.431-85.162-15.69-9.914-31.077-9.634-49.688.847-5.656 3.186-9.417 7.145-11.04 13.54l-12.319 48.531c-3.463 13.647 11.156 24.753 23.359 17.878 18.611-10.48 33.997-10.761 49.688-.847 43.759 48.594 65.9 85.162 152.431 85.162 86.309 0 108.396-36.281 152.539-85.282 9.446-6.364 24.717-12.562 49.782 1.079 12.136 6.606 26.652-4.218 23.063-18.357z" fill="#606060"/><path d="m322.955 290.143c-37.083-29.462-96.833-29.469-133.926 0-37.532 29.819-37.533 78.376 0 108.195 37.083 29.462 96.833 29.469 133.926 0 37.533-29.818 37.533-78.376 0-108.195z" fill="#999"/><circle cx="215.329" cy="248.975" r="19.841"/><circle cx="296.656" cy="248.975" r="19.841"/><path d="m504.253 269.436c-14.309-8.626-29.196-14.944-44.605-18.962l-6.756-26.618c-2.465-17.124-7.31-33.638-14.288-49.135l18.755-121.562c5.89-38.174-35.538-65.759-68.482-45.677l-96.195 58.636c-24.101-3.883-49.863-3.853-73.906.081l-95.556-58.627c-32.863-20.163-74.317 7.242-68.629 45.383l18.316 122.81c-6.727 15.193-11.403 31.353-13.813 48.092l-6.756 26.617c-15.408 4.018-30.295 10.337-44.605 18.963-13.832 8.339-7.905 29.708 8.275 29.705 7.73 0 8.987-4.299 26.982-11.844l-12.475 49.146c-3.463 13.647 11.156 24.753 23.359 17.878 12.445-7.008 23.447-9.448 34.064-7.336-14.024 13.716-25.381 28.061-33.911 42.934-4.396 7.665-1.746 17.442 5.919 21.839 7.715 4.424 17.471 1.698 21.84-5.919 7.89-13.756 18.86-27.129 32.735-40 3.296 3.758 4.427 5.048 5.875 6.696-28.424 44.909-24.756 82.565-24.756 122.719 0 8.837 7.164 16 16 16h288.705c8.836 0 16-7.163 16-16 0-40.398 3.734-77.706-24.757-122.721 1.415-1.609 2.767-3.152 5.876-6.696 13.875 12.871 24.845 26.244 32.735 40 2.957 5.156 8.348 8.043 13.894 8.043 12.184 0 20.005-13.256 13.865-23.963-8.554-14.916-19.951-29.3-34.031-43.052 8.707-1.566 19.91-.312 34.386 7.566 12.228 6.656 26.586-4.477 23.156-17.99l-12.474-49.146c6.341 2.659 12.583 5.835 18.738 9.545 7.598 4.579 17.42 2.094 21.963-5.442 4.561-7.568 2.124-17.401-5.443-21.963zm-98.721-234.629c9.72-5.928 21.938 2.216 20.201 13.474l-13.086 84.82c-20.278-24.457-46.916-43.555-77.392-55.455zm-319.291 13.427c-1.318-8.833 5.829-15.421 13.334-15.421 5.128 0 1.586-1.232 76.854 44.949-31.455 12.34-57.824 31.947-77.464 55.789zm128.854 431.021-36.987-56.33c40.68 20.845 105.917 19.144 141.68 6.133l-33.613 50.196h-71.08zm-80.166-63.788 41.884 63.788h-49.173c0-23.835-1.14-39.905 7.289-63.788zm249.416 63.788h-59.657l48.777-72.843c12.504 28.324 10.88 49.623 10.88 72.843zm58.759-163.892c-19.176-3.212-34.879 1.396-46.743 7.968-4.465-3.361-9.087-6.681-13.905-9.945-7.314-4.961-17.263-3.046-22.221 4.27-4.957 7.315-3.045 17.264 4.271 22.221 2.792 1.892 5.492 3.804 8.145 5.725-35.151 40.071-53.24 61.036-116.658 61.036-61.83 0-80.03-19.281-116.658-61.036 2.653-1.921 5.352-3.833 8.145-5.725 7.315-4.957 9.228-14.905 4.271-22.221-4.957-7.313-14.906-9.226-22.221-4.27-4.86 3.293-9.521 6.642-14.021 10.034-14.944-8.117-30.512-10.883-46.577-8.253l9.427-37.14c18.13-2.071 37.142-.378 57.286 5.07 8.529 2.305 17.315-2.739 19.622-11.269s-2.738-17.315-11.269-19.622c-19.7-5.328-38.844-7.593-57.353-6.826 4.009-15.794 3.847-14.999 4.017-16.223 10.957-78.855 78.943-133.927 165.33-133.927s154.374 55.072 165.331 133.926c.171 1.229-.018.328 4.017 16.224-18.509-.768-37.652 1.498-57.353 6.825-8.53 2.307-13.575 11.092-11.269 19.622s11.09 13.572 19.622 11.269c20.144-5.448 39.156-7.141 57.286-5.069z"/><path d="m290.886 332.805-22.015-6.807 12.185-17.625c6.203-8.971-.219-21.218-11.126-21.218h-27.877c-10.907 0-17.328 12.247-11.126 21.218l12.185 17.625-22.015 6.807c-8.442 2.61-13.17 11.57-10.56 20.013s11.57 13.17 20.013 10.56l25.441-7.867c28.031 8.668 26.955 8.585 30.172 8.585 6.831 0 13.157-4.409 15.281-11.277 2.612-8.444-2.115-17.404-10.558-20.014z"/></svg>