<svg id="Layer_1" enable-background="new 0 0 512.023 512.023" height="512" viewBox="0 0 512.023 512.023" width="512" xmlns="http://www.w3.org/2000/svg"><path d="m232.754 78.862-94.966-71.923c-22.344-16.922-54.428-.966-54.428 27.055v133.903c0 8.915 7.248 16 16 16 6.394 0-2.461 4.314 132.13-78.66 9.539-5.881 10.252-19.567 1.264-26.375z" fill="#c69a85"/><path d="m374.235 6.939-94.965 71.923c-8.934 6.767-8.333 20.458 1.264 26.375 134.432 82.875 125.66 78.66 132.13 78.66 8.75 0 16-7.085 16-16v-133.903c-.001-28.031-32.092-43.97-54.429-27.055z" fill="#c69a85"/><g fill="#dfb7a4"><path d="m83.36 98.025v69.872c0 12.494 13.741 20.189 24.396 13.62l123.733-76.279c9.539-5.88 10.252-19.567 1.264-26.375l-52.482-39.748c-36.874 11.611-70.087 31.659-96.911 58.91z"/><path d="m428.663 98.025c-26.799-27.226-60.003-47.288-96.911-58.91l-52.482 39.747c-8.934 6.767-8.333 20.458 1.264 26.375l123.733 76.279c10.635 6.558 24.396-1.104 24.396-13.62z"/><path d="m256.012 298.464c-88.418 0-160.353 71.934-160.353 160.353v37.207c0 8.836 7.164 16 16 16h288.705c8.836 0 16-7.164 16-16v-37.207c0-88.419-71.934-160.353-160.352-160.353z"/></g><path d="m440.517 191.3c-3.727-5.418-10.386-8.007-16.794-6.522l-167.711 38.846-167.711-38.846c-6.544-1.514-13.334 1.217-17.006 6.838-50.705 77.631-67.005 134.457-51.297 178.834 22.038 62.26 101.226 87.783 201.481 120.096 32.67 10.531 31.011 10.37 34.533 10.37 3.374 0 2.739-.102 27.083-7.84 97.189-30.894 188.408-58.388 211.211-124.894 15.4-44.913-1.692-101.119-53.789-176.882z" fill="#c69a85"/><path d="m392.261 114.284c-75.453-68.492-197.027-68.509-272.499 0-74.796 67.895-78.319 180.232 1.287 251.595 75.18 67.395 192.835 69.109 269.926 0 79.54-71.305 76.151-183.638 1.286-251.595z" fill="#c69a85"/><path d="m121.049 291.368c-27.717-24.847-46.273-55.557-54.179-88.862-26.942 115.005 73.492 214.644 189.142 214.644 116.158 0 215.978-100.09 189.141-214.644-30.678 129.234-209.957 191.19-324.104 88.862z" fill="#e8d9d4"/><path d="m311.506 269.632c-30.732-24.416-80.249-24.422-110.989 0-31.104 24.712-31.105 64.953 0 89.665 30.732 24.416 80.249 24.422 110.989 0 31.105-24.712 31.105-64.953 0-89.665z" fill="#f4d3bd"/><circle cx="188.745" cy="220.207" r="19.841"/><circle cx="323.279" cy="220.207" r="19.841"/><path d="m511.938 255.434c-.843-8.797-8.667-15.243-17.454-14.399l-22.179 2.127c-7.91-14.984-17.561-30.857-28.966-47.704-3.475-12.334-8.388-24.25-14.675-35.571v-125.893c0-28.03-32.091-43.971-54.428-27.054l-78.796 59.677c-25.6-4.827-52.532-4.963-78.855 0l-78.797-59.678c-22.346-16.922-54.428-.964-54.428 27.055v125.892c-6.351 11.436-11.302 23.477-14.783 35.945-10.79 16.775-19.945 32.567-27.488 47.462l-23.55-2.259c-8.792-.844-16.611 5.603-17.454 14.399-.844 8.796 5.603 16.611 14.399 17.454l12.804 1.228c-31.4 81.863-5.2 133.231 69.044 170.107-.894 9.816-.673 12.653-.673 51.801 0 8.836 7.164 16 16 16h288.705c8.836 0 16-7.164 16-16 0-38.416.22-41.865-.656-51.606 75.441-37.54 102.931-89.578 70.906-170.482l10.925-1.048c8.796-.843 15.243-8.657 14.399-17.453zm-118.382-222.985c1.294-.978 3.107-.083 3.107 1.544v84.431c-18.411-17.81-39.803-31.382-62.934-40.666zm23.641 215.997-46.936 4.501c-8.796.843-15.243 8.658-14.399 17.454.793 8.277 7.759 14.474 15.908 14.474 1.1 0-1.885.255 38.8-3.647-3.754 10.974-8.951 21.442-15.387 31.218l-27.195-12.312c-8.051-3.646-17.53-.074-21.175 7.977s-.073 17.53 7.977 21.175l19.188 8.687c-64.897 62.91-171.144 62.803-235.93 0l19.188-8.687c8.05-3.645 11.621-13.125 7.977-21.175-3.645-8.051-13.125-11.621-21.175-7.977l-27.195 12.312c-6.436-9.775-11.632-20.244-15.387-31.218 40.769 3.91 37.696 3.647 38.8 3.647 8.147 0 15.114-6.197 15.908-14.474.844-8.796-5.603-16.611-14.399-17.454l-46.936-4.501c-5.526-82.282 67.697-153.501 161.185-153.501 93.784 0 166.692 71.47 161.183 153.501zm-300.761-216.187c1.631-.811-3.467-3.974 61.859 45.5-23.117 9.279-44.512 22.846-62.934 40.666-.001-93.094-.461-85.403 1.075-86.166zm-49.348 245.673c4.086 16.774 10.883 32.877 20.194 47.896l-40.544 18.356c-1.906-18.474 2.638-40.658 13.758-66.884zm60.571 180.885c0-2.099-3.35-.122 61.403 21.207h-61.403zm256.705 0v21.207h-60.652c63.057-20.717 60.652-23.011 60.652-21.207zm-128.302 9.284c-91.92-29.946-170.515-51.928-198.495-93.693l49.503-22.412c78.365 86.211 218.572 87.253 297.884 0l50.31 22.777c-30.337 42.935-117.821 67.326-199.202 93.328zm210.943-123.139-42.263-19.134c9.31-15.019 16.107-31.122 20.194-47.896l8.303-.796c11.699 26.548 16.25 49.042 13.766 67.826z"/><path d="m230.833 309.532h-15c-8.836 0-16 7.164-16 16s7.164 16 16 16c15.898 0 27.14 1.48 40.178-8.629 12.982 10.065 24.384 8.629 40.178 8.629 8.836 0 16-7.164 16-16s-7.164-16-16-16h-15c-5.061 0-9.178-4.117-9.178-9.178v-2.151l9.064-13.111c6.203-8.972-.219-21.218-11.126-21.218h-27.877c-10.907 0-17.328 12.246-11.126 21.218l9.064 13.111v2.151c.002 5.061-4.115 9.178-9.177 9.178z"/></svg>