<?xml version="1.0" encoding="iso-8859-1"?>
<!-- Generator: Adobe Illustrator 19.0.0, SVG Export Plug-In . SVG Version: 6.00 Build 0)  -->
<svg version="1.1" id="Capa_1" xmlns="http://www.w3.org/2000/svg" xmlns:xlink="http://www.w3.org/1999/xlink" x="0px" y="0px"
	 viewBox="0 0 512 512" style="enable-background:new 0 0 512 512;" xml:space="preserve">
<g>
	<g>
		<path d="M182.282,354.72l-24.858-24.858c-24.99-25.005-58.242-38.774-93.633-38.774c-16.538-0.001-30,13.461-30,29.999
			c0,16.538,13.462,29.985,30,29.985c19.058,0,37.72,7.734,51.211,21.226l24.858,24.858c13.477,13.477,21.211,32.139,21.211,51.211
			c0,16.513,13.351,29.985,30,29.985c16.538,0,30-13.447,30-29.985C221.071,412.991,207.301,379.739,182.282,354.72z"/>
	</g>
</g>
<g>
	<g>
		<path d="M507.446,4.395c-5.859-5.859-15.352-5.86-21.212,0L416.06,74.886c-16.708-7.883-37.114-5.332-50.892,8.458L354.572,93.94
			l63.629,63.651l10.615-10.615c13.779-13.779,16.328-34.173,8.452-50.876l70.178-70.494
			C513.305,19.747,513.305,10.254,507.446,4.395z"/>
	</g>
</g>
<g>
	<g>
		<path d="M100.003,475.789l30.461-30.461c-0.758-10.058-4.658-19.805-11.814-26.96L93.792,393.51
			c-7.167-7.154-16.901-11.061-26.949-11.825l-30.467,30.467l-10.611-10.615c-5.861-5.86-15.353-5.86-21.212-0.001
			s-5.859,15.352,0,21.211c0.001,0.001,84.245,84.26,84.844,84.858c5.86,5.86,15.351,5.86,21.211,0
			c5.859-5.859,5.859-15.352,0-21.211L100.003,475.789z"/>
	</g>
</g>
<g>
	<g>
		<path d="M386.379,168.202l-42.422-42.451c-17.563-17.535-46.128-17.521-63.633,0.014l-53.04,53.04L333.35,284.863l21.213-21.213
			l-31.816-31.816c-5.859-5.859-5.859-15.352,0-21.211c5.859-5.859,15.352-5.859,21.211,0l31.816,31.816l10.605-10.605
			c8.496-8.496,13.184-19.805,13.184-31.816C399.563,187.992,394.875,176.683,386.379,168.202z"/>
	</g>
</g>
<g>
	<g>
		<path d="M259.099,295.482l31.816,31.816l21.224-21.224L206.073,200.016l-75.694,75.694c17.693,7.976,34.146,18.809,48.27,32.941
			l24.844,24.858c14.134,14.128,24.968,30.579,32.946,48.265l33.265-33.265l-31.816-31.816c-5.859-5.859-5.859-15.352,0-21.211
			S253.24,289.623,259.099,295.482z"/>
	</g>
</g>
<g>
</g>
<g>
</g>
<g>
</g>
<g>
</g>
<g>
</g>
<g>
</g>
<g>
</g>
<g>
</g>
<g>
</g>
<g>
</g>
<g>
</g>
<g>
</g>
<g>
</g>
<g>
</g>
<g>
</g>
</svg>
