<svg id="Layer_1" enable-background="new 0 0 512 512" height="512" viewBox="0 0 512 512" width="512" xmlns="http://www.w3.org/2000/svg"><path d="m512 335.579c0 44.489-1.94 73.899-11.88 92.529-12.88 24.141-36.51 27.471-60.12 27.471-27.11 0-47.74-12.761-61.66-28.931-2.13 2.94-4.48 5.69-7.03 8.24-22.869 22.869-82.939 33.516-113.65 36.601-3.473 1.715-89.839-9.47-116.97-36.601-2.55-2.55-4.9-5.3-7.03-8.24-13.93 16.17-34.55 28.931-61.66 28.931-23.61 0-47.24-3.33-60.12-27.471-9.94-18.63-11.88-48.04-11.88-92.529 0-64.603 30.665-130.503 62.7-185.971 1.2-11.239 8.22-22.78 22.13-36.64 12.3-12.24 30.68-26.99 57.87-46.41 38.33-27.377 80.215-31.771 113.3-20.19 17.13-5.96 62.61-16.02 113.3 20.19 27.19 19.42 45.57 34.17 57.87 46.41 13.93 13.87 20.95 25.43 22.13 36.65 32.168 54.37 62.7 122.539 62.7 185.961z" fill="#a07765"/><path d="m446.35 166.659c-7.182 16.26-21.263 137.573-15.17 155.859 3.93 11.811 3.87 32.69-40.75 78.12-3.67 13.72-10.09 25.22-19.12 34.25-12.33 12.33-34.87 21.92-68.91 29.33-17.587 3.82-42.099 7.36-46.4 7.36-4.904 0-87.456-8.836-115.31-36.69-9.03-9.03-15.45-20.53-19.12-34.25-44.62-45.43-44.68-66.31-40.75-78.12 6.105-18.322-8.046-139.691-15.17-155.859-9.629-19.533 3.83-38.397 19.18-53.69 12.3-12.24 30.68-26.99 57.87-46.41 37.819-27.015 79.932-31.8 113.3-20.2 33.129-11.55 75.306-6.94 113.3 20.2 27.19 19.42 45.57 34.17 57.87 46.41 15.356 15.299 28.83 34.172 19.18 53.69z" fill="#ece2e2"/><path d="m446.35 166.659c-6.536 14.798-20.23 125.356-15.68 153.59-6.4 7.34-14.48 15.569-24.62 24.819-4.09 13.721-11.26 25.221-21.34 34.25-13.76 12.33-38.92 21.921-76.92 29.33-26.36 5.13-49.06 7.2-50.02 7.28-5.754.486-99.305-8.675-130.48-36.61-10.08-9.029-17.25-20.529-21.34-34.25-10.14-9.25-18.22-17.479-24.62-24.819 4.562-28.308-9.213-138.912-15.68-153.59-9.629-19.533 3.83-38.397 19.18-53.69 12.3-12.24 30.68-26.99 57.87-46.41 37.819-27.015 79.932-31.8 113.3-20.2 33.129-11.55 75.306-6.94 113.3 20.2 27.19 19.42 45.57 34.17 57.87 46.41 15.356 15.299 28.83 34.172 19.18 53.69z" fill="#f2f2f2"/><path d="m446.35 166.659c-7.099 16.073-21.312 137.434-15.17 155.859 8.773 26.341-24.261 61.679-44.03 81.42-11.307 11.126-30.175.703-26.88-14.75 4.82-22.52-.5-53.529-14.98-87.31-8.29-19.351-26.56-31.66-54.33-36.59-5.48-.971-10.05-4.721-12.09-9.9-.16-.41-.39-.95-.66-1.62-24.99-60.67-16.47-105.54-4.92-132.49 7.96-18.58-2.78-39.33-13.2-53.47-6.947-9.426-1.73-22.91 9.77-25.18 19.27-3.82 57.82-5.8 99.44 23.93 27.19 19.42 45.57 34.17 57.87 46.41 15.356 15.3 28.83 34.173 19.18 53.691z" fill="#c79a83"/><path d="m251.91 67.808c-10.42 14.14-21.16 34.89-13.2 53.47 11.55 26.95 20.07 71.82-4.92 132.49-.27.67-.5 1.21-.66 1.62-2.04 5.18-6.61 8.93-12.09 9.9-27.77 4.93-46.04 17.239-54.33 36.59-14.48 33.78-19.8 64.79-14.98 87.31 3.456 16.209-16.943 25.969-27.39 14.23-47.39-47.37-47.53-68.851-43.52-80.9 6.1-18.299-8.018-139.627-15.17-155.859-9.629-19.533 3.83-38.397 19.18-53.69 12.3-12.24 30.68-26.99 57.87-46.41 41.62-29.73 80.17-27.75 99.44-23.93 11.487 2.267 16.725 15.742 9.77 25.179z" fill="#c79a83"/><circle cx="188" cy="203.579" r="20"/><path d="m450.119 151.022c-2.409-4.152.608-14.594-22.947-38.05-12.298-12.247-30.687-26.995-57.872-46.413-50.695-36.21-96.168-26.153-113.3-20.193-33.601-11.687-75.086-7.101-113.299 20.193-27.186 19.418-45.574 34.166-57.872 46.413-23.551 23.452-20.566 33.945-22.947 38.05-15.307 26.359-61.882 106.572-61.882 184.557 0 44.492 1.944 73.896 11.883 92.529 12.876 24.143 36.503 27.471 60.117 27.471 27.112 0 47.734-12.758 61.664-28.93 2.131 2.94 4.472 5.691 7.023 8.243 12.329 12.33 34.871 21.921 68.915 29.321 29.087 6.324 46.754 7.365 46.398 7.365 5.459 0 31.396-4.104 46.398-7.365 34.044-7.4 56.586-16.991 68.915-29.321 2.551-2.551 4.892-5.302 7.022-8.242 13.929 16.171 34.552 28.929 61.664 28.929 23.614 0 47.241-3.328 60.117-27.471 9.94-18.634 11.884-48.037 11.884-92.529 0-77.985-46.575-158.198-61.881-184.557zm-32.665 1.887c-9.621 20.48-26.035 150.141-16.758 179.348.004 2.048-1.874 7.573-8.345 16.936-2.681-18.63-8.589-38.79-17.645-59.914-11.628-27.145-35.477-45.568-69.263-53.647-17.883-47.286-11.51-81.281-2.738-101.749 7.937-18.521 6.872-39.631-2.745-61.16 14.375 1.296 31.926 6.438 50.739 19.876 12.584 8.987 63.502 45.353 66.755 60.31zm-256.154-60.311c18.801-13.43 36.346-18.569 50.733-19.861-9.611 21.523-10.674 42.628-2.739 61.145 8.771 20.468 15.145 54.463-2.738 101.749-33.786 8.079-57.635 26.502-69.262 53.645-9.056 21.126-14.964 41.287-17.646 59.917-6.471-9.362-8.349-14.888-8.344-16.936 9.172-28.875-7.055-158.783-16.757-179.349 3.246-14.958 54.241-51.372 66.753-60.31zm-89.3 330.981c-24.333 0-28.7-4.563-31.883-10.529-6.736-12.632-8.117-40.106-8.117-77.471 0-38.504 13.56-84.47 40.344-136.969 7.555 47.493 12.505 111.827 8.477 123.909-3.783 11.347-3.86 31.08 35.748 72.927-6.306 11.028-20.043 28.133-44.569 28.133zm200 13.802v-73.13c32.875-13.831 35.889-52.673-16-52.673-51.875 0-48.894 38.834-16 52.673v73.13c-28.553-4.413-64.825-13.256-76.687-25.116-5.472-5.473-9.299-12.995-11.41-22.344-.363-3.476-9.138-32.194 14.804-88.042 8.288-19.348 26.567-31.657 54.33-36.587 5.479-.973 10.058-4.722 12.093-9.898.164-.416.39-.961.664-1.628 24.989-60.669 16.465-105.535 4.912-132.49-6.418-14.976-.677-31.361 7.247-44.558 3.75 1.372 2.838 1.277 2.899 1.156 7.811 3.898 13.647.132 17.187-1.169 7.928 13.199 13.675 29.59 7.255 44.571-11.553 26.955-20.077 71.821 4.912 132.49.274.667.5 1.212.664 1.628 2.035 5.177 6.614 8.926 12.093 9.898 27.763 4.93 46.042 17.239 54.331 36.591 13.978 32.604 19.417 62.627 15.441 84.937-.607 1.939-2.158 15.553-12.049 25.445-11.861 11.861-48.135 20.704-76.686 25.116zm199.883-24.332c-3.183 5.966-7.55 10.529-31.883 10.529-24.522 0-38.258-17.1-44.569-28.134 39.61-41.847 39.53-61.579 35.747-72.926-1.78-5.341-2.555-30.809 2.606-79.082 1.85-17.307 3.915-32.534 5.871-44.827 26.785 52.5 40.345 98.466 40.345 136.97 0 37.365-1.381 64.839-8.117 77.47z"/><circle cx="324" cy="203.579" r="20"/><g fill="#a07765"><path d="m320 152.008s56 0 56 24-56-8-72 0 0-24 16-24z"/><path d="m192 152.008s-56 0-56 24 56-8 72 0 0-24-16-24z"/></g></svg>