<svg id="Layer_1" enable-background="new 0 0 512 512" height="512" viewBox="0 0 512 512" width="512" xmlns="http://www.w3.org/2000/svg"><path d="m512 223.87c0 31.393-50.45 73.354-77.8 108.03-8.15 10.31-10.09 15.06-10.55 16.62 2.732 12.781-10.204 23.253-22.11 17.97-9.873 22.24-29.513 64.896-52.48 72.56-18.658 6.222-85.93 23.984-91.9 24.78-2.052.114-3.9-.116-5.17-.47-20.774-5.196-68.543-17.497-89.05-24.31-22.807-7.61-42.288-49.602-52.48-72.56-12.08 5.303-24.811-5.333-22.11-17.97-.46-1.56-2.4-6.31-10.55-16.62-27.34-34.663-77.8-76.645-77.8-108.03 0-38.556 24.824-54.082 42.69-80.88 14.141-21.211 8.316-33.367 43.71-59.92 30.18-22.63 51.7-16.95 64.77-8.63 46.304-35.052 163.273-35.115 209.66 0 13.07-8.32 34.6-14 64.77 8.63 35.454 26.598 29.487 38.586 43.71 59.92 17.858 26.787 42.69 42.32 42.69 80.88z" fill="#818182"/><path d="m332.56 279.87c-69.6 0-76.56 64-76.56 64s-6.96-64-76.56-64c-50.39 0-42.4 104.88-5.07 162.74 7.968 2.365 75.849 21.26 81.71 21.26 5.515 0 72.481-18.568 81.55-21.26 37.33-57.86 45.32-162.74-5.07-162.74z" fill="#c79a83"/><path d="m296 239.87c-16 0-32 0-32-16s16-40 16-56-24-40-24-40-24 24-24 40 16 40 16 56-16 16-32 16-48 36.26-48 80c0 40 24 72 88 72s88-32 88-72c0-43.74-32-80-48-80z" fill="#f2f2f2"/><path d="m167.78 98.5-8 48c-.84 5.05-4.05 9.39-8.62 11.68-1.16.58-2.91 1.45-3.4 8.56-.65 9.35 1.53 23.55 4.02 38.5 8.86 53.135-16.604 138.074-36.47 157.94-11.183 11.218-30.295.943-26.96-14.66-.46-1.56-2.4-6.31-10.55-16.62-27.34-34.663-77.8-76.645-77.8-108.03 0-38.556 24.786-54.024 42.69-80.88 14.141-21.211 8.316-33.367 43.71-59.92 43.1-32.33 68.55-6.88 76.91 1.49 3.66 3.65 5.32 8.84 4.47 13.94z" fill="#999"/><path d="m512 223.87c0 31.393-50.45 73.354-77.8 108.03-8.15 10.31-10.09 15.06-10.55 16.62 3.326 15.56-15.755 25.901-26.96 14.66-19.915-19.874-45.297-105.001-36.47-157.94 2.49-14.95 4.67-29.15 4.02-38.5-.49-7.11-2.24-7.98-3.4-8.56-4.57-2.29-7.78-6.63-8.62-11.68l-8-48c-.85-5.1.81-10.29 4.47-13.94 8.36-8.37 33.81-33.81 76.91-1.49 35.454 26.598 29.487 38.586 43.71 59.92 17.886 26.829 42.69 42.32 42.69 80.88z" fill="#999"/><circle cx="192" cy="207.87" r="16"/><path d="m460.199 125.39c-6.081-14.449-11.774-25.201-34.6-42.319-30.174-22.632-51.699-16.945-64.766-8.627-46.298-35.053-163.28-35.122-209.667-.001-13.066-8.318-34.59-14.006-64.766 8.627-22.825 17.118-28.518 27.87-34.599 42.319-17.175 40.806-51.801 52.234-51.801 98.481 0 20.663 19.212 43.037 50.854 77.43 8.144 8.852 34.337 36.53 37.5 47.217-2.728 12.695 10.125 23.262 22.105 17.976 9.8 22.126 29.516 64.901 52.481 72.557 22.555 7.518 87.511 24.08 90.237 24.568 1.684.304 3.071.304 4.436.167 2.597-.266 68.25-17.003 91.446-24.735 22.966-7.655 42.682-50.434 52.481-72.556 11.977 5.284 24.833-5.277 22.105-17.977 3.18-10.741 29.728-38.769 37.5-47.217 31.642-34.393 50.855-56.767 50.855-77.43 0-46.214-34.665-57.767-51.801-98.48zm-52.547 188.451c-.527-.287-1.074-.546-1.643-.777-10.15-28.708-19.183-72.832-14.228-102.563 5.493-32.96 11.174-67.041-16.627-80.941-7.904-3.952-17.516-.748-21.466 7.155-3.952 7.903-.748 17.515 7.155 21.466 1.157.579 2.905 1.453 3.399 8.564.649 9.347-1.534 23.542-4.026 38.494-6.421 38.524 5.443 94.596 19.892 129.706-3.195 7.962-7.75 18.82-13.021 29.925-18.106 38.143-27.456 43.458-28.259 43.857-19.871 6.609-68.713 19.074-82.83 22.643-14.116-3.568-62.954-16.031-82.829-22.643-.803-.399-10.153-5.715-28.259-43.857-5.271-11.104-9.827-21.963-13.022-29.925 14.364-34.902 26.344-90.999 19.892-129.706-2.492-14.952-4.675-29.147-4.026-38.494.494-7.111 2.243-7.985 3.399-8.564 7.904-3.951 11.107-13.563 7.156-21.466-3.953-7.905-13.563-11.107-21.466-7.155-27.801 13.9-22.121 47.981-16.627 80.941 4.952 29.713-4.061 73.808-14.227 102.561-.569.23-1.117.491-1.645.778-19.445-25.185-72.344-75.922-72.344-89.97 0-16.671 7.327-25.43 19.467-39.939 42.825-51.191 19.877-49.568 54.133-75.261 20.898-15.675 27.791-8.782 35.086-1.486 6.856 6.858 18.258 6.095 24.113-1.714 13.934-18.577 63.338-25.561 91.208-25.6 24.198.019 76.661 6.225 91.192 25.6 5.854 7.806 17.254 8.576 24.113 1.714 7.296-7.297 14.188-14.188 35.087 1.486 28.415 21.312 18.345 25.163 36.287 52.075 19.466 29.199 37.314 37.973 37.314 63.125 0 14.051-52.895 64.779-72.348 89.971z"/><circle cx="320" cy="207.87" r="16"/><path d="m339.146 304.141c-8.668-1.732-17.086 3.846-18.819 12.511-.058.272-5.96 27.219-24.327 27.219-13.9 0-20.882-3.542-24-5.914v-31.715c11.616-8.064 19.199-23.172 8-34.371-4.686-4.687-16-8-24 0-8-8-19.314-4.687-24 0-11.199 11.199-3.616 26.307 8 34.371v31.715c-3.118 2.372-10.099 5.914-24 5.914-18.249 0-24.193-26.6-24.325-27.21-1.766-8.624-10.175-14.209-18.813-12.479-8.665 1.733-14.285 10.162-12.552 18.827.261 1.302 2.752 13.065 9.97 25.095 10.744 17.906 26.981 27.768 45.72 27.768 18.846 0 31.6-4.78 40-10.166 8.4 5.385 21.154 10.166 40 10.166 18.739 0 34.976-9.861 45.72-27.768 7.218-12.029 9.709-23.793 9.97-25.095 1.732-8.666-3.878-17.136-12.544-18.868z"/><g fill="#c79a83"><path d="m216 159.87s16 8 16 24-16 16-16 0 0-16 0-24z"/><path d="m296 159.87s-16 8-16 24 16 16 16 0 0-16 0-24z"/></g></svg>