<svg id="Capa_1" enable-background="new 0 0 512 512" height="512" viewBox="0 0 512 512" width="512" xmlns="http://www.w3.org/2000/svg"><g><path d="m105 143.001c-24.813 0-45 20.187-45 45s20.187 45 45 45 45-20.187 45-45-20.187-45-45-45zm0 60c-8.271 0-15-6.729-15-15s6.729-15 15-15 15 6.729 15 15-6.729 15-15 15z"/><path d="m407 143.001c-24.813 0-45 20.187-45 45s20.187 45 45 45 45-20.187 45-45-20.186-45-45-45zm0 60c-8.271 0-15-6.729-15-15s6.729-15 15-15 15 6.729 15 15-6.728 15-15 15z"/><path d="m196 173.001c24.813 0 45-20.187 45-45s-20.187-45-45-45-45 20.187-45 45 20.187 45 45 45zm0-60c8.271 0 15 6.729 15 15s-6.729 15-15 15-15-6.729-15-15 6.729-15 15-15z"/><path d="m316 83.001c-24.813 0-45 20.187-45 45s20.187 45 45 45 45-20.187 45-45-20.186-45-45-45zm0 60c-8.271 0-15-6.729-15-15s6.729-15 15-15 15 6.729 15 15-6.728 15-15 15z"/><path d="m330.682 241.056c-3.518-38.11-35.669-68.055-74.682-68.055s-71.164 29.945-74.681 68.055c-18.489 10.528-30.319 30.257-30.319 51.945 0 33.084 26.916 60 60 60h90c33.084 0 60-26.916 60-60 0-21.688-11.829-41.417-30.318-51.945zm-29.682 81.945h-90c-16.542 0-30-13.458-30-30 0-12.635 8.119-23.954 20.204-28.164 6.318-2.201 11.076-8.348 9.8-17.376.29-24.565 20.364-44.461 44.997-44.461s44.706 19.896 44.997 44.462c-.082.573-.203 1.47-.251 2.53-.301 6.626 3.786 12.663 10.05 14.845 12.085 4.21 20.204 15.528 20.204 28.164-.001 16.542-13.459 30-30.001 30z"/><path d="m508.211 107.966c5.504-6.192 4.946-15.673-1.245-21.177-6.193-5.505-15.675-4.945-21.177 1.246l-14.867 16.726c-16.61-12.785-37.134-20.724-59.439-21.666-7.472-15.691-18.626-29.023-32.191-39.118l8.839-12.154c4.873-6.7 3.392-16.081-3.309-20.954-6.698-4.873-16.08-3.391-20.953 3.308l-11.18 15.372c-11.525-4.253-23.911-6.549-36.689-6.549-21.444 0-42.335 6.759-60 19.236-17.665-12.477-38.556-19.236-60-19.236-12.778 0-25.164 2.296-36.689 6.549l-11.18-15.372c-4.872-6.7-14.253-8.18-20.954-3.308-6.7 4.873-8.181 14.254-3.308 20.954l8.839 12.154c-13.564 10.095-24.719 23.427-32.191 39.118-22.306.942-42.829 8.881-59.439 21.666l-14.867-16.726c-5.503-6.192-14.985-6.749-21.176-1.246-6.192 5.504-6.75 14.985-1.246 21.177l16.3 18.338c-12.628 17.332-20.089 38.659-20.089 61.697 0 53.017 39.493 96.982 90.608 104.017 3.858 44.174 26.349 84.395 60.392 112.56v84.423c0 8.284 6.716 15 15 15h180c8.284 0 15-6.716 15-15v-84.423c34.024-28.149 56.533-68.367 60.393-112.559 51.114-7.035 90.607-51 90.607-104.017 0-23.038-7.461-44.365-20.089-61.697zm-101.211 155.035c-8.284 0-15 6.716-15 15 0 41.789-20.063 80.917-55.044 107.354-3.751 2.835-5.956 7.265-5.956 11.967v76.679h-150v-76.679c0-4.702-2.205-9.132-5.957-11.967-34.98-26.436-55.043-65.565-55.043-107.354 0-8.284-6.716-15-15-15-41.355 0-75-33.645-75-75 0-41.327 33.6-74.955 74.917-75 8.921.749 16.291-.029 19.604-9.51 10.816-30.958 40.139-50.489 71.48-50.489 18.235 0 35.976 6.942 49.955 19.548 5.708 5.147 14.383 5.147 20.091 0 13.977-12.607 31.718-19.549 49.953-19.549 31.407 0 60.685 19.593 71.48 50.489 2.212 6.332 8.35 10.421 15.055 10.026 2.072-.124 3.866-.458 4.548-.515 41.316.045 74.917 33.673 74.917 75 0 41.355-33.644 75-75 75z"/></g></svg>