<svg id="Layer_1" enable-background="new 0 0 512.024 512.024" height="512" viewBox="0 0 512.024 512.024" width="512" xmlns="http://www.w3.org/2000/svg"><path d="m232.754 78.863-94.966-71.923c-22.344-16.923-54.427-.967-54.427 27.054v133.903c0 8.915 7.248 16 16 16 6.394 0-2.461 4.314 132.13-78.66 9.538-5.88 10.251-19.566 1.263-26.374z" fill="#727272"/><path d="m374.236 6.94-94.966 71.923c-8.934 6.767-8.333 20.458 1.264 26.375 134.432 82.875 125.66 78.66 132.13 78.66 8.75 0 16-7.085 16-16v-133.904c-.001-28.031-32.092-43.97-54.428-27.054z" fill="#727272"/><path d="m83.361 98.025v69.872c0 12.494 13.741 20.189 24.396 13.62l123.733-76.279c9.539-5.88 10.252-19.567 1.264-26.375l-52.482-39.748c-36.875 11.611-70.088 31.66-96.911 58.91z" fill="#606060"/><path d="m428.663 98.025c-26.799-27.226-60.003-47.288-96.911-58.91l-52.482 39.748c-8.934 6.767-8.333 20.458 1.264 26.375l123.733 76.279c10.635 6.558 24.396-1.104 24.396-13.62z" fill="#606060"/><path d="m256.012 298.465c-88.418 0-160.353 71.934-160.353 160.353v37.207c0 8.836 7.164 16 16 16h288.705c8.836 0 16-7.164 16-16v-37.207c0-88.419-71.934-160.353-160.352-160.353z" fill="#727272"/><path d="m416.12 450.014c-4.586-84.34-74.643-151.549-160.108-151.549s-155.521 67.209-160.108 151.549c94.212 60.433 223.07 62.315 320.216 0z" fill="#999"/><path d="m406.032 402.199c-22.932-60.56-81.524-103.735-150.02-103.735s-127.088 43.175-150.02 103.735c119.393 92.822 180.48 92.951 300.04 0z" fill="#e0e0e0"/><path d="m387.732 114.729c-69.697-68.605-192.679-69.652-263.439 0-33.376 32.854-51.758 77.36-51.758 125.319 0 54.688 40.76 102.179 84.999 134.217 39.49 68.509 147.651 71.383 191.028 4.19 29.544-20.398 90.928-70.926 90.928-138.407-.001-47.959-18.382-92.465-51.758-125.319z" fill="#727272"/><path d="m386.943 333.303c-.811-34.184-22.635-64.204-54.842-75.695-26.814-9.567-48.786-28.813-61.867-54.192-5.946-11.535-22.492-11.546-28.443 0-12.909 25.045-34.548 44.17-60.928 53.852-32.636 11.978-54.178 43.686-53.605 78.891.005 6.215-.812 12.321 5.245 17.823 7.767 7.057 16.174 13.869 25.031 20.283 39.485 68.502 147.644 71.388 191.025 4.196 11.977-8.249 23.162-17.191 33.289-26.615 5.561-5.178 5.27-10.953 5.095-18.543z" fill="#f9f9f9"/><circle cx="182.837" cy="216.746" r="19.841"/><circle cx="329.187" cy="216.746" r="19.841"/><path d="m511.939 240.691c-.844-8.796-8.645-15.253-17.454-14.399l-55.192 5.293c-.843-18.533-4.457-36.464-10.629-53.313v-144.277c0-28.028-32.089-43.972-54.428-27.055l-78.941 59.787c-24.977-4.902-52.159-5.181-78.564 0l-78.944-59.787c-22.338-16.923-54.426-.968-54.426 27.055v144.277c-6.172 16.849-9.786 34.78-10.629 53.313l-55.192-5.293c-8.812-.854-16.61 5.604-17.454 14.399-.844 8.796 5.604 16.61 14.399 17.454l60.692 5.82c4.553 20.842 14.943 41.68 30.643 61.616l-68.497 31.011c-15.602 7.063-10.576 30.58 6.608 30.58 4.796 0-.084 1.593 84.691-36.787 1.688 1.596 3.403 3.185 5.162 4.762-23.765 27.974-38.125 64.173-38.125 103.669v37.207c0 8.837 7.163 16 16 16h288.705c8.837 0 16-7.163 16-16v-37.207c0-39.496-14.36-75.695-38.125-103.669 1.759-1.578 3.474-3.167 5.162-4.762l78.102 35.359c8.052 3.644 17.53.071 21.175-7.978 3.645-8.05.073-17.53-7.978-21.175l-68.497-31.011c15.699-19.937 26.089-40.774 30.643-61.616l60.692-5.82c8.797-.843 15.244-8.657 14.401-17.453zm-118.384-208.241c1.295-.978 3.108-.084 3.108 1.545v90.211c-17.397-19.902-38.985-35.443-63.614-45.931zm-278.194 1.545c0-1.302 1.116-1.972 1.992-1.972.858 0-3.262-2.888 61.622 46.251-24.612 10.481-46.204 26.015-63.614 45.931zm232.063 278.68c-8.837 0-16 7.163-16 16 0 36.771-34.586 66.687-77.099 66.687-42.512 0-77.098-29.915-77.098-66.687 0-7.853-5.66-14.37-13.121-15.728 5.488-11.691 15.3-21.059 27.781-25.64 25.573-9.386 47.679-25.666 64.121-46.9 16.703 21.586 39.235 38.025 65.338 47.339 12.314 4.394 22.218 13.37 28.007 24.567-.123.142-1.397.362-1.929.362zm36.94 167.349h-256.705v-21.207c0-31.723 11.573-60.789 30.713-83.212 40.536 67.547 146.927 69.348 190.083 2.908 1.61-1.106 3.212-2.228 4.804-3.366 19.374 22.484 31.105 51.732 31.105 83.671zm-2.963-174.528c-8.498-21.872-26.151-39.629-49.3-47.888-26.814-9.567-48.786-28.813-61.867-54.192-5.946-11.536-22.492-11.548-28.443 0-12.909 25.045-34.547 44.17-60.928 53.852-23.293 8.55-40.928 27.153-48.912 49.902-11.858-14.737-18.761-28.31-22.674-39.933 32.128 3.081 29.875 2.896 30.978 2.896 8.148 0 15.114-6.197 15.908-14.474.844-8.796-5.604-16.61-14.399-17.454l-37.123-3.56c1.31-37.239 16.135-71.551 42.1-97.111 57.477-56.578 160.462-57.172 218.543 0 25.965 25.56 40.791 59.872 42.1 97.111l-37.123 3.56c-8.796.844-15.243 8.658-14.399 17.454.794 8.277 7.76 14.474 15.908 14.474 1.093 0-1.171.186 30.978-2.897-3.766 11.182-10.298 24.169-21.347 38.26z"/><path d="m290.906 336.39-18.895-5.843v-18.965l9.064-13.11c6.203-8.972-.219-21.218-11.126-21.218h-27.877c-10.907 0-17.328 12.247-11.126 21.218l9.064 13.11v18.965l-18.895 5.843c-8.441 2.611-13.169 11.571-10.559 20.014 2.611 8.441 11.571 13.167 20.014 10.559l25.439-7.867c27.975 8.651 26.948 8.585 30.172 8.585 6.83 0 13.157-4.409 15.281-11.276 2.613-8.444-2.114-17.404-10.556-20.015z"/></svg>