<?xml version="1.0" encoding="iso-8859-1"?>
<!-- Generator: Adobe Illustrator 19.0.0, SVG Export Plug-In . SVG Version: 6.00 Build 0)  -->
<svg version="1.1" id="Capa_1" xmlns="http://www.w3.org/2000/svg" xmlns:xlink="http://www.w3.org/1999/xlink" x="0px" y="0px"
	 viewBox="0 0 512 512" style="enable-background:new 0 0 512 512;" xml:space="preserve">
<g>
	<g>
		<path d="M286,0H75C50.186,0,30,20.186,30,45v32c0,8.291,6.709,15,15,15h271c8.291,0,15-6.709,15-15V45C331,20.186,310.814,0,286,0
			z"/>
	</g>
</g>
<g>
	<g>
		<path d="M166,242H0v60h105c8.291,0,16,6.709,16,15c0,8.291-7.709,15-16,15H0v30h136c8.291,0,15,6.709,15,15
			c0,8.291-6.709,15-15,15H0v30h166c8.276,0,15-6.724,15-15V257C181,248.724,174.276,242,166,242z"/>
	</g>
</g>
<g>
	<g>
		<path d="M316,152h-15v-30H60v30H45c-24.814,0-45,20.186-45,45v15h166c24.814,0,45,20.186,45,45v150c0,24.814-20.186,45-45,45H0v15
			c0,24.814,20.186,45,45,45h211.383C246.865,499.426,241,483.948,241,467c0-41.353,33.647-75,75-75h45V197
			C361,172.186,340.814,152,316,152z"/>
	</g>
</g>
<g>
	<g>
		<path d="M467,422h-61v90h61c24.853,0,45-20.147,45-45C512,442.147,491.853,422,467,422z"/>
	</g>
</g>
<g>
	<g>
		<path d="M316,422c-24.853,0-45,20.147-45,45c0,24.853,20.147,45,45,45h60v-90H316z"/>
	</g>
</g>
<g>
</g>
<g>
</g>
<g>
</g>
<g>
</g>
<g>
</g>
<g>
</g>
<g>
</g>
<g>
</g>
<g>
</g>
<g>
</g>
<g>
</g>
<g>
</g>
<g>
</g>
<g>
</g>
<g>
</g>
</svg>
