<?xml version="1.0" encoding="iso-8859-1"?>
<!-- Generator: Adobe Illustrator 19.0.0, SVG Export Plug-In . SVG Version: 6.00 Build 0)  -->
<svg version="1.1" id="Capa_1" xmlns="http://www.w3.org/2000/svg" xmlns:xlink="http://www.w3.org/1999/xlink" x="0px" y="0px"
	 viewBox="0 0 512 512" style="enable-background:new 0 0 512 512;" xml:space="preserve">
<g>
	<g>
		<path d="M271,152.518V135c0-24.814-20.186-45-45-45H106c-24.814,0-45,20.186-45,45v17.518C26.809,159.487,0,189.784,0,226v241
			c0,24.814,21.186,45,46,45h106.749C133.217,492.92,121,466.392,121,437v-90c0-57.891,47.109-105,105-105h105v-16
			C331,189.784,305.191,159.487,271,152.518z"/>
	</g>
</g>
<g>
	<g>
		<path d="M241,347c-8.276,0-15,6.724-15,15s6.724,15,15,15s15-6.724,15-15S249.276,347,241,347z"/>
	</g>
</g>
<g>
	<g>
		<path d="M497,392c8.291,0,15-6.709,15-15v-30c0-41.353-33.647-75-75-75H226c-41.353,0-75,33.647-75,75v90
			c0,41.353,33.647,75,75,75h90c8.291,0,15-6.709,15-15c0-8.276,6.724-15,15-15s15,6.724,15,15c0,8.291,7.709,15,16,15h60
			c41.353,0,75-33.647,75-75c0-8.291-6.709-15-15-15c-8.276,0-15-6.724-15-15S488.724,392,497,392z M271,467
			c-8.284,0-15-6.716-15-15c0-8.286,6.716-15,15-15s15,6.714,15,15C286,460.284,279.284,467,271,467z M241,407
			c-24.814,0-45-20.186-45-45c0-24.814,20.186-45,45-45c24.814,0,45,20.186,45,45C286,386.814,265.814,407,241,407z M331,407
			c-8.284,0-15-6.716-15-15c0-8.286,6.716-15,15-15s15,6.714,15,15C346,400.284,339.284,407,331,407z M407,437
			c-16.538,0-30-13.462-30-30c0-16.538,13.462-30,30-30c16.538,0,30,13.462,30,30C437,423.538,423.538,437,407,437z M422,347
			c-8.284,0-15-6.716-15-15c0-8.286,6.716-15,15-15s15,6.714,15,15C437,340.284,430.284,347,422,347z"/>
	</g>
</g>
<g>
	<g>
		<path d="M256,0c-50.183,0-100.164,0-150,0c-8.291,0-15,6.709-15,15s6.709,15,15,15h15v30h90V30h45c24.814,0,45,20.186,45,45
			c0,8.291,6.709,15,15,15c8.291,0,15-6.709,15-15C331,33.647,297.353,0,256,0z"/>
	</g>
</g>
<g>
</g>
<g>
</g>
<g>
</g>
<g>
</g>
<g>
</g>
<g>
</g>
<g>
</g>
<g>
</g>
<g>
</g>
<g>
</g>
<g>
</g>
<g>
</g>
<g>
</g>
<g>
</g>
<g>
</g>
</svg>
