<svg id="Layer_1" enable-background="new 0 0 512.157 512.157" height="512" viewBox="0 0 512.157 512.157" width="512" xmlns="http://www.w3.org/2000/svg"><path d="m195.988 103.015-71.32 90.9c-5.936 7.551-17.118 8.212-23.9 1.43-13.71-13.723-19.303-60.64-21.17-80.02-3.748-39.148-6.892-115.29 32.48-115.29 18.01 0 37.31 13.07 57.35 38.84 14.26 18.33 25.63 38.96 29.1 49.07 1.76 5.13.81 10.8-2.54 15.07z" fill="#999"/><path d="m149.488 121.295-49.09 73.66c-12.71-13.42-18.48-55.55-20.8-79.63-2.641-27.583-5.669-84.064 11.99-105.27 10.18 7.61 20.66 19.53 31.34 35.71 14.26 21.59 25.63 45.88 29.1 57.78 1.76 6.04.81 12.72-2.54 17.75z" fill="#ffa4b8"/><path d="m432.558 115.325c-1.867 19.38-7.46 66.297-21.17 80.02-6.791 6.791-17.972 6.111-23.9-1.43l-71.32-90.9c-3.35-4.27-4.3-9.94-2.54-15.07 6.152-17.925 45.827-87.91 86.45-87.91 39.37 0 36.229 76.134 32.48 115.29z" fill="#999"/><path d="m432.558 115.325c-2.32 24.08-8.09 66.21-20.8 79.63l-49.09-73.66c-3.35-5.03-4.3-11.71-2.54-17.75 5.939-20.365 32.798-72.827 60.44-93.49 17.659 21.205 14.631 77.687 11.99 105.27z" fill="#ffa4b8"/><path d="m457.298 335.985c4 6.99 6.78 14.91 6.78 24.05 0 11.853-12.495 19.642-23.16 14.31-1.56-.78-5.79-.43-12.57 3.12-28.51 14.94-65.13 65.7-68.43 88.83-2.384 16.685-25.702 18.731-31.02 2.8-1.2-3.59-2.38-6.75-3.51-9.51-32.835 37.087-48.643 52.45-61.31 52.45-20.711 0-23.124 2.417-41.11-14.27-11.398-10.566-25.868-26.51-36.2-38.18-1.13 2.76-2.31 5.92-3.51 9.51-5.327 15.959-28.64 13.86-31.02-2.8-3.3-23.13-39.92-73.89-68.43-88.83-6.78-3.55-11.01-3.9-12.57-3.12-14.149 7.074-33.849-7.833-16.38-38.36-11.838-.895-18.618-14.004-12.5-24.18 23.781-39.653 30.92-38.542 54.2-131.65 18.509-74.052 70.134-116.12 159.52-116.12 89.338 0 141 42.024 159.52 116.12 23.267 93.054 30.405 91.972 54.2 131.65 6.118 10.175-.66 23.285-12.5 24.18z" fill="#999"/><path d="m400.078 288.035c-8 0-40-8-24 16s24 32 24 32 0 0-24 0c-17.61 0-39.52 81.81-49.95 125.39-.25-.63-.5-1.25-.74-1.84-33.104 37.391-53.123 59.687-69.31 50.29-11.568 6.715-23.351-3.055-33.11-12.11-11.398-10.566-25.868-26.51-36.2-38.18-.24.59-.49 1.21-.74 1.84-10.43-43.58-32.34-125.39-49.95-125.39-24 0-24 0-24 0s8-8 24-32-16-16-24-16 48-44.92 48-88c0-40 16-72 56-56 31.51 12.61 40 56 40 56s8.49-43.39 40-56c40-16 56 16 56 56 0 43.08 56 88 48 88z" fill="#f2f2f2"/><path d="m256.078 344.035c-45.005 0-66.591-63.078-28.01-76.87 8.12-2.89 17.49-3.13 28.01-3.13s19.89.24 28.01 3.13c38.587 13.794 17.007 76.87-28.01 76.87z" fill="#a07765"/><circle cx="184.078" cy="200.035" r="16"/><path d="m469.798 311.803c-23.225-38.707-30.565-38.578-52.55-125.112 14.934-29.938 24.847-129.205 9.727-165.706-18.241-44.04-70.577-14.98-106.441 51.944-37.22-11.985-91.68-11.989-128.914 0-36.081-67.332-88.3-95.737-106.439-51.943-15.015 36.249-5.293 135.596 9.727 165.706-21.976 86.499-29.31 86.38-52.55 125.112-6.109 10.181.637 23.281 12.5 24.186-6.963 12.179-11.346 30.146.808 37.657 4.717 2.916 10.607 3.181 15.567.701 1.564-.781 5.793-.434 12.57 3.117 28.515 14.941 65.131 65.704 68.436 88.835 2.379 16.654 25.7 18.753 31.018 2.797 1.196-3.587 2.38-6.745 3.516-9.509 10.238 11.591 24.812 27.624 36.197 38.181 9.648 8.947 21.455 18.861 33.109 12.11 11.612 6.727 23.465-3.167 33.109-12.11 11.383-10.556 25.955-26.586 36.197-38.181 1.135 2.764 2.319 5.921 3.516 9.509 5.317 15.952 28.64 13.853 31.018-2.797 3.304-23.131 39.92-73.894 68.436-88.835 6.777-3.55 11.006-3.898 12.57-3.117 14.128 7.062 33.843-7.803 16.375-38.357 11.888-.91 18.596-14.026 12.498-24.188zm-72.634-279.245c9.314 20.614 4.736 76.381.721 102.469-11.914-20.82-27.959-37.214-48.014-49.019 8.931-16.116 30.687-48.159 47.293-53.45zm-282.171 0c16.59 5.286 38.195 37.033 47.293 53.449-20.055 11.806-36.1 28.2-48.014 49.019-3.749-24.356-8.726-81.561.721-102.468zm227.642 392.008c-3.707-4.946-7.912-8.821-15.234-8.517-4.475.189-8.665 2.246-11.553 5.67-20.79 24.648-47.535 53.437-55.786 58.824-1.415.366-2.749.93-3.983 1.645-1.235-.715-2.568-1.279-3.983-1.645-8.251-5.387-34.996-34.176-55.786-58.824-2.888-3.424-7.079-5.48-11.553-5.67-7.331-.307-11.57 3.629-15.234 8.517-16.52-29.072-50.041-69.791-81.656-80.046 9.969-12.19 24.212-23.727 24.212-40.485 0-6.471-3.898-12.306-9.877-14.782-16.528-6.845-6.135 24.797 25.399-101.337 16.443-65.77 60.093-91.88 128.478-91.88 68.49 0 112.124 26.467 128.478 91.88 31.059 124.233 41.531 94.659 25.399 101.337-5.979 2.477-9.877 8.311-9.877 14.782 0 16.726 14.132 28.159 24.212 40.485-31.653 10.272-65.118 50.942-81.656 80.046z"/><circle cx="328.078" cy="200.035" r="16"/><path d="m348.474 296.651c-8.496-2.428-17.352 2.493-19.78 10.989-.034.117-3.415 11.854-9.297 23.963-9.066 18.663-15.319 20.427-15.318 20.433-5.591 0-14.306-6.976-22.269-15.992 26.615-17.68 31.869-58.313 2.275-68.876-8.115-2.896-17.485-3.132-28.006-3.132s-19.892.236-28.006 3.132c-29.615 10.571-24.351 51.194 2.28 68.879-4.766 5.43-15.022 15.992-22.215 15.992-.077-.015-6.242-1.774-15.208-20.089-5.927-12.107-9.436-24.204-9.47-24.324-2.433-8.488-11.283-13.403-19.776-10.975-8.497 2.427-13.417 11.283-10.989 19.78 6.818 23.9 23.194 61.094 48.247 66.798 9.11 8.006 31.089 24.806 55.137 24.806s46.028-16.8 55.137-24.806c25.259-5.751 41.588-43.455 48.247-66.798 2.427-8.497-2.492-17.353-10.989-19.78zm-108.721 74.644c5.943-4.707 11.362-10.235 16.325-16.13 4.973 5.907 10.392 11.431 16.325 16.13-12.275 6.272-20.361 6.28-32.65 0zm32.288-74.383c-.582 6.895-7.843 15.123-15.962 15.123s-15.38-8.228-15.962-15.123c5.454-1.202 26.467-1.203 31.924 0z"/></svg>