<svg id="Layer_1" enable-background="new 0 0 512.049 512.049" height="512" viewBox="0 0 512.049 512.049" width="512" xmlns="http://www.w3.org/2000/svg"><path d="m381.984 451.539c-9.52 5.35-20.4 9-32.59 10.91-14.98 24.14-42.78 49.6-93.4 49.6s-78.42-25.46-93.4-49.6c-12.19-1.91-23.07-5.561-32.59-10.91-82.249 12.055-132.067-65.955-104.72-129.79 25.448-59.347 6.763-92.42 31.53-166.76 14.33-43.01 33.22-57.971 49.22-61.73 19.175-31.405 57.049-45.872 93.16-51.13-5.62-14.04-6.15-23.93-1.78-31.64 3.76-6.64 10.53-10.44 18.58-10.44 18.56 0 32.64 13.5 41.91 26.55 7.51-6.09 17.45-10.55 30.09-10.55 14.753 0 24.699 10.795 22.86 25.81 36.841 5.016 75.632 19.521 95.09 51.39 16.01 3.75 34.89 18.72 49.23 61.74 24.74 74.261 6.103 107.462 31.53 166.76 27.181 63.448-21.961 141.92-104.72 129.79z" fill="#f2f2f2"/><path d="m408.334 427.919c-17.29 23.97-44.31 36.13-80.34 36.13-37.21 0-59.54-9.83-72-18.49-12.46 8.66-34.79 18.49-72 18.49-69.392 0-102.903-45.921-100.25-117.5 1.22-32.87 9.55-60.99 13.07-71.56 14.092-42.255-17.116-91.7-.34-158.82 11.402-45.638 55.81-67.21 102.72-74.04-5.62-14.04-6.15-23.93-1.78-31.64 3.76-6.64 10.53-10.44 18.58-10.44 18.56 0 32.64 13.5 41.91 26.55 15.086-12.233 41.511-16.192 50.58.8 2.45 4.58 2.97 9.56 2.37 14.46 47.147 6.42 93.037 27.789 104.66 74.31 16.796 67.201-14.459 116.484-.34 158.82 15.547 46.683 21.981 112.937-6.84 152.93z" fill="#ece2e2"/><path d="m428.284 348.149c-18.059 37.369-53.954 51.9-95.45 51.9-39.71 0-63.54-9.83-76.84-18.49-13.3 8.66-37.13 18.49-76.84 18.49-41.499 0-77.392-14.533-95.45-51.9 0-17.613 4.719-47.964 13.11-73.159 14.092-42.255-17.116-91.7-.34-158.82 11.402-45.638 55.81-67.21 102.72-74.04-5.62-14.04-6.15-23.93-1.78-31.64 3.76-6.64 10.53-10.44 18.58-10.44 18.56 0 32.64 13.5 41.91 26.55 7.51-6.09 17.45-10.55 30.09-10.55 14.753 0 24.699 10.795 22.86 25.81 47.147 6.42 93.037 27.789 104.66 74.31 16.796 67.201-14.459 116.484-.34 158.82 8.516 25.568 13.11 55.921 13.11 73.159z" fill="#f9f9f9"/><path d="m223.994 144.049c24 0 48 96-8 120-37.494 16.069-80-8-80-40 0-16.991 33.224-7.773 56-24 21.44-15.275 20.363-56 32-56z" fill="#f2f2f2"/><path d="m287.994 144.049c-24 0-48 96 8 120 37.494 16.069 80-8 80-40 0-16.991-33.224-7.773-56-24-21.44-15.275-20.363-56-32-56z" fill="#f2f2f2"/><path d="m486.7 321.745c-25.418-59.302-6.78-92.517-31.527-166.755-14.335-43.017-33.222-57.99-49.225-61.743-19.423-31.807-58.198-46.378-95.091-51.385.601-4.902.08-9.884-2.369-14.459-9.124-17.048-35.558-12.976-50.584-.804-21.082-29.662-50.515-33.73-60.49-16.112-4.368 7.714-3.844 17.599 1.782 31.646-36.177 5.241-74.033 19.784-93.165 51.126-15.997 3.763-34.885 18.723-49.217 61.731-24.579 73.734-6.263 107.812-31.528 166.757-27.341 63.807 22.512 141.915 104.714 129.792 9.528 5.353 20.406 8.995 32.59 10.911 14.981 24.138 42.786 49.599 93.404 49.599s78.423-25.461 93.404-49.599c12.185-1.916 23.063-5.559 32.591-10.912 81.119 11.964 132.49-64.968 104.711-129.793zm-262.706-249.696c7.794 0 14.421-5.613 15.759-13.233 1.637 3.524 3.228 9.417 10.638 12.2 6.462 2.417 13.149.361 17.256-4.023 2.932-3.113 3.155-5.5 4.583-8.262 1.306 7.658 7.94 13.294 15.738 13.318.836.003 83.748.857 96.503 51.881 15.003 60.012-17.314 108.208.344 161.179 6.427 19.282 10.707 42.695 11.447 62.631 1.918 51.658-16.173 84.31-68.268 84.31-33.716 0-49.915-9.579-56-14.486v-21.172c13.935-6.467 24-20.378 24-32.342 0-37.27-80-37.396-80 0 0 11.964 10.065 25.875 24 32.342v21.172c-6.085 4.907-22.284 14.486-56 14.486-51.65 0-70.208-32.066-68.268-84.31.74-19.936 5.02-43.349 11.447-62.631 17.71-53.127-14.709-100.966.344-161.179 12.755-51.024 95.667-51.878 96.477-51.881zm-19.443 390.907c25.178-2.791 41.475-10.463 51.443-17.394 9.968 6.931 26.265 14.603 51.443 17.394-26.91 22.952-75.967 22.959-102.886 0zm-149.851-128.603c29.754-69.419 7.96-111.016 36.745-180.769-1.28 49.029 16.747 87.275 5.37 121.405-14.13 42.391-21.25 103.667 1.269 144.105-39.127-8.684-57.909-50.848-43.384-84.741zm359.204 84.743c22.348-40.13 15.599-101.116 1.269-144.106-11.385-34.154 6.651-72.304 5.37-121.4 28.989 70.199 6.839 110.992 36.744 180.763 14.44 33.692-4.037 76.01-43.383 84.743z"/><path d="m183.995 228.027c0 11.151 9.026 20.021 19.999 20.021 20.101 0 27.676-26.567 10.356-37.086 2.659-2.479 4.811-5.283 6.393-8.357 15.13-7.466 19.251-28.968 19.251-45.695 0-8.823-7.143-15.964-15.966-15.982-8.915 0-15.997 7.196-16.034 15.949-.024 5.652-1.04 12.441-2.294 16.198-7.488 1.087-13.239 7.29-13.679 14.91-2.205 1.475-7.97 2.426-10.536 1.896-10.401-3.804-21.491 3.896-21.491 15.028 0 .841-.131 1.482-.309 1.965-6.074-3.332-13.858-2.426-19.004 2.722-6.249 6.248-6.249 16.379 0 22.627 12.323 12.325 32.196 9.507 43.314-4.196z"/><path d="m291.246 202.606c1.581 3.074 3.734 5.878 6.392 8.357-17.318 10.518-9.748 37.086 10.356 37.086 10.997 0 19.999-8.895 19.999-20.021 11.046 13.61 30.918 16.594 43.315 4.195 6.249-6.248 6.249-16.379 0-22.627-5.147-5.146-12.929-6.053-19.004-2.722-.178-.482-.309-1.124-.309-1.965 0-11.098-11.058-18.846-21.491-15.028-2.564.528-8.332-.422-10.536-1.896-.44-7.613-6.184-13.823-13.679-14.91-1.254-3.756-2.27-10.542-2.294-16.192-.015-8.823-7.173-15.973-16-15.973-8.836 0-16 7.163-16 16-.001 16.777 4.122 38.235 19.251 45.696z"/></svg>