<svg id="Layer_1" enable-background="new 0 0 512 512" height="512" viewBox="0 0 512 512" width="512" xmlns="http://www.w3.org/2000/svg"><path d="m495.52 311.721c9.693 38.688-29.588 58.887-66.46 26.26-.93 15.524-1.045 30.252-3.83 45.44 8.378 43.758-12.217 71.06-46.97 76.02-11.016 1.571-22.391 1.517-32.96-1.51-15.04-2.504-18.416-6.33-33.3-6.33-19.834 0-35.077 16-56 16-20.912 0-36.168-16-56-16-14.929 0-18.146 3.808-33.3 6.33-10.669 3.051-22.06 3.064-32.96 1.51-34.795-4.966-55.336-32.322-46.97-76.02-2.784-15.182-2.894-29.824-3.83-45.44-36.929 32.678-76.135 12.357-66.46-26.26 6.57-26.314-16.48-82.931-16.48-116.12 0-20.79 8.36-49.72 48.01-69.89 8.841-11.174 13.54-63.995 52.11-73.63 23.19-5.8 42.54 3.39 55.56 13.22 20.42-12.71 43.97-18.3 63.54-20.61 13.33-1.57 26.72 2.62 36.78 11.48 10.06-8.87 23.46-13.05 36.78-11.48 19.57 2.31 43.12 7.9 63.54 20.61 13.02-9.84 32.37-19.02 55.56-13.22 38.507 9.619 43.311 62.509 52.11 73.63 39.65 20.17 48.01 49.1 48.01 69.89 0 33.716-23.123 89.513-16.48 116.12z" fill="#f2a661"/><path d="m438.86 289.541c-13.711 34.277-7.805 62.293-13.63 93.99 7.54 38.819-8.033 70.353-46.97 75.91-13.944 2-24.594 1.628-47.18-4.9-20.551-5.936-30.071-2.391-46.22 4.86-24.393 10.96-33.235 11.001-57.72 0-16.498-7.408-25.893-10.731-46.22-4.86-22.559 6.52-33.206 6.904-47.19 4.9-39.112-5.585-54.456-37.318-46.96-75.91-5.84-31.778.105-59.651-13.63-93.99-20.353-50.894 21.912-142.514 48.97-189.88 22.04-38.57 64.97-51.18 97.11-54.97 13.32-1.58 26.72 2.61 36.78 11.48 10.06-8.87 23.46-13.06 36.78-11.48 32.14 3.79 75.07 16.4 97.11 54.97 27.059 47.367 69.322 138.987 48.97 189.88z" fill="#ffbd7b"/><path d="m183.352 263.981s-24-32-56-24-16-48 32-64 40 0 32 16 24 16 16 40c-3.577 10.733-40 48-24 32z" fill="#999"/><path d="m328.648 263.981s24-32 56-24 16-48-32-64-40 0-32 16-24 16-16 40c3.577 10.733 40 48 24 32z" fill="#999"/><path d="m364.18 445.941c-1.92 8.16-9.83 13.46-18.1 12.13-6.28-1.01-10.91-2.35-15-3.53-20.551-5.936-30.071-2.391-46.22 4.86-24.393 10.96-33.235 11.001-57.72 0-16.498-7.408-25.893-10.731-46.22-4.86-4.09 1.18-8.72 2.52-15 3.53-8.28 1.33-16.18-3.97-18.1-12.13-1.93-8.16 2.78-16.43 10.78-18.94 19.818-6.214 22.286-36.918 35.09-62.56 19.07-38.14 56.83-47.96 58.43-48.36 2.55-.64 5.21-.64 7.76 0 1.6.4 39.36 10.22 58.43 48.36 12.745 25.524 15.288 56.351 35.09 62.56 8 2.51 12.71 10.78 10.78 18.94z" fill="#818182"/><path d="m423.77 423.771c-8.605 25.828-32.024 36.69-59.25 36.69-18.3 0-33.16-5.93-44.3-17.7-28.856-30.496-17.049-75.645-64.25-94.3-46.705 18.265-35.621 64.108-64.19 94.3-13.81 14.6-33.34 20.21-58.04 16.68-22.77-3.25-38.93-15.92-45.51-35.67-10.23-30.69 5.28-72.31 20.46-87.48 17.125-17.126 35.28-24.409 61-75.85 28.42-56.84 60.52-56.84 86.31-56.84s57.89 0 86.31 56.84c25.716 51.432 43.834 58.684 61 75.85 15.18 15.17 30.69 56.79 20.46 87.48z" fill="#999"/><path d="m312 243.601c0 22.11-25.09 56-56 56s-56-33.89-56-56c0-25.898 29.044-40 56-40 27.628 0 56 14.633 56 40z" fill="#818182"/><circle cx="160" cy="203.6" r="16"/><path d="m512 195.6c0-20.788-8.36-49.722-48.01-69.89-8.805-11.092-13.561-63.995-52.108-73.632-23.19-5.799-42.544 3.387-55.56 13.222-20.417-12.713-43.976-18.304-63.539-20.61-13.326-1.574-26.722 2.615-36.783 11.484-10.061-8.868-23.454-13.054-36.783-11.484-19.563 2.306-43.122 7.896-63.539 20.61-13.016-9.834-32.37-19.021-55.558-13.224-38.513 9.629-43.328 62.57-52.11 73.633-39.65 20.169-48.01 49.103-48.01 69.891 0 33.916 23.133 89.5 16.479 116.116-9.665 38.623 29.587 58.888 66.458 26.261.932 14.992 1.004 29.985 3.832 45.439-2.601 13.583-2.7 27.874 1.46 40.354 12.226 36.679 55.057 40.83 78.47 34.165 5.89-.985 10.304-2.259 14.234-3.393 20.18-5.825 29.632-2.589 46.206 4.859 24.43 10.98 33.295 10.979 57.724 0 16.913-7.601 26.072-10.671 46.206-4.859 3.928 1.134 8.341 2.407 14.228 3.392 5.908 1.683 12.32 2.528 19.222 2.528 47.645 0 69.322-32.104 60.715-77.046 2.827-15.452 2.905-30.526 3.832-45.438 36.729 32.503 76.157 12.498 66.459-26.259-6.611-26.431 16.475-82.598 16.475-116.119zm-289.037-119.13c9.081-1.068 17.037 5.982 17.037 15.13 0 8.837 7.164 16 16 16s16-7.163 16-16c0-9.132 7.935-16.197 17.037-15.13 24.821 2.926 57.646 12.079 73.071 39.068 38.75 67.812 58.093 134.479 47.037 162.119-7.026 17.565-10.213 34.628-11.65 53.156-15.438-13.798-32.356-24.715-55.183-70.369-28.423-56.844-60.521-56.844-86.312-56.844s-57.889 0-86.311 56.845c-22.604 45.207-39.116 56.009-55.183 70.369-1.437-18.523-4.603-35.539-11.65-53.156-11.056-27.641 8.286-94.307 47.036-162.118 15.424-26.991 48.25-36.144 73.071-39.07zm57.025 167.322c-.455 5.787-11.896 23.808-23.988 23.808-12.105 0-23.557-18.06-23.989-23.806 1.088-2.386 9.661-8.194 23.989-8.194 14.323 0 22.895 5.804 23.988 8.192zm-232.968 78.496c.065-.711.21-1.638.503-2.808 5.658-22.631-1.127-51.452-7.688-79.325-10.084-42.834-16.81-66.179 23.321-86.245 12.231-6.115 17.269-20.487 22.602-35.702 5.322-15.184 11.354-32.394 22.125-35.087 8.403-2.103 16.311.282 22.841 3.978-3.124 3.851-6.018 8.021-8.614 12.563-27.073 47.379-69.319 138.994-48.963 189.881.94 2.35 1.772 4.66 2.537 6.946-10.955 18.796-23.447 24.968-28.664 25.799zm71.566 91.364c-6.067-18.203 5.798-47.81 12.728-54.738 2.962-2.962 6.193-5.741 9.936-8.959 42.341-36.413 50.794-66.253 63.673-87.184 6.625 13.973 19.412 27.838 35.078 33.792v23.983c-65.223 29.638-49.609 94.471-80.18 106.077-4.084.597-9.076.978-15.82.978-3.68 0-1.981.696-5.737.161-13.936-1.992-17.837-8.587-19.678-14.11zm153.156 16.562c-15.736 7.073-15.745 7.075-31.484 0-9.143-4.109-20.232-9.087-33.901-10.322 12.382-27.825 13.65-57.395 49.618-71.429 7.527 2.976 24.282 11.425 33.715 30.292 5.788 11.574 9.71 27.104 15.954 41.137-13.67 1.235-24.759 6.213-33.902 10.322zm121.672-16.562c-3.331 9.996-11.238 13.126-21.78 14.378-4.2-.977-9.007.121-19.476-1.411-30.213-11.505-15.095-76.508-80.158-106.074v-23.983c15.665-5.953 28.453-19.818 35.078-33.792 2.166 3.521 4.365 7.492 6.611 11.985 28.863 57.726 51.743 68.904 66.997 84.158 6.929 6.929 18.795 36.536 12.728 54.739zm78.752-173.496c-6.561 27.873-13.346 56.694-7.688 79.328.292 1.168.438 2.095.502 2.805-5.218-.832-17.71-7.003-28.662-25.8.765-2.287 1.597-4.597 2.537-6.946 20.357-50.89-21.895-142.51-48.964-189.882-2.596-4.542-5.49-8.711-8.613-12.561 6.529-3.694 14.437-6.078 22.842-3.978 10.769 2.692 16.801 19.902 22.123 35.086 5.333 15.215 10.371 29.587 22.602 35.702 40.043 20.023 33.437 43.275 23.321 86.246z"/><circle cx="352" cy="203.6" r="16"/><path d="m256 195.6c8.836 0 16-7.163 16-16v-40c0-8.837-7.164-16-16-16s-16 7.163-16 16v40c0 8.837 7.164 16 16 16z"/></svg>