<svg id="Layer_1" enable-background="new 0 0 512.047 512.047" height="512" viewBox="0 0 512.047 512.047" width="512" xmlns="http://www.w3.org/2000/svg"><path d="m256.024 512c-22.218 0-43.765-15.717-64.051-46.722-.903 11.273-12.953 18.109-23.104 13.033-41.129-20.565-73.981-94.714-89.159-137.815-.445.832-.904 1.718-1.375 2.659-5.638 11.277-21.539 11.892-28.03 1.077-16.482-27.469-14.056-72.434-9.855-104.237-9.606.251-17.306-7.986-16.346-17.587.864-8.643 9.192-85.437 35.121-120.008 17.15-22.867 37.984-35.031 51.357-40.977-.447-4.005-.915-8.625-1.296-13.373-2.209-27.513.147-35.928 5.269-41.833 3.426-3.951 8.335-6.217 13.469-6.217 18.494 0 32.494 30.569 66.058 17.145 48.402-19.36 70.856 1.141 73.256 3.542 6.249 6.248 6.249 16.379 0 22.627-6.063 6.062-15.776 6.242-22.056.545-1.019-.705-12.325-7.8-39.315 2.997-28.042 11.217-50.21 3.632-65.025-4.635.562 8.264 1.579 18.111 2.922 27.517 1.171 8.192-3.905 15.878-11.958 17.785-.174.046-27.056 7.378-47.081 34.078-10.104 13.473-17.479 39.152-22.31 62.471 10.934-1.032 19.718 9.067 17.032 19.809-6.415 25.743-12.55 67.833-9.15 98.003 15.994-11.268 32.468-5.192 33.577 8.838 2.889 14.792 28.92 86.252 59.355 121.972 2.417-12.354 5.309-21.131 5.517-21.753 4.699-14.097 24.512-14.691 30.034-.883 11.328 28.2 37.329 69.942 57.145 69.942 8.837 0 16 7.164 16 16s-7.164 16-16.001 16zm-152-200.021v.021c0-.007 0-.014 0-.021zm140.743-268.608c.003.002.005.004.008.007-.003-.003-.006-.005-.008-.007zm-.057-.058c.018.019.035.036.053.053-.018-.017-.035-.035-.053-.053z"/><circle cx="192.024" cy="152" r="16"/><path d="m228.867 258.163c-21.694.002-42.39-11.85-45.683-34.9-1.461-10.221 1.127-18.722 1.66-20.322l30.357 10.119c.397-1.237-.967 2.579-.252 6.195.279 1.41.746 3.771 6.133 5.566 11.834 3.943 17.724-1.651 19.13-3.291 1.188-7.664 7.813-13.531 15.811-13.531 8.837 0 16 7.164 16 16 .001 16.219-18.352 34.164-43.156 34.164zm11.157-34.177v.014c0-.005 0-.009 0-.014z"/><path d="m280.024 192c0 8.837-10.745 24-24 24s-24-15.163-24-24 10.745-16 24-16 24 7.163 24 16z"/><path d="m256.024 296c-41.443 0-56.359-28.978-56.5-56.098-.046-8.836 7.081-16.037 15.917-16.083 9.109 0 16.038 7.302 16.083 15.917.11 21.38 12.447 24.263 24.5 24.263 8.837 0 16 7.164 16 16s-7.163 16.001-16 16.001z"/><path d="m256.024 512c-8.837 0-16-7.164-16-16s7.163-16 16-16c19.815 0 45.816-41.742 57.148-69.953 5.551-13.818 25.339-13.18 30.03.894.208.622 3.1 9.398 5.517 21.753 10.832-12.713 22.218-31.21 33.363-54.425 15.258-31.781 24.888-61.892 25.992-67.547 1.131-14.302 17.895-19.899 33.592-8.828 3.419-30.188-2.731-72.279-9.165-98.013-2.701-10.804 6.163-20.845 17.032-19.809-4.83-23.319-12.205-48.999-22.31-62.471-20.025-26.7-46.907-34.031-47.177-34.102-8.052-1.906-13.031-9.567-11.863-17.759 1.342-9.408 2.358-19.255 2.92-27.518-14.816 8.267-36.982 15.849-65.022 4.634-26.988-10.795-38.297-3.703-39.315-2.997-6.279 5.697-15.995 5.517-22.056-.545-6.249-6.248-6.249-16.379 0-22.627 2.4-2.402 24.854-22.903 73.256-3.542 33.731 13.49 47.415-17.145 66.058-17.145 5.134 0 10.043 2.266 13.47 6.217 5.121 5.904 7.478 14.32 5.269 41.833-.381 4.749-.849 9.368-1.296 13.373 13.373 5.946 34.207 18.11 51.357 40.977 25.929 34.571 34.257 111.365 35.121 120.008.97 9.705-6.873 17.86-16.346 17.587 4.199 31.797 6.624 76.772-9.855 104.237-6.471 10.787-22.382 10.221-28.03-1.077-.471-.941-.93-1.827-1.375-2.659-15.197 43.152-47.998 117.234-89.159 137.815-10.134 5.066-22.2-1.739-23.104-13.033-20.288 31.005-41.834 46.722-64.052 46.722zm152-200.021v.021c0-.007 0-.014 0-.021zm-140.743-268.608c-.002.002-.005.005-.008.007.003-.003.005-.005.008-.007zm.056-.058c-.018.018-.035.036-.053.053.018-.016.036-.034.053-.053z"/><circle cx="320.024" cy="152" r="16"/><path d="m283.18 258.163c-24.817.001-43.156-17.945-43.156-34.163 0-8.836 7.163-16 16-16 7.997 0 14.623 5.867 15.811 13.531 1.406 1.64 7.297 7.234 19.13 3.291 5.619-1.873 5.98-4.407 6.221-6.084.401-2.812-.332-5.653-.34-5.678-2.795-8.383 1.736-17.444 10.119-20.238 8.379-2.796 17.444 1.736 20.238 10.119.533 1.6 3.121 10.101 1.66 20.322-3.279 22.953-23.946 34.9-45.683 34.9zm-11.156-34.177v.014c0-.005 0-.009 0-.014z"/><path d="m256.024 296c-8.837 0-16-7.164-16-16s7.163-16 16-16c12.053 0 24.39-2.883 24.5-24.263.046-8.808 7.201-15.917 15.998-15.917 8.857 0 16.048 7.2 16.002 16.083-.141 27.119-15.057 56.097-56.5 56.097z"/><path d="m471.604 239.99c4.159 31.799 6.654 76.711-9.86 104.24-6.472 10.808-22.393 10.204-28.03-1.07-.47-.95-.93-1.83-1.38-2.66-15.134 42.946-47.931 117.2-89.15 137.81-10.161 5.081-22.195-1.759-23.11-13.03-40.778 62.302-87.251 62.411-128.1 0-.916 11.28-12.955 18.107-23.11 13.03-41.227-20.613-74.065-95.002-89.15-137.81-.45.83-.91 1.71-1.38 2.66-5.623 11.246-21.515 11.914-28.03 1.07-16.514-27.527-14.019-72.444-9.86-104.24-9.563.272-17.298-7.96-16.34-17.58.86-8.64 9.19-85.44 35.12-120.01 17.15-22.87 37.98-35.03 51.36-40.98-.45-4-.92-8.62-1.3-13.37-2.21-27.51.15-35.93 5.27-41.83 3.43-3.95 8.34-6.22 13.47-6.22 18.57 0 32.47 30.576 66.06 17.14 30.39-12.16 50.55-8.59 61.94-3.66 11.38-4.94 31.54-8.5 61.94 3.66 33.729 13.492 47.395-17.14 66.06-17.14 5.13 0 10.04 2.27 13.47 6.22 5.12 5.9 7.48 14.32 5.27 41.83-.38 4.75-.85 9.37-1.3 13.37 13.38 5.95 34.21 18.11 51.36 40.98 25.93 34.57 34.26 111.37 35.12 120.01.965 9.694-6.887 17.886-16.34 17.58z" fill="#ffaa64"/><path d="m384.024 184s-24-64-56-80-72 24-72 24-40-40-72-24-56 80-56 80l40 8s-8 32 0 56 8-32 24-32 24 80 64 72c40 8 48-72 64-72s16 56 24 32 0-56 0-56z" fill="#f2a661"/><ellipse cx="256.024" cy="224" fill="#ffbd7b" rx="64" ry="48"/><path d="m396.824 314.67c-5.87-11.74-11.73-17.6-17.6-17.6 0 5.86-29.33 93.86-64.53 111.46 0-17.6-5.87-35.2-5.87-35.2s-23.47 58.67-52.8 58.67-52.8-58.67-52.8-58.67-5.87 17.6-5.87 35.2c-35.2-17.6-64.53-105.6-64.53-111.46-5.87 0-11.73 5.86-17.6 17.6-17.42-29.03-5.43-121.75-2.31-121.75 0 5.87 34.07 93.87 74.96 111.47 0-17.6 6.82-35.2 6.82-35.2s27.26 58.66 61.33 58.66 61.33-58.66 61.33-58.66 6.82 17.6 6.82 35.2c40.89-17.6 74.96-105.6 74.96-111.47 3.12 0 15.11 92.72-2.31 121.75z" fill="#ffbd7b"/><path d="m306.964 192.821c-8.383 2.794-12.914 11.855-10.119 20.238-.565-1.761 2.041 5.689-1.117 9.073-3.852 4.118-17.543 6.808-23.894-.601-.524-3.379-2.134-6.566-4.749-9.074 7.686-5.02 12.938-14.281 12.938-20.457 0-8.836-10.745-16-24-16s-24 7.164-24 16c0 6.176 5.252 15.437 12.938 20.457-2.614 2.508-4.225 5.694-4.749 9.074-6.408 7.476-20.144 4.611-23.894.601-3.128-3.351-.58-10.744-1.117-9.073 2.795-8.383-1.736-17.444-10.119-20.238-8.379-2.796-17.444 1.736-20.238 10.119-5.377 16.135-1.257 36.448 15.454 47.198 3.527 23.7 19.482 45.862 55.725 45.862s52.198-22.162 55.725-45.862c16.767-10.786 20.787-31.193 15.454-47.198-2.793-8.383-11.859-12.915-20.238-10.119zm-70.203 64.727c7.173-1.126 13.714-3.793 19.263-7.579 5.549 3.786 12.09 6.453 19.263 7.579-4.735 5.415-12.049 6.452-19.263 6.452s-14.528-1.038-19.263-6.452z"/><circle cx="320.024" cy="152" r="16"/><path d="m487.945 222.408c-.864-8.643-9.192-85.437-35.121-120.008-17.15-22.867-37.984-35.031-51.357-40.977.447-4.005.915-8.625 1.296-13.373 2.209-27.513-.147-35.928-5.269-41.833-3.427-3.951-8.336-6.217-13.47-6.217-18.616 0-32.636 30.511-66.058 17.145-30.393-12.157-50.552-8.597-61.942-3.67-11.39-4.927-31.55-8.488-61.942 3.67-33.401 13.358-47.611-17.145-66.058-17.145-5.134 0-10.043 2.266-13.47 6.217-5.121 5.904-7.478 14.32-5.269 41.833.381 4.749.849 9.368 1.296 13.373-13.373 5.946-34.207 18.11-51.357 40.977-25.929 34.571-34.257 111.365-35.121 120.008-.97 9.705 6.873 17.86 16.346 17.587-4.199 31.797-6.624 76.772 9.855 104.237 6.489 10.812 22.39 10.206 28.03-1.077.471-.941.93-1.827 1.375-2.659 15.197 43.152 47.998 117.234 89.159 137.815 10.122 5.061 22.199-1.723 23.104-13.033 39.645 60.592 86.193 64.053 128.102 0 .903 11.285 12.962 18.104 23.104 13.033 41.129-20.565 73.98-94.714 89.159-137.815.445.832.904 1.718 1.375 2.659 5.638 11.277 21.539 11.892 28.03 1.077 16.482-27.469 14.056-72.434 9.855-104.237 9.485.273 17.317-7.891 16.348-17.587zm-79.87 88.314c-2.889 14.792-28.92 86.252-59.355 121.972-2.417-12.354-5.309-21.131-5.517-21.753-4.672-14.016-24.457-14.775-30.03-.894-8.442 21.015-35.116 69.953-57.149 69.953-21.903 0-48.519-48.469-57.148-69.953-5.564-13.857-25.351-13.145-30.03.894-.208.622-3.1 9.398-5.517 21.753-10.832-12.713-22.218-31.21-33.363-54.425-15.258-31.781-24.888-61.892-25.992-67.547-1.085-13.728-17.398-20.244-33.577-8.838-3.399-30.17 2.735-72.26 9.15-98.003 2.701-10.805-6.163-20.845-17.032-19.809 4.183-20.206 11.352-48.866 24.206-64.918 19.783-24.704 45.019-31.587 45.28-31.655 8.052-1.906 13.031-9.567 11.863-17.759-1.342-9.407-2.358-19.254-2.92-27.517 14.815 8.266 36.982 15.85 65.022 4.633 11.763-4.705 30.508-9.537 40.227-2.248 2.671 2.137 5.833 2.876 5.406 2.758 7.097 1.971 12.357-1.454 11.656-1.104 3.333-1.667 2.469-2.256 5.903-3.602 4.638-1.818 16.117-4.125 36.923 4.196 28.04 11.217 50.207 3.633 65.022-4.633-.562 8.263-1.578 18.109-2.92 27.517-1.168 8.191 3.812 15.853 11.863 17.759.261.069 25.497 6.951 45.28 31.655 12.839 16.034 20.009 44.645 24.206 64.918-10.868-1.035-19.734 9.001-17.032 19.809 6.415 25.743 12.55 67.833 9.15 98.003-16.134-11.375-32.485-4.954-33.575 8.838z"/><circle cx="192.024" cy="152" r="16"/></svg>