<svg id="Layer_1" enable-background="new 0 0 512.025 512.025" height="512" viewBox="0 0 512.025 512.025" width="512" xmlns="http://www.w3.org/2000/svg"><path d="m414.232 34.374c-.804-29.794-35.41-45.097-58.443-25.807l-99.536 83.356-95.438-78.977c-22.502-18.62-57.076-3.162-58.809 26.396l-7.763 132.27c-.669 11.39 10.513 19.857 21.33 16.014l142.911-50.78 138.349 45.255c10.518 3.441 21.267-4.598 20.969-15.639z" fill="#f9bf98"/><path d="m256.012 298.466c-88.419 0-160.353 71.934-160.353 160.353v37.207c0 8.836 7.163 16 16 16h288.705c8.837 0 16-7.164 16-16v-37.207c.001-88.419-71.933-160.353-160.352-160.353z" fill="#f2f2f2"/><path d="m310.479 46.511-54.226 45.412-54.838-45.38c-41.441 10.127-77.078 32.003-103.467 61.958l-3.704 63.11c-.539 9.187 6.773 16.938 15.974 16.938 3.94 0-8.026 3.832 148.267-51.703 151.068 49.416 139.675 46.048 143.323 46.048 9.023 0 16.238-7.453 15.995-16.432l-1.497-55.384c-26.565-31.241-63.069-54.147-105.827-64.567z" fill="#fdaa6a"/><path d="m277.757 486.786c-38.424-54.334-107.514-77.157-170.262-57.229-6.107 1.94-10.469 7.336-11.083 13.715-1 10.368-.753 13.875-.753 52.753 0 8.836 7.163 16 16 16h153.034c12.949 0 20.554-14.65 13.064-25.239z" fill="#eaeaea"/><path d="m463.87 320.125-26.168-105.604c-5.928-42.125-26.741-80.374-58.672-107.785-102.892-88.326-283.935-39.803-304.707 107.785l-26.168 105.604c-3.382 13.649 11.322 24.751 23.524 17.708 16.621-9.586 29.771-9.893 43.692-.93 40.512 46.102 61.333 80.25 140.641 80.25 76.352 0 96.446-29.983 140.744-80.367 16.62-11.306 32.103-5.352 43.793 1.164 12.194 6.796 26.682-4.265 23.321-17.825z" fill="#f9f9f9"/><path d="m254.908 62.957c-88.332.455-155.635 55.068-175.988 129.304-2.572 9.381 3.76 18.861 13.39 20.1 88.228 11.349 168.097-48.449 178.555-131.402 1.187-9.422-6.084-18.002-15.957-18.002z" fill="#f0a567"/><path d="m433.105 192.261c-20.36-74.259-87.679-128.849-175.988-129.304-9.797-.011-17.152 8.512-15.956 18.001 10.46 82.967 90.343 142.75 178.555 131.402 9.645-1.24 15.956-10.734 13.389-20.099z" fill="#f0a567"/><path d="m453.024 276.354c-4.091 1.252-8.6.841-12.474-1.319-11.69-6.515-27.173-12.469-43.793-1.164-40.11 45.621-61.038 80.367-140.744 80.367-79.7 0-100.773-34.881-140.641-80.25-13.922-8.962-27.071-8.656-43.692.93-3.913 2.259-8.51 2.708-12.677 1.432l-10.847 43.774c-3.382 13.649 11.322 24.751 23.524 17.708 16.621-9.586 29.771-9.893 43.692-.93 39.819 45.314 60.868 80.25 140.641 80.25 79.568 0 100.525-34.622 140.744-80.367 16.62-11.306 32.103-5.352 43.793 1.164 12.194 6.798 26.681-4.264 23.32-17.824z" fill="#eaeaea"/><path d="m324.316 280.897c-37.826-30.052-98.773-30.059-136.608 0-38.284 30.416-38.285 79.946 0 110.362 37.826 30.052 98.773 30.059 136.608 0 38.284-30.415 38.285-79.945 0-110.362z" fill="#f2f2f2"/><circle cx="202.587" cy="232.573" r="19.841"/><circle cx="309.438" cy="232.573" r="19.841"/><path d="m511.939 254.497c-.844-8.797-8.659-15.242-17.454-14.399l-49.274 4.726-7.509-30.302c-3.028-21.515-9.947-42.013-20.238-60.578l-3.232-119.569c-.804-29.794-35.41-45.097-58.443-25.807l-67.834 56.808c-20.874-3.232-42.884-3.243-63.8-.013l-63.34-52.415c-22.502-18.62-57.076-3.162-58.809 26.396l-6.641 113.163c-10.737 18.942-17.936 39.945-21.042 62.016l-7.509 30.302-49.274-4.726c-8.791-.842-16.61 5.603-17.454 14.399s5.604 16.611 14.399 17.454l44.548 4.272-10.878 43.901c-3.382 13.649 11.322 24.751 23.524 17.708 11.206-6.463 20.833-8.69 30.184-6.72l-39.839 39.92c-6.242 6.255-6.231 16.385.023 22.627 6.234 6.222 16.365 6.252 22.627-.023l42.723-42.81c1.71 1.998 3.395 3.963 5.065 5.902-22.972 27.752-36.802 63.333-36.802 102.089v37.207c0 8.836 7.163 16 16 16h288.705c8.837 0 16-7.164 16-16v-37.207c0-38.756-13.83-74.337-36.803-102.088 1.671-1.939 3.355-3.904 5.065-5.902l42.723 42.81c3.125 3.131 7.225 4.698 11.325 4.698 14.088 0 21.448-17.159 11.325-27.302l-39.907-39.989c11.474-2.257 21.966 2.172 30.456 6.904 12.194 6.798 26.681-4.264 23.32-17.824l-10.878-43.901 44.548-4.272c8.797-.844 15.244-8.658 14.4-17.455zm-276.987-158.282c-15.191 49.091-62.817 84.365-118.544 85.488 20.138-46.662 64.107-78.862 118.544-85.488zm160.666 85.488c-55.727-1.123-103.354-36.396-118.545-85.488 54.437 6.626 98.407 38.826 118.545 85.488zm-19.284-148.603c2.505-2.096 5.827-.95 5.91 2.138l2.061 76.229c-16.762-15.635-36.486-27.902-58.365-36.164zm-235.919 4.499 45.596 37.731c-20.791 7.861-39.724 19.377-56.061 34.085l4.002-68.2c.208-3.543 4.251-5.446 6.463-3.616zm-12.755 442.426c0-25.819-.007-20.558.02-22.783 34.88-7.665 71.51.558 99.906 22.783zm256.705 0h-111.689c-32.887-41.409-85.876-63.705-140.196-56.096 4.517-15.969 12.06-30.68 21.96-43.48 24.388 23.318 52.108 36.703 101.572 36.703 49.241 0 77.061-13.268 101.573-36.703 16.779 21.695 26.78 48.884 26.78 78.369zm41.353-180.817c-16.269-2.342-29.792 1.479-40.31 7.102l-9.073-9.091c-6.242-6.254-16.373-6.265-22.627-.023-6.255 6.242-6.266 16.373-.023 22.627l8.268 8.285c-33.3 38.908-49.128 57.044-105.941 57.044-56.79 0-72.778-18.297-105.941-57.044l8.268-8.285c6.242-6.255 6.231-16.385-.023-22.627s-16.385-6.232-22.627.023l-9.159 9.178c-12.936-6.826-26.365-9.287-40.18-7.369l4.885-19.716 47.473 4.553c8.796.843 16.61-5.603 17.454-14.399s-5.604-16.611-14.399-17.454l-42.747-4.099c9.202-37.136 5.759-22.525 7.86-34.335 64.152 2.631 122.049-31.707 149.136-84.588 27.073 52.854 84.952 87.221 149.136 84.588 2.128 11.96-1.351-2.835 7.86 34.335l-42.747 4.099c-8.796.843-15.243 8.658-14.399 17.454s8.657 15.243 17.454 14.399l47.472-4.553z"/><path d="m290.906 336.391-18.894-5.843v-18.967l9.064-13.111c6.203-8.971-.219-21.218-11.126-21.218h-27.877c-10.907 0-17.328 12.246-11.126 21.218l9.064 13.111v18.967l-18.894 5.843c-8.442 2.61-13.17 11.57-10.56 20.013 2.611 8.442 11.571 13.171 20.013 10.559l25.44-7.867c28.029 8.667 26.955 8.585 30.172 8.585 6.83-.001 13.157-4.41 15.281-11.277 2.613-8.442-2.115-17.402-10.557-20.013z"/></svg>