<svg id="Layer_1" enable-background="new 0 0 512 512" height="512" viewBox="0 0 512 512" width="512" xmlns="http://www.w3.org/2000/svg"><path d="m512 308.692c0 16.38 0 43.79-5.4 67.54-9.85 43.36-32.95 52.46-50.6 52.46-14.44 0-17.62 3.11-17.75 3.24-3.788 3.912 4.88 27.979-9.48 42.79-6.51 6.71-15.92 9.97-28.77 9.97-54.343 0-83.189-45.243-71.52-91.88 2.039-8.182 4.061-15.224 5.73-21.43-21.986 11.04-55.275 19.354-78.21 11.03-23.032 8.359-56.382-.07-78.21-11.03 1.784 6.632 3.674 13.178 5.73 21.43 11.569 46.235-16.79 91.88-71.52 91.88-12.85 0-22.26-3.26-28.77-9.97-14.357-14.809-5.693-38.879-9.48-42.79-.13-.13-3.31-3.24-17.75-3.24-17.65 0-40.75-9.1-50.6-52.46-5.4-23.75-5.4-51.16-5.4-67.54 0-62.032 32-51.32 32-144 0-64.796 36.547-93.084 82.36-88.97 25.233-43.374 91.905-51.986 141.64-47.12 49.722-4.865 116.407 3.745 141.64 47.12 45.614-4.096 82.36 23.865 82.36 88.97 0 92.081 32 82.478 32 144z" fill="#818182"/><path d="m403.4 205.792c-3.795 28.628-10.494 48.45-20.3 68.45-12.764 26.506-6.63 30.834-6.63 46.23 0 43.66-82.017 76.02-120.47 61.95-38.361 14.037-120.47-18.231-120.47-61.95 0-15.304 6.211-19.565-6.63-46.23-9.838-20.065-16.5-39.789-20.3-68.45-4.718-32.231-5.337-98.44-4.15-98.44 1.306-13.512 6.278-26.582 10.05-31.86 23.975-42.617 92.929-51.659 141.5-46.89 35.225-3.483 84.717.477 115.68 20.56 19.115 11.453 33.354 32.16 35.87 58.19.87 0 1.021 63.11-4.15 98.44z" fill="#f2a661"/><path d="m408 116.692c0 52.7-2.89 86.28-8.64 111.83-78.407 58.056-208.088 58.222-286.72 0-5.75-25.55-8.64-59.13-8.64-111.83 0-73.83 79.257-95.219 152-88.09 72.743-7.129 152 14.244 152 88.09z" fill="#999"/><path d="m320 240.422c-8-40-56-24-56-48 0-64 24-64 24-88s-8-32-32-32v-.3c-24 0-32 8-32 32s24 24 24 88c0 24-48 8-56 48-10.009 50.046-19.163 144 32 144 29.45 0 27.711-.329 29.52-.88 2.856-.85 2.48-1.015 2.48-.52 4.575 1.674 3.336 1.7 32 1.7 51.13 0 42.03-93.848 32-144z" fill="#f2f2f2"/><path d="m176.875 146.004c-.94.616 4.893-3.283 10.977-4.197 3.244-.488 6.516-.121 8.834 2.198 6.249 6.248 16.379 6.248 22.628 0 6.248-6.249 6.248-16.379 0-22.628-16.682-16.682-42.389-13.866-60.189-1.999-7.353 4.902-9.339 14.836-4.438 22.188 4.917 7.375 14.856 9.325 22.188 4.438z" fill="#f2a661"/><path d="m480 164.692c0-55.703-26.16-81.709-58.39-87.86-12.693-2.427-23.395-1.11-23.98-1.11-3.813-7.625-14.453-19.775-28.46-28.12-31.223-18.604-77.778-22.5-113.17-19-35.766-3.512-86.074.799-115.95 20.73-5.341 3.56-7.638 5.341-12.41 9.71-7.331 7.138-12.52 15.064-12.52 15.42-1.299 2.102.798.9-8.79.9-41.925 0-74.33 27.435-74.33 89.33 0 92.081-32 82.478-32 144 0 16.38 0 43.79 5.4 67.54 9.85 43.36 32.95 52.46 50.6 52.46 14.44 0 17.62 3.11 17.75 3.24 3.788 3.912-4.88 27.979 9.48 42.79 6.51 6.71 15.92 9.97 28.77 9.97 54.343 0 83.189-45.243 71.52-91.88-6.15-24.683-7.002-22.027-4.1-20.63 19.688 9.774 50.475 17.387 72 11.64 6.124-1.552 3.178-1.801 7.53-.44 21.912 6.35 53.14-1.028 73.63-11.2 2.876-1.385 2.072-4.14-4.1 20.63-11.569 46.235 16.79 91.88 71.52 91.88 12.85 0 22.26-3.26 28.77-9.97 14.357-14.809 5.693-38.879 9.48-42.79.13-.13 3.31-3.24 17.75-3.24 17.65 0 40.75-9.1 50.6-52.46 5.4-23.75 5.4-51.16 5.4-67.54 0-62.032-32-51.321-32-144zm-334.3 273.95c-7.28 9.32-18.62 14.05-33.7 14.05-2.66 0-4.34-.24-5.32-.45-1.174-11.128 9.81-55.55-50.68-55.55-23.577 0-24-64.678-24-88 0-48.874 32-46.043 32-144 0-15.487 2.38-34.488 12.83-45.89 6.688-7.643 17.868-11.45 27.62-11.45-.49 5.324-.474 8.673-.44 14.22 0 162.162 38.022 142.467 32.11 190.95-1.068 8.558-1.161 16.042 4.33 26.3 2.893 5.33 4.56 6.903 4.56 7.12-5.958 12.574.922 28.392 7.47 54.63 3.43 13.73.83 28.31-6.78 38.07zm131.2-84.87c-10.509-.127-11.581-2.56-14.84-3.89-3.902-1.583-8.218-1.583-12.12 0-3.263 1.325-4.35 3.763-14.84 3.89-26.624.315-63.641-17.762-67.56-32.89-.1-.78.15-2.95.39-4.81 1.978-17.123 2.018-31.263-9.62-54.54-14.8-29.59-22.31-60.12-22.31-144.84 0-25.097 14.057-40.05 37.44-48.3 22.439-8.414 57.167-10.534 80.69-7.81 7.349 0 31.796-3.32 61.59 1.89 33.554 5.853 60.28 20.02 60.28 54.22 0 84.72-7.51 115.25-22.31 144.84-11.1 22.2-11.75 36.099-9.62 54.54.24 1.86.49 4.03.39 4.81-3.931 15.224-41.049 33.204-67.56 32.89zm179.1 42.92c-18.94 0-32.26 4.24-40.71 12.96-13.75 14.163-9.043 33.806-9.97 42.59-.98.21-2.66.45-5.32.45-15.08 0-26.42-4.73-33.7-14.05-7.61-9.76-10.21-24.34-6.78-38.07 6.52-26.125 13.434-42.042 7.47-54.63 0-.392 9.922-11.478 9.47-26.46 0-12.506-5.743-20.44 5.85-43.64 10.096-19.818 17.053-41.126 20.74-67.58 4.766-32.57 5.735-87.505 4.5-100.91 9.853 0 21.27 3.867 28.56 12.57 9.649 11.369 11.89 29.976 11.89 44.77 0 97.735 32 95.256 32 144 0 23.409-.425 88-24 88z"/><circle cx="332" cy="176.691" r="20"/><path d="m304 148.691c10.898 0 10.071-8.196 19.51-6.972 9.463 1.075 12.451 6.974 20.475 6.974 15.699 0 22.089-20.515 8.89-29.315-17.85-11.901-43.539-14.651-60.189 1.999-10.111 10.111-2.811 27.314 11.314 27.314z" fill="#f2a661"/><path d="m314.995 314.681c-7.583-10.304-12.015-14.433-22.921-19.133-14.553-6.263-20.074-6.267-20.074-18.857 0-1.195-.141-2.355-.389-3.475 14.137-6.386 24.389-20.45 24.389-32.525 0-37.271-80-37.395-80 0 0 12.076 10.252 26.139 24.389 32.525-.248 1.12-.389 2.28-.389 3.475 0 10.354-3.157 12.044-15.228 16.868-14.038 5.612-18.516 8.55-27.767 21.122-6.603 8.97-3.64 18.592 2.868 23.307 6.57 4.759 15.628 3.829 21.092-2.046.841-.904 1.208-1.476 2.005-2.552 5.16-6.966 5.15-6.709 13.679-10.117 34.65-13.849 4.039-13.854 38.702 0 8.357 3.339 8.464 3.076 13.679 10.117.803 1.084 1.166 1.65 2.005 2.552 5.456 5.868 14.511 6.813 21.092 2.046 6.579-4.766 9.423-14.402 2.868-23.307z"/><circle cx="180" cy="176.691" r="20"/></svg>