<svg id="Layer_1" enable-background="new 0 0 511.958 511.958" height="512" viewBox="0 0 511.958 511.958" width="512" xmlns="http://www.w3.org/2000/svg"><path d="m498.24 172.938c-5.957 9.219-8.654 11.554-9.26 38.32-.17 7.76-.34 15.1-1.94 21.39-4.638 18.127-22.134 24.583-36.82 14.72 4.62 6.49 10.44 10.91 18.37 13.28 8.684 2.601 13.432 11.867 10.59 20.39-15.62 46.85-62.76 72.89-76.9 79.8-3.929 38.879-20.141 87.203-35.75 121.85-2.67 5.78-8.42 9.29-14.53 9.29-9.591 0-17.079-8.417-15.88-17.98 1.03-8.32 2.26-24.59 1.78-41.57-2.51 2.78-4.8 5.07-6.59 6.86-9.736 9.755-26.467 3.385-27.27-10.37-14.678 17.299-36.91 31.06-48.08 31.06-7.822 0-29.769-9.526-48.04-31.06-.803 13.758-17.537 20.122-27.27 10.37-1.79-1.79-4.09-4.08-6.59-6.86-.48 16.98.75 33.26 1.78 41.57 1.186 9.569-6.297 17.98-15.89 17.98-6.1 0-11.85-3.51-14.52-9.29-15.219-33.118-31.853-83.29-35.75-121.85-14.15-6.91-61.28-32.95-76.9-79.8-2.843-8.528 1.913-17.797 10.59-20.39 7.93-2.37 13.75-6.79 18.37-13.28-14.722 9.887-32.196 3.391-36.82-14.72-1.6-6.29-1.77-13.63-1.95-21.39-.581-26.728-3.306-29.12-9.25-38.32-6.78-10.48-14.47-22.36-13.66-34.05.83-12.13 7.51-29.75 34.61-44.88 28.187-15.739 45.562-68.441 89.17-57.55 25.84 6.46 42.71 21.58 53.32 32.95 35.349-9.19 52.324-5.238 60.18-22.93 2.42-5.46 2.62-10.45 2.62-10.5 0-8.84 7.16-16 16-16s16 7.16 16 16c.262 0-.027 4.969 3.04 11.32 8.085 16.759 24.542 12.943 59.8 22.11 10.61-11.37 27.47-26.49 53.32-32.95 43.87-10.979 60.567 41.578 89.17 57.55 27.1 15.13 33.78 32.75 34.61 44.88.8 11.691-6.88 23.57-13.66 34.05z" fill="#999"/><path d="m329.34 386.128c-8.78 21.7-29.31 60.04-68.28 73.03-3.392 1.123-6.949 1.063-10.16 0-38.98-12.99-59.51-51.33-68.27-73.04-1.42-3.5-1.55-7.39-.37-10.97 11.12-33.94 36.28-76 70.56-82.86 2.07-.41 4.25-.41 6.32 0 34.28 6.86 59.44 48.92 70.56 82.86 1.18 3.58 1.05 7.471-.36 10.98z" fill="#999"/><path d="m366.53 482.688c-2.67 5.78-8.42 9.29-14.53 9.29-9.633 0-17.062-8.453-15.88-17.98 1.03-8.32 2.27-24.59 1.78-41.57-2.5 2.78-4.8 5.07-6.59 6.86-11.416 11.438-30.764.502-26.83-15.19 6.008-24.07-20.309-89.208-48.5-99.54-27.623 10.123-54.678 74.793-48.5 99.54 3.931 15.679-15.402 26.64-26.83 15.19-1.79-1.79-4.09-4.08-6.59-6.86-.48 16.98.75 33.26 1.78 41.57.97 7.83-3.91 15.2-11.49 17.36s-15.61-1.51-18.92-8.67c-19.927-43.367-46.608-123.045-32.85-171.11 13.12-45.93 69.43-64.41 107.7-71.74 13.105-15.92 58.201-15.964 71.35-.01 38.29 7.33 94.64 25.82 107.75 71.76 13.687 47.904-12.638 127.106-32.85 171.1z" fill="#aaa"/><path d="m479.18 281.039c-17.44 52.31-74.19 78.69-80.41 81.44l-4.6 2.29c-10.924 5.43-23.747-2.92-23.1-15.18.61-11.53-.21-21.36-2.46-29.22-10.01-35.05-72.6-47.6-91.55-50.61-5.398-.857-9.842-4.396-11.96-8.97-5.495-1.079-12.767-1.083-18.28 0-2.14 4.623-6.592 8.128-11.96 8.98-18.94 3.01-81.5 15.54-91.52 50.61-2.24 7.84-3.06 17.67-2.45 29.23.482 9.164-6.82 16.85-15.98 16.85-4.598 0-7.249-1.729-11.75-3.99-6.34-2.81-62.96-29.19-80.38-81.43-2.843-8.528 1.913-17.797 10.59-20.39 36.415-10.893 29.98-71.212 53.88-126.97 23.36-54.51 73.09-63.7 105.99-69.79 15.552-2.883 28.016-3.708 34.1-17.41 2.42-5.46 2.62-10.45 2.62-10.5 0-8.84 7.16-16 16-16 9.672 0 16.194 7.679 16.04 15.9.04.75.37 5.97 3 11.42 3.31 6.84 8.83 11.14 16.88 13.16 30.695 7.691 95.17 8.675 122.83 73.22 23.776 55.467 17.576 116.111 53.88 126.97 8.702 2.6 13.426 11.883 10.59 20.39z" fill="#aaa"/><path d="m367.96 223.978c8 0 52.284 12.284 24-16-16-16-56-24-56-24s64-8 16-16-96 40-96 40-48-48-96-40 16 16 16 16-40 8-56 24c-28.284 28.284 16 16 24 16s-48 40-40 48 112-32 152-32 144 40 152 32-48-48-40-48z" fill="#999"/><circle cx="179.96" cy="223.978" r="20"/><path d="m511.901 138.884c-.832-12.123-7.513-29.749-34.615-44.876-28.184-15.733-45.561-68.457-89.167-57.552-25.844 6.459-42.708 21.579-53.323 32.957-35.539-9.255-51.705-5.366-59.797-22.114-3.097-6.409-2.809-11.32-3.039-11.32 0-8.837-7.163-16-16-16s-16 7.163-16 16c0 .046-.195 5.044-2.621 10.502-7.85 17.665-24.477 13.636-60.177 22.933-10.615-11.379-27.478-26.498-53.321-32.957-43.896-10.965-60.55 41.575-89.169 57.551-27.103 15.127-33.783 32.753-34.615 44.876-1.035 15.103 12.399 31.056 17.956 40.935 7.381 13.133 3.109 37.949 6.91 52.827 4.625 18.107 22.119 24.596 36.815 14.723-11.573 16.265-22.019 9.762-27.976 21.234-1.996 3.842-2.35 8.328-.98 12.436 15.616 46.848 62.753 72.89 76.898 79.798 3.833 38.005 20.315 88.393 35.753 121.847 3.29 7.13 11.303 10.851 18.916 8.677 7.583-2.163 12.459-9.532 11.488-17.358-1.031-8.318-2.262-24.589-1.778-41.575 2.505 2.783 4.798 5.075 6.588 6.865 9.724 9.728 26.46 3.414 27.276-10.371 10.807 12.739 24.908 24.215 42.979 30.237 3.287 1.094 6.829 1.107 10.154 0 18.072-6.022 32.173-17.498 42.98-30.236.817 13.786 17.55 20.094 27.276 10.37 1.79-1.79 4.083-4.082 6.588-6.865.484 16.985-.747 33.253-1.778 41.567-.978 7.828 3.896 15.2 11.48 17.368 7.534 2.154 15.596-1.471 18.924-8.679 15.261-33.071 31.89-83.547 35.753-121.847 14.145-6.908 61.282-32.95 76.898-79.798 1.369-4.107 1.016-8.594-.98-12.436-5.959-11.474-16.396-4.959-27.976-21.234 14.719 9.889 32.189 3.387 36.815-14.723 3.801-14.88-.483-39.672 6.909-52.825 5.51-9.798 18.994-25.804 17.956-40.937zm-465.995 25.253c-3.637-6.469-12.561-18.898-13.855-23.712.827-5.752 7.409-12.442 18.217-18.476 32.966-18.399 47.466-59.039 65.813-54.448 11.661 2.915 20.739 8.473 27.978 14.493-30.728 16.561-44.662 40.809-54.7 73.469-15.365 26.537-26.753 43.366-34.432 53.336-.324-13.74-1.013-30.416-9.021-44.662zm107.743 208.686c-2.641 5.28-4.725 11.175-6.357 17.405-6.114-25.63-9.166-51.591-3.947-69.854 7.966-27.881 49.312-42.357 80.285-48.675 17.086 25.294 38.799 19.54 30.739 20.361-.067.007-1.351.19-1.546.229-34.233 6.847-58.976 48.238-70.095 81.527-5.276-12.628-22.975-13.203-29.079-.993zm102.314-80.845h.007c-.002 0-.005 0-.007 0zm.016 134.846c-21.091-9.5-34.298-31.581-41.361-47.258 6.95-18.858 22.667-48.137 41.361-54.991 18.661 6.843 34.382 36.054 41.361 54.992-7.062 15.676-20.268 37.756-41.361 47.257zm108.687-36.596c-1.633-6.23-3.717-12.125-6.357-17.405-6.094-12.19-23.795-11.652-29.078.993-4.55-13.622-10.903-27.356-18.65-39.599-12.04-19.025-32.844-40.859-53.588-42.192-6.725-.424 14.722 4.147 31.244-20.248 29.031 5.901 72.216 20.031 80.377 48.596 5.218 18.265 2.166 44.227-3.948 69.855zm37.375-65.945c-.636-4.479-1.52-8.716-2.658-12.7-12.323-43.128-63.729-63.272-107.75-71.753-13.116-15.918-58.218-15.948-71.353.009-44.048 8.493-95.391 28.65-107.705 71.744-1.138 3.984-2.021 8.221-2.658 12.699-12.885-8.14-30.365-21.698-40.924-40.31 27.084-16.883 34.59-50.455 41.885-83.085 11.794-52.74 20.255-83.318 65.47-97.979 41.151-11.793 60.766-7.465 79.631-27.503 18.941 20.119 38.894 15.779 79.637 27.506 45.606 14.789 53.837 45.983 65.464 97.977 7.295 32.63 14.801 66.202 41.885 83.085-10.561 18.615-28.045 32.174-40.924 40.31zm69.332-168.723c-8.534 13.194-13.592 21.349-14.342 53.238-7.679-9.969-19.063-26.795-34.431-53.333-9.922-32.283-23.72-56.774-54.701-73.471 7.239-6.021 16.317-11.58 27.979-14.494 18.214-4.546 33.056 36.167 65.812 54.448 10.808 6.033 17.39 12.724 18.217 18.476-.892 3.321-5.83 10.955-8.534 15.136z"/><circle cx="331.998" cy="223.978" r="20"/></svg>