<svg id="Layer_1" enable-background="new 0 0 512 512" height="512" viewBox="0 0 512 512" width="512" xmlns="http://www.w3.org/2000/svg"><path d="m496.56 348.049c-1.497 28.327-31.251 35.993-52.93 23.7-14.147 45.295-62.62 116.92-109.8 116.92-13.052 0-25.248-5.309-33.85-16.09-7.97 6.54-18.98 12.24-34.02 14.49-3.357 1.254-5.891 1.101-9.96.93-4.204.177-6.693.29-9.96-.93-15.04-2.25-26.05-7.95-34.02-14.49-8.573 10.73-20.728 16.09-33.85 16.09-47.205 0-95.648-71.636-109.8-116.92-21.528 12.208-51.424 4.808-52.93-23.7-1.092-20.609 13.278-52.028 3.25-67.07-18.17-27.25-18.69-89.83-18.69-96.88 0-67.746 68.671-135.574 114.1-130.17 29.475-29.418 100.424-32.466 141.9-29.86 41.501-2.608 112.431.448 141.9 29.86 45.537-5.416 114.1 62.596 114.1 130.17 0 7.05-.52 69.63-18.69 96.87-10.014 15.036 4.344 46.45 3.25 67.08z" fill="#ffdfba"/><path d="m319.13 438.249c.65 3 .42 6.12-.66 8.99-6.97 18.52-26.82 38.94-61.65 40.73-.72.027-.921.027-1.64 0-34.83-1.79-54.68-22.21-61.65-40.73-1.08-2.87-1.31-5.99-.66-8.99 5.613-26.135-.87-66.915-.87-86.15 0-63.95 128-63.85 128 0 0 19.209-6.48 60.028-.87 86.15z" fill="#818182"/><path d="m391.41 444.989c-7.9 18.01-23.49 31.72-46.36 40.79-2.28 1.56-4.99 2.56-7.94 2.76-4.054.293-8.234.054-12.24-.75-55.56-11.104-36.87-102.106-36.87-135.69 0-2.69 0-8.3-12.53-12.64-11.873-4.111-25.715-4.579-38.94 0-12.53 4.34-12.53 9.95-12.53 12.64 0 33.232 18.87 124.543-36.86 135.69-3.96.79-8.08 1.04-12.25.75-2.95-.2-5.66-1.2-7.94-2.76-22.87-9.07-38.46-22.78-46.36-40.79-21.392-48.774 20.13-111.68 32.03-153.29 8.59-30.08 22.02-53.19 39.9-68.69 35.409-30.685 91.502-30.727 126.96 0 17.88 15.5 31.31 38.61 39.9 68.69 11.916 41.668 53.421 104.517 32.03 153.29z" fill="#818182"/><path d="m240 144.049s16 40-16 48c-39.574 9.894-88 80-104 56s22.059-89.373 56-112c24-16 56-24 64 8z" fill="#999"/><path d="m276.233 144.049s-16 40 16 48c39.574 9.894 88 80 104 56s-22.059-89.373-56-112c-24-16-56-24-64 8z" fill="#999"/><path d="m208 112.097c-36.831 0-87.548 67.958-95.782 117.37-1.625 9.745 5.888 18.633 15.802 18.633 7.68 0 14.458-5.546 15.763-13.372 2.24-13.437 8.574-28.977 17.68-43.976 7.158 15.611 30.538 10.415 30.538-6.652 0-8.262-6.255-15.052-14.289-15.906 15.081-17.746 26.966-24.019 30.289-24.096 4.475 0 7.937 14.584 8 24.045.024 8.815 7.179 15.955 16 15.955 8.837 0 16-7.164 16-16-.001-27.326-12.554-56.001-40.001-56.001z"/><path d="m493.313 280.974c18.163-27.244 18.687-89.829 18.687-96.875 0-67.753-68.684-135.576-114.097-130.165-29.45-29.414-100.174-32.434-141.902-29.869-41.421-2.548-112.376.38-141.904 29.869-45.477-5.416-114.097 62.546-114.097 130.165 0 7.046.524 69.631 18.688 96.876 10.034 15.048-4.338 46.448-3.246 67.075 1.492 28.197 30.99 36.161 52.925 23.695 12.009 38.433 42.372 82.737 72.395 103.459 30.872 21.308 57.282 14.885 71.261-2.624 7.972 6.535 18.974 12.238 34.017 14.49 3.324 1.243 5.872 1.101 9.961.931 4.044.168 6.644.31 9.961-.931 15.042-2.252 26.045-7.954 34.016-14.49 14.093 17.649 40.558 23.813 71.261 2.623 30.025-20.724 60.39-65.032 72.396-103.458 21.794 12.385 51.422 4.692 52.925-23.696 1.089-20.582-13.277-52.033-3.247-67.075zm-131.213 151.161c-4.585 10.454-14.475 18.44-30.174 24.395-24.047-3.161-11.926-82.757-11.926-104.431 0-29.988-26.115-42.547-48-46.502v-10.91c11.396-6.463 31.672-15.871 38.051-34.639 7.666 10.535 13.87 24.016 18.564 40.444 11.609 40.629 47.939 98.689 33.485 131.643zm-106.076-199.602c10.557 2.831 23.976 9.636 23.976 15.566 0 6.814-17.325 15.049-24 18.881-6.545-3.757-24-12.069-24-18.881 0-5.949 13.31-12.682 24.024-15.566zm-54.075 27.515c6.033 17.747 23.688 26.493 38.051 34.639v10.91c-21.885 3.955-48 16.514-48 46.502 0 20.888 12.064 101.281-11.926 104.431-49.76-18.875-36.015-57.826-11.959-115.466 5.995-14.364 11.658-27.932 15.27-40.571 4.694-16.429 10.898-29.91 18.564-40.445zm54.051 195.898c-19.307-1.264-27.604-10.782-30.844-16.408 5.054-31.119-1.156-70.746-1.156-87.438 0-2.693 0-8.297 12.534-12.642 11.852-4.109 25.735-4.576 38.932 0 12.534 4.344 12.534 9.948 12.534 12.641 0 16.696-6.209 56.326-1.157 87.439-3.239 5.626-11.536 15.144-30.843 16.408zm210.688-192.723c-18.792 28.185-2.238 65.006-2.025 82.089-5.793.136-11.409-6.127-14.695-10.635 3.975-60.131-5.434-184.671-46.654-225.892-6.248-6.248-16.379-6.248-22.627 0-6.249 6.249-6.249 16.379 0 22.628 33.365 33.364 43.618 169.742 35.531 218.056-2.427 14.561-9.965 32.326-19.978 49.174-5.51-37.771-28.612-78.086-36.855-106.941-18.802-65.804-58.755-91.604-103.424-91.604-55.269.279-88.035 38.018-103.346 91.604-8.293 29.027-31.339 69.131-36.855 106.94-10.012-16.85-17.552-34.618-19.979-49.185-8.139-48.618 2.288-184.799 35.533-218.043 6.249-6.249 6.249-16.379 0-22.628-6.248-6.248-16.379-6.248-22.627 0-41.215 41.214-50.626 165.728-46.655 225.879-3.263 4.461-8.821 10.648-14.543 10.648-1.02 0 2.595-17.672 2.615-17.772 3.938-19.547 8.84-43.874-4.792-64.317-9.67-14.505-13.297-56.234-13.313-79.125 0-56.444 63.648-106.283 80.845-97.689 7.479 3.74 16.575 1.09 20.875-6.079 6.866-11.443 30.349-19.924 64.429-23.268 31.141-3.056 55.149-.809 58.714-.999 21.378-1.122 40.266-.62 56.596.961 34.3 3.319 57.926 11.814 64.821 23.306 4.302 7.169 13.398 9.817 20.875 6.079 17.266-8.633 80.846 41.365 80.846 97.683-.016 22.896-3.643 64.625-13.312 79.13z"/><path d="m304 112.097c-27.455 0-40 28.688-40 56 0 8.836 7.163 16.025 16 16.025s16-7.138 16-15.975c.062-9.46 3.525-24.051 7.993-24.051 3.33.077 15.215 6.35 30.296 24.096-8.034.854-14.289 7.644-14.289 15.906 0 17.023 23.367 22.29 30.538 6.652 9.106 14.999 15.44 30.54 17.68 43.976 1.453 8.716 9.697 14.606 18.412 13.152 8.717-1.453 14.605-9.696 13.152-18.413-8.395-50.372-59.559-117.368-95.782-117.368z"/></svg>