<svg id="Layer_1" enable-background="new 0 0 512.082 512.082" height="512" viewBox="0 0 512.082 512.082" width="512" xmlns="http://www.w3.org/2000/svg"><path d="m504.929 237.459c-.1.07-16.88 11.97-16.88 26.69 0 23.9-18.31 57.7-47.67 63.21-10.626 26.923-29.491 34.848-33.15 45.85-3.46 10.38-14.42 26.15-69.44 43.22-29.82 9.26-63.43 15.72-81.74 15.72s-51.92-6.46-81.74-15.72c-55.02-17.07-65.98-32.84-69.44-43.22-3.65-10.977-22.534-18.951-33.15-45.85-29.36-5.51-47.67-39.31-47.67-63.21 0-14.72-16.78-26.62-16.95-26.74-6.48-4.21-8.79-12.28-5.82-19.41 12.75-30.665 47.459-104.085 79.61-120.16 22.7-11.35 53.38-9.78 76.65-5.98 43.111-15.574 152.691-16.015 197.02 0 23.27-3.8 53.95-5.36 76.64 5.98 32.049 16.015 67.014 89.842 79.62 120.16 2.97 7.13.58 15.26-5.89 19.46z" fill="#a07765"/><path d="m448.049 280.149c0 67.692-35.732 77.76-40.82 93.06-3.46 10.38-14.42 26.15-69.44 43.22-29.82 9.26-63.43 15.72-81.74 15.72s-51.92-6.46-81.74-15.72c-55.02-17.07-65.98-32.84-69.44-43.22-5.191-15.611-40.82-24.796-40.82-93.06 0-68.598 50.003-161.899 79.12-181.31 26.899-17.869 88.663-18.69 120.88-18.69 27.556 0 81.783 3.292 104.86 18.68 29.351 19.561 79.14 112.979 79.14 181.32z" fill="#ffdfba"/><path d="m444.129 243.639c-7.597 34.095-33.036 45.949-36.9 57.57-3.46 10.38-14.42 26.15-69.44 43.22-29.82 9.26-63.43 15.72-81.74 15.72s-51.92-6.46-81.74-15.72c-55.02-17.07-65.98-32.84-69.44-43.22-3.918-11.78-29.31-23.507-36.9-57.57 11.588-57.644 49.028-127.352 75.2-144.8 39.218-26.053 189.224-24.359 225.74-.01 26.29 17.522 63.661 87.311 75.22 144.81z" fill="#ffebd2"/><path d="m350.659 406.729c-1.81 4.07-5.3 7.3-9.74 8.72-30.26 9.68-65.95 16.7-84.87 16.7s-54.61-7.02-84.87-16.7c-4.44-1.42-7.93-4.65-9.74-8.72-18.831-36.594-42.23-100.36-12.7-129.89 21.931-21.986 40.238-47.55 73.17-52.02 9.228-1.242 17.601 5.627 18.13 14.98.74 2.5 7.08 8.35 16.01 8.35s15.27-5.85 16.01-8.35c.53-9.371 8.919-16.219 18.13-14.98 32.866 4.461 51.055 29.849 73.17 52.02 29.472 29.472 6.057 93.44-12.7 129.89z" fill="#a07765"/><path d="m304.049 240.149c0 21.929-23.769 40-48 40-24.571 0-48-18.353-48-40 0-15.47 12.61-32 48-32s48 16.53 48 32z" fill="#999"/><path d="m148.049 200.149c-15.537 0-28.016 12.586-28.016 28 0 15.464 12.536 28 28 28 15.537 0 28.016-12.586 28.016-28 0-15.464-12.536-28-28-28z"/><path d="m364.033 256.149c15.537 0 28.016-12.586 28.016-28 0-15.464-12.536-28-28-28-15.537 0-28.016 12.586-28.016 28 0 15.464 12.536 28 28 28z"/><path d="m510.818 217.995c-12.772-30.677-47.446-104.073-79.617-120.158-22.16-11.074-52.201-9.966-76.647-5.98-44.015-15.904-153.715-15.65-197.027 0-24.454-3.987-54.491-5.091-76.647 5.98-32.047 16.023-66.972 89.787-79.616 120.158-2.853 6.848-.845 15.092 5.894 19.467.09.063 16.875 11.967 16.875 26.687 0 23.904 18.314 57.697 47.666 63.207 10.621 26.889 29.497 34.88 33.156 45.853 3.459 10.377 14.42 26.147 69.437 43.222 52.912 16.421 83.726 15.719 81.75 15.719 22.53 0 59.428-8.791 81.75-15.719 55.017-17.074 65.978-32.845 69.437-43.222 3.658-10.972 22.533-18.96 33.156-45.853 29.351-5.509 47.666-39.303 47.666-63.207 0-14.721 16.785-26.624 16.875-26.687 6.756-4.387 8.735-12.644 5.892-19.467zm-454.769 46.154c0-20.026-11.552-35.439-20.59-44.434 9.396-20.831 39.393-83.08 59.743-93.254 6.498-3.247 15.605-5.038 26.522-5.351-29.358 39.774-59.136 110.284-57.605 164.538-4.935-6.901-8.07-15.693-8.07-21.499zm214.566-22.134c-7.34 8.123-21.779 8.155-29.147 0 7.455-2.497 21.682-2.499 29.147 0zm-83.332 144.915c-15.076-30.836-28.096-75.291-15.92-87.468 16.846-16.844 28.89-32.597 43.54-39.525 6.085 8.383 15.25 14.553 25.13 17.706v20.563c-19.419 5.135-35.84 20.202-45.337 36.981-1.742 2.561-2.774 5.643-2.774 8.974 0 16.788 22.802 22.252 30.325 7.094.122.061.109.025.05.14.004-.008.022-.042.052-.097.109.056 11.88-23.144 33.692-23.15 21.472.006 33.607 23.014 33.727 23.247l-.046-.092.01-.005c.03.055.048.089.052.097-.059-.116-.072-.079.05-.14 7.522 15.157 30.325 9.696 30.325-7.094 0-3.331-1.032-6.413-2.774-8.974-9.604-16.968-26.023-31.874-45.337-36.981v-20.563c9.875-3.152 19.042-9.32 25.13-17.706 14.647 6.927 26.688 22.674 43.541 39.525 12.176 12.177-.844 56.631-15.92 87.468-28.98 8.676-56.476 13.217-68.758 13.219-12.282-.002-39.778-4.542-68.758-13.219zm260.68-101.281c1.545-54.699-28.696-125.374-57.604-164.538 10.917.313 20.024 2.104 26.522 5.351 20.35 10.174 50.347 72.423 59.743 93.254-9.038 8.994-20.59 24.407-20.59 44.434-.001 5.805-3.137 14.597-8.071 21.499zm-102.604-163.089c.772.405 1.572.759 2.405 1.035 19.774 9.29 68.269 95.318 68.269 156.555 0 58.498-28.256 50.981-39.063 82.597-.905 1.4-4.076 4.226-10.771 7.94 10.832-30.231 19.867-71.146-2.836-93.85-19.422-19.425-35.915-41.769-62.608-49.73-11.776-21.592-48.09-18.956-44.714-18.956-16.925 0-36.571 4.025-44.714 18.956-26.687 7.96-43.186 30.306-62.608 49.73-22.701 22.701-13.672 63.61-2.836 93.85-6.696-3.714-9.866-6.54-10.772-7.94-10.795-31.583-39.063-24.137-39.063-82.597 0-61.64 48.738-147.379 68.268-156.555.833-.275 1.633-.63 2.405-1.035 35.402-14.047 143.674-13.874 178.638 0z"/></svg>