<svg id="Layer_1" enable-background="new 0 0 512.081 512.081" height="512" viewBox="0 0 512.081 512.081" width="512" xmlns="http://www.w3.org/2000/svg"><path d="m512.041 96.041c0 16.3-2.11 36.13-17.38 70.5-22.5 50.63-49.03 79.15-64.79 92.88 19.001 100.576-50.716 212.62-173.83 212.62-122.8 0-192.876-111.804-173.83-212.62-21.974-19.143-45.73-49.982-64.79-92.88-21.246-47.82-30.761-100.091 17.32-120.7 8.69-3.73 18.61-5.8 29.3-5.8 44.719 0 103.999 65.393 132.49 100.05 21.27-4.05 41.88-4.05 59.51-4.05s38.24 0 59.51 4.05c28.492-34.657 87.771-100.05 132.49-100.05 36.49 0 64 24.07 64 56z" fill="#818182"/><path d="m136.041 160.041c0 64-32 96-80 64-4.63-3.09-9.27-7.02-13.82-11.64-8.33-12.72-16.82-27.9-24.8-45.86-21.246-47.82-30.761-100.091 17.32-120.7 28 15.89 101.3 62.43 101.3 114.2z" fill="#ffa4b8"/><path d="m376.041 160.041c0 64 32 96 80 64 4.63-3.09 9.27-7.02 13.82-11.64 8.33-12.72 16.82-27.9 24.8-45.86 21.245-47.819 30.761-100.091-17.32-120.7-28 15.89-101.3 62.43-101.3 114.2z" fill="#ffa4b8"/><path d="m430.941 318.541c-11.945 82.629-76.264 153.5-174.9 153.5-96.602 0-162.673-68.922-174.9-153.5-10.065-69.618 21.329-144.578 87.05-170.39 29.265-11.502 58.448-12.11 87.85-12.11 30.255 0 58.881.724 87.85 12.11 65.263 25.632 97.209 100.119 87.05 170.39z" fill="#999"/><path d="m304.041 232.041c0 72-40 88-48 80-8 8-48-8-48-80 0-56.48 7.38-83.43 16.37-95.31 15.507-.955 47.736-.956 63.26 0 8.99 11.88 16.37 38.83 16.37 95.31z" fill="#f2f2f2"/><circle cx="152.041" cy="304.041" fill="#b2b2b2" r="32"/><circle cx="360.041" cy="304.041" fill="#b2b2b2" r="32"/><path d="m327.201 454.351c-6.09 3.05-11.56 4.11-16.24 4.11-24.267 0-33.602-25.387-41.3-46.68-2.003-5.531-8.589-24.712-13.62-27.73-5.031 3.019-11.616 22.193-13.62 27.73-6.75 18.67-13.74 37.97-30.3 44.59-5.89 2.35-15.39 3.9-27.24-2.02-42.283-21.131-36.457-82.877-15.15-125.47 20.42-40.84 53.92-40.84 86.31-40.84 35.122 0 66.455 1.13 86.31 40.84 21.328 42.637 27.102 104.354-15.15 125.47z" fill="#f2f2f2"/><circle cx="148.041" cy="300.041" r="20"/><circle cx="364.041" cy="300.041" r="20"/><path d="m448.041 40.041c-44.774 0-104.013 65.449-132.494 100.046-21.264-4.042-41.88-4.046-59.506-4.046s-38.242.004-59.506 4.046c-28.391-34.488-87.685-100.046-132.494-100.046-36.486 0-64 24.075-64 56 0 16.304 2.105 36.129 17.379 70.498 22.501 50.628 49.034 79.15 64.796 92.881-18.582 98.107 48.236 212.621 173.826 212.621 124.127 0 192.678-113.084 173.826-212.621 15.761-13.731 42.295-42.253 64.796-92.882 15.273-34.368 17.379-54.193 17.379-70.498-.002-31.925-27.516-55.999-64.002-55.999zm-401.379 113.502c-13.491-30.358-14.621-45.6-14.621-57.502 0-13.907 13.458-24 32-24 28.602 0 80.557 56.499 99.203 78.179-31.687 13.928-55.36 39.078-70.517 74.903-12.967-13.699-30.497-36.549-46.065-71.58zm171.139 170.186c11.431 37.763 65.034 37.81 76.479 0 8.255 3.122 14.151 8.871 19.449 19.467 8.345 16.69 13.213 36.155 13.021 52.068-.131 10.801-2.642 24.854-13.865 30.466-.612.306-1.076.488-1.401.596-6.747-6.06-14.3-38.146-24.521-54.666-16.253-26.267-45.6-26.252-61.844 0-10.266 16.592-17.748 48.582-24.521 54.666-.326-.108-.789-.29-1.401-.596-11.223-5.611-13.734-19.665-13.865-30.466-.192-15.913 4.675-35.377 13.021-52.068 5.297-10.596 11.193-16.345 19.448-19.467zm38.24 60.325c7.43 4.317 15.442 37.715 24.83 54.078-15.989 2.5-33.089 2.591-49.66 0 9.313-16.234 17.45-49.803 24.83-54.078zm102.637 14.31c.879-22.998-5.88-48.585-16.327-69.479-20.721-41.442-53.918-40.706-90.458-40.856-38.467-.176-64.686 5.899-82.164 40.856-10.486 20.972-17.203 46.549-16.327 69.479-69.041-71.309-50.897-200.623 38.767-224.637 5.137-.594 11.714-5.686 63.87-5.686 52.083 0 58.76 5.098 63.875 5.687 89.655 24.015 107.809 153.324 38.764 224.636zm106.742-244.821c-15.569 35.031-33.098 57.882-46.064 71.58-15.158-35.825-38.831-60.975-70.517-74.903 18.646-21.68 70.6-78.179 99.203-78.179 18.542 0 32 10.093 32 24-.001 11.903-1.131 27.144-14.622 57.502z"/></svg>