<svg id="Layer_1" enable-background="new 0 0 512.004 512.004" height="512" viewBox="0 0 512.004 512.004" width="512" xmlns="http://www.w3.org/2000/svg"><path d="m512.002 40c0 18.1 0 51.78-9.69 71.16-17.51 35.019-54.898 96.84-94.31 96.84-.99 0-1.96-.01-2.91-.02 10.797 23.655 34.91 78.005 34.91 104.02 0 37.664-58.78 146.412-87.12 165.31-25.17 16.78-84.28 32.03-92.64 34.12-1.34.447-4.174.738-6.06.46-2.524 0-69.32-17.421-95.06-34.58-28.474-18.988-87.12-127.81-87.12-165.31 0-26.014 24.11-80.358 34.91-104.02-.95.01-1.92.02-2.91.02-39.428 0-76.825-61.87-94.31-96.84-9.69-19.38-9.69-53.06-9.69-71.16 0-19.66 17.95-40 48-40 55.372 0 131.515 63.986 156.17 72.17 25.739-10.675 77.515-10.843 103.66 0 24.394-8.097 100.958-72.17 156.17-72.17 30.05 0 48 20.34 48 40z" fill="#ffaa64"/><path d="m417.622 380.71c-11.777 24.644-42.437 81.728-64.74 96.6-26.931 17.954-92.614 34.105-92.72 34.14-2.984.897-7.4.48-8.4-.02-8.36-2.09-67.47-17.34-92.64-34.12-22.276-14.855-52.908-71.839-64.74-96.6 12.26-35.75 39.5-108.71 57.62-108.71 24 0 24 32 40 32s48-56 64-56 48 56 64 56 16-32 40-32c18.12 0 45.36 72.96 57.62 108.71z" fill="#ece2e2"/><path d="m299.074 168c7.761-1.94 16 16 24 16s24 4.686 24 16c0 16-48 40-56 32s-24-56 8-64z" fill="#f2f2f2"/><path d="m212.93 168c-7.761-1.94-16 16-24 16s-24 4.686-24 16c0 16 48 40 56 32s24-56-8-64z" fill="#f2f2f2"/><path d="m110.233 96c-8-16-32-64-80-64-24 0-11.943 56.114 16 112 16 32 48 55 72 40s0-72-8-88z" fill="#ffec8f"/><path d="m401.772 96c8-16 32-64 80-64 24 0 11.943 56.114-16 112-16 32-48 55-72 40s0-72 8-88z" fill="#ffec8f"/><circle cx="204.002" cy="220" r="20"/><path d="m216.002 320c0 16.748 19.065 32 40 32s40-15.252 40-32c0-3.952-1.36-17.212-18.862-21.933-10.365-2.796-31.902-2.798-42.275 0-17.503 4.721-18.863 17.981-18.863 21.933z"/><path d="m464.002 0c-55.309 0-131.519 63.973-156.174 72.174-25.803-10.707-77.564-10.825-103.652 0-24.724-8.223-100.797-72.174-156.174-72.174-30.046 0-48 20.338-48 40 0 18.095 0 51.777 9.689 71.155 17.513 35.03 54.897 96.845 94.311 96.845.987 0 1.957-.007 2.91-.021-10.81 23.704-34.91 78.004-34.91 104.021 0 37.699 58.797 146.427 87.125 165.313 25.42 16.947 85.462 32.322 92.862 34.176 2.145.558 4.129.514 4.013.514 6.764 0 73-18.773 96.875-34.69 28.315-18.878 87.125-127.629 87.125-165.313 0-26.017-24.1-80.317-34.91-104.021.953.014 1.923.021 2.91.021 39.461 0 76.87-61.959 94.311-96.845 9.689-19.378 9.689-53.06 9.689-71.155 0-19.662-17.954-40-48-40zm9.69 96.845c-22.194 44.386-51.047 79.155-65.69 79.155-11.341 0-16.935-1.089-19.33-1.773-9.298-12.065-28.67-5.45-28.67 9.773 0 1.653.325 5.688 3.074 9.941 17.946 36.275 44.926 98.021 44.926 118.059 0 26.27-53.302 125.637-72.875 138.687-16.566 11.044-59.554 23.676-79.125 28.795-19.571-5.119-62.559-17.751-79.125-28.795-19.425-12.951-72.875-112.17-72.875-138.687 0-20.021 26.981-81.778 44.927-118.062 2.748-4.252 3.073-8.285 3.073-9.938 0-15.23-19.377-21.831-28.67-9.773-5.23 1.494-13.881 1.773-19.33 1.773-14.643 0-43.496-34.769-65.689-79.155-6.311-12.622-6.311-43.612-6.313-56.768.137-1.603 3.414-8.077 16.002-8.077 11.656 0 25.801 4.585 40.572 11.323 32.503 25.329 52.226 71.515 47.906 88.797-2.143 8.573 3.069 17.26 11.643 19.403 8.628 2.157 17.274-3.127 19.402-11.642 4.762-19.049-2.583-41.514-9.326-56.605 24.226 15.015 42.41 26.31 56.959 19.036 16.415-8.208 65.152-8.269 81.689 0 13.37 6.685 28.708-1.525 56.959-19.035-6.743 15.091-14.088 37.555-9.326 56.604 1.817 7.271 8.341 12.124 15.511 12.124 10.437 0 18.052-9.811 15.534-19.884-4.32-17.282 15.403-63.468 47.906-88.797 14.77-6.739 28.915-11.324 40.571-11.324 12.588 0 15.865 6.474 16 8 0 13.233 0 44.223-6.31 56.845z"/><circle cx="308.002" cy="220" r="20"/><path d="m330.023 312.146c-8.762-1.117-16.759 5.083-17.893 13.833-1.705 13.164-10.148 42.021-24.128 42.021-14.574 0-20.594-3.483-21.456-4.035-5.924-5.216-15.02-5.321-21.088 0-.862.552-6.882 4.035-21.456 4.035-13.978 0-22.42-28.847-24.127-42.014-1.11-8.755-9.104-14.958-17.862-13.862-8.768 1.099-14.985 9.097-13.887 17.865.083.661 2.104 16.361 8.754 32.204 13.809 32.895 35.451 37.807 47.122 37.807 14.776 0 25.083-2.626 32-5.564 6.917 2.938 17.224 5.564 32 5.564 11.671 0 33.313-4.912 47.122-37.807 6.65-15.843 8.671-31.543 8.754-32.204 1.097-8.755-5.103-16.728-13.855-17.843z"/></svg>