<svg id="Layer_1" enable-background="new 0 0 512 512" height="512" viewBox="0 0 512 512" width="512" xmlns="http://www.w3.org/2000/svg"><path d="m512 187.351c0 20.96-9.46 28.58-17.4 31.28-12.1 4.12-26.07-1.46-45.09-18.49.37 7.84-.14 15.65-1.96 22.97-.409 7.53 20.539 34.399 31.44 60.17 22.581 53.381 4.653 99.059-35.68 139.38-14.787 14.798-34.795 31.743-55.11 26.32-6.44-1.73-11.56-5.24-15.81-10.09-17.94 13.6-52.22 28.46-116.39 28.46s-98.45-14.86-116.39-28.46c-4.25 4.85-9.37 8.36-15.81 10.09-20.297 5.418-40.273-11.483-55.11-26.32-100.598-100.567-3.082-178.286-4.24-199.55-1.82-7.32-2.33-15.13-1.96-22.97-19.02 17.03-32.99 22.61-45.09 18.49-7.94-2.7-17.4-10.32-17.4-31.28 0-52.863 18.97-106.853 63.77-133.72 27.863-16.727 54.209-9.251 70.74 15.44 41.494-20.944 89.754-19.57 121.49-4.07 31.782-15.523 80.044-16.85 121.49 4.07 16.53-24.691 42.876-32.167 70.74-15.44 44.802 26.869 63.77 80.861 63.77 133.72z" fill="#e0b7a3"/><path d="m512 187.351c0 20.96-9.46 28.58-17.4 31.28-12.1 4.12-26.07-1.46-45.09-18.49.37 7.84-.14 15.65-1.96 22.97-.372 6.856 24.452 42.955 23.94 45-.16 2.64 3.42 8.86 7.5 15.17 22.581 53.381 4.653 99.059-35.68 139.38-13.09 13.1-29.82 27.36-47.16 27.36-8.642 0-17.058-3.482-23.76-11.13-17.94 13.6-52.22 28.46-116.39 28.46s-98.45-14.86-116.39-28.46c-6.689 7.633-15.128 11.13-23.76 11.13-17.34 0-34.06-14.26-47.16-27.36-40.493-40.481-58.193-86.19-35.69-139.34 4.08-6.32 7.67-12.57 7.51-15.21-.51-2.038 24.312-38.171 23.94-45-1.82-7.32-2.33-15.13-1.96-22.97-19.02 17.03-32.99 22.61-45.09 18.49-7.94-2.7-17.4-10.32-17.4-31.28 0-24.44 4.07-47.99 11.8-68.54 35.129-33.684 79.639-41.766 107.52-4.74 45.99-20.634 100.317-19.856 136.68-4.07 36.132-15.686 90.389-16.699 136.68 4.07 28.194-37.442 72.832-28.521 107.52 4.74 7.73 20.55 11.8 44.1 11.8 68.54z" fill="#c79a83"/><g fill="#a07765"><path d="m256 127.991c0 40 0-8-40 0s-56 8-24-8c0 0 64-32 64 8z"/><path d="m296 127.991c-40-8-40 40-40 0s64-8 64-8c32 16 16 16-24 8z"/><path d="m143.622 159.991c16-8 88-8 80 24s-40-16-88 8-8-24 8-32z"/><path d="m368.378 159.991c-16-8-88-8-80 24s40-16 88 8 8-24-8-32z"/><path d="m488.59 320.621c-2.971-35.91-24.855-65.12-28.65-72.71-3.38 43.99-7.71 132.16-43.94 120.08-48-16-49.6-91.2-88-120-32-24-72-16-72-16s-40-8-72 16c-38.4 28.8-40 104-88 120-36.23 12.08-40.56-76.09-43.94-120.08-12.099 24.199-67.391 90.754 16.63 174.75 13.1 13.1 29.82 27.36 47.16 27.36 8.642 0 17.058-3.482 23.76-11.13 17.94 13.6 52.22 28.46 116.39 28.46s98.45-14.86 116.39-28.46c6.689 7.633 15.128 11.13 23.76 11.13 17.34 0 34.06-14.26 47.16-27.36 32.93-32.92 48.16-67.25 45.28-102.04z"/><path d="m389.89 419.371c-5.76 11.26-32.45 47.98-133.89 47.98s-128.13-36.72-133.89-47.98c-2.04-3.99-2.32-8.65-.76-12.85 9.004-24.359 15.35-69.453 37.68-104.14 21.77-33.86 54.39-51.03 96.97-51.03 111.12 0 118.963 112.73 134.65 155.17 1.56 4.2 1.28 8.86-.76 12.85z"/></g><path d="m382.49 378.811c-27.796 30.841-84.977 37.54-126.49 37.54-41.427 0-98.621-6.619-126.49-37.54 7.048-26.416 14.575-53.213 29.52-76.43 21.77-33.86 54.39-51.03 96.97-51.03s75.2 17.17 96.98 51.04c14.962 23.251 22.539 50.292 29.51 76.42z" fill="#e0b7a3"/><path d="m382.49 378.811c-27.796 30.841-84.977 37.54-126.49 37.54-41.427 0-98.621-6.619-126.49-37.54 1.55-5.81 3.19-11.97 5.03-18.32 27.084-42.937 69.668-61.14 121.46-61.14 51.781 0 94.373 18.198 121.46 61.14 1.84 6.35 3.48 12.51 5.03 18.32z" fill="#c79a83"/><path d="m497.725 112.598c-24.404-57.398-85.703-95.01-120.235-43.531-40.865-20.615-89.131-19.863-121.49-4.069-32.238-15.736-80.497-16.611-121.489 4.069-16.939-25.251-43.449-31.812-70.742-15.436-45.177 27.106-63.769 81.44-63.769 133.72 0 20.964 9.463 28.583 17.4 31.284 12.098 4.114 26.074-1.466 45.087-18.495-.365 7.843.146 15.649 1.959 22.967 1.172 20.959-96.326 98.994 4.24 199.558 13.099 13.099 29.82 27.357 47.165 27.355 8.76 0 17.153-3.589 23.759-11.126 17.938 13.602 52.215 28.457 116.389 28.457s98.451-14.855 116.389-28.457c6.572 7.498 14.981 11.126 23.759 11.126 17.343-.001 34.067-14.257 47.165-27.355 100.594-100.591 3.065-178.535 4.24-199.558 1.813-7.318 2.324-15.124 1.959-22.966 19.014 17.027 32.989 22.607 45.087 18.494 7.938-2.7 17.4-10.319 17.4-31.284.002-26.937-4.935-52.786-14.273-74.753zm-343.543 296.636c17.774-56.362 24.371-125.883 101.818-125.883 62.94 0 79.955 45.086 95.658 104.026 2.043 7.667 4.015 15.063 6.182 21.926-34.349 34.248-168.093 35.804-203.658-.069zm274.5-279.638c-5.024-6.533-14.191-8.179-21.176-3.804-6.985 4.376-9.503 13.342-5.816 20.714 5.539 11.079 20.146 47.53 14.788 68.964-11.582 46.331 93.609 95.167 4.209 184.567-15.505 15.504-22.363 17.642-24.069 17.935-.682-.661-2.387-2.717-4.707-8.252-.277-2.677-1.222-5.241-2.739-7.447-7.704-23.352-13.89-60.321-31.442-91.895 7.94-20.527 2.537-43.927 1.793-46.906-2.142-8.572-10.827-13.79-19.401-11.644-8.573 2.142-13.786 10.829-11.644 19.401.219.878.509 2.339.778 4.175-19.542-15.98-44.067-24.052-73.25-24.053 53.166-.003 30.691-40-.006-40-30.707 0-53.169 39.997-.006 40-29.182.001-53.707 8.073-73.249 24.053.255-1.732.535-3.173.778-4.174 2.143-8.573-3.07-17.259-11.644-19.401-8.571-2.145-17.26 3.071-19.401 11.644-.744 2.979-6.147 26.379 1.793 46.906-22.885 41.167-27.974 97.019-38.888 107.594-1.706-.292-8.564-2.43-24.069-17.935-89.309-89.309 15.767-138.331 4.209-184.567-5.355-21.421 8.864-57.056 14.788-68.964 3.687-7.372 1.169-16.338-5.816-20.714-6.984-4.376-16.151-2.729-21.176 3.804-11.894 15.42-35.329 42.697-51.285 54.16 1.459-78.453 50.023-111.95 65.292-106.407 8.299 3.013 14.135 15.139 15.496 19.062 3.324 9.97 15.251 14.123 24.054 8.253 41.696-27.797 90.43-21.208 110.245-8.003 5.401 3.6 12.458 3.531 17.756.002 19.812-13.208 68.552-19.797 110.249 8.001 8.762 5.841 20.715 1.762 24.054-8.253 1.006-3.017 6.912-15.887 15.426-19.037 15.237-5.639 63.899 27.679 65.362 106.382-15.997-11.494-39.197-38.541-51.286-54.161z"/><circle cx="172" cy="191.351" r="20"/><circle cx="340" cy="191.351" r="20"/></svg>