<?xml version="1.0" encoding="iso-8859-1"?>
<!-- Generator: Adobe Illustrator 19.0.0, SVG Export Plug-In . SVG Version: 6.00 Build 0)  -->
<svg version="1.1" id="Capa_1" xmlns="http://www.w3.org/2000/svg" xmlns:xlink="http://www.w3.org/1999/xlink" x="0px" y="0px"
	 viewBox="0 0 512.001 512.001" style="enable-background:new 0 0 512.001 512.001;" xml:space="preserve">
<g>
	<g>
		<path d="M437.448,244.248c-32.188-32.19-132.742-132.744-169.702-169.702c-5.859-5.859-15.352-5.859-21.211,0
			c-5.859,5.859-5.859,15.352,0,21.211l10.605,10.605l-21.204,21.204l148.485,148.499l21.211-21.211l10.605,10.605
			c5.859,5.859,15.352,5.859,21.211,0S443.307,250.107,437.448,244.248z"/>
	</g>
</g>
<g>
	<g>
		<path d="M160.592,296.251c-7.573,2.021-14.531,6.035-20.142,11.646c-17.534,17.534-17.534,46.084,0.015,63.633
			c17.535,17.533,46.085,17.562,63.648-0.001c5.596-5.596,9.609-12.554,11.616-20.112l20.2-75.352L160.592,296.251z"/>
	</g>
</g>
<g>
	<g>
		<path d="M352.614,286.68L225.321,159.386c-17.574-17.574-46.066-17.574-63.64,0L13.186,307.881
			c-17.545,17.545-17.617,46.029,0,63.647l127.28,127.281c17.618,17.617,46.102,17.56,63.633,0L352.61,350.322
			C370.186,332.749,370.188,304.254,352.614,286.68z M271.628,258.735l-26.909,100.43c-3.354,12.612-10.063,24.229-19.38,33.56
			c-29.268,29.268-76.815,29.282-106.084,0.015c-29.238-29.239-29.238-76.831,0-106.07c9.346-9.331,20.962-16.04,33.589-19.395
			l100.415-26.909c5.229-1.436,10.693,0.088,14.487,3.882S273.019,253.564,271.628,258.735z"/>
	</g>
</g>
<g>
	<g>
		<path d="M507.607,46.84L465.171,4.403c-5.215-5.2-13.374-5.874-19.321-1.597L325.932,90.31l95.753,95.753l87.519-119.902
			C513.467,60.199,512.793,52.025,507.607,46.84z"/>
	</g>
</g>
<g>
</g>
<g>
</g>
<g>
</g>
<g>
</g>
<g>
</g>
<g>
</g>
<g>
</g>
<g>
</g>
<g>
</g>
<g>
</g>
<g>
</g>
<g>
</g>
<g>
</g>
<g>
</g>
<g>
</g>
</svg>
