<svg id="Layer_1" enable-background="new 0 0 512.024 512.024" height="512" viewBox="0 0 512.024 512.024" width="512" xmlns="http://www.w3.org/2000/svg"><path d="m400.364 512.023h-288.705c-8.334 0-16.124-6.482-15.99-16.884.129-10.606-9-18.972-19.557-18.093l-23.873 1.965c-16.566 1.381-23.95-20.49-9.914-29.437 15.268-9.734 24.332-24.259 28.523-45.711.392-2.002-.382-4.03-1.971-5.165-18.679-13.294-34.901-19.086-44.535-15.912-15.944 5.252-29.052-11.258-17.981-26.11 10.169-13.643 31.697-52.389 61.656-158.619 19.879-74.852 93.945-135.113 187.994-135.113 94.032 0 168.104 60.221 187.994 135.113 29.958 106.23 51.487 144.976 61.656 158.619 11.052 14.828-2.014 31.371-17.981 26.11-9.637-3.173-25.857 2.619-44.502 15.889-1.621 1.158-2.395 3.185-2.003 5.187 4.191 21.452 13.255 35.977 28.523 45.711 14.014 8.934 6.673 30.818-9.914 29.437l-23.873-1.965c-10.606-.875-19.685 7.516-19.556 18.115.13 10.302-7.584 16.863-15.991 16.863zm80.065-135.649h.01z" fill="#f9f9f9"/><path d="m232.754 78.862-94.966-71.923c-22.344-16.922-54.428-.966-54.428 27.055v133.903c0 8.915 7.248 16 16 16 6.394 0-2.461 4.314 132.13-78.66 9.539-5.881 10.252-19.567 1.264-26.375z" fill="#8e8e8e"/><path d="m374.235 6.939-94.965 71.923c-8.934 6.767-8.333 20.458 1.264 26.375 134.432 82.875 125.66 78.66 132.13 78.66 8.75 0 16-7.085 16-16v-133.903c-.001-28.031-32.092-43.97-54.429-27.055z" fill="#8e8e8e"/><path d="m83.36 98.025v69.872c0 12.494 13.741 20.189 24.396 13.62l123.733-76.279c9.539-5.88 10.252-19.567 1.264-26.375l-52.482-39.748c-36.874 11.611-70.087 31.659-96.911 58.91z" fill="#999"/><path d="m428.663 98.025c-26.799-27.226-60.003-47.288-96.911-58.91l-52.482 39.747c-8.934 6.767-8.333 20.458 1.264 26.375l123.733 76.279c10.635 6.558 24.396-1.104 24.396-13.62z" fill="#999"/><path d="m444.006 198.058c-19.879-74.852-93.945-135.113-187.994-135.113-94.032 0-168.104 60.221-187.994 135.113-21.503 76.246-38.662 117.725-50.396 140.112 8.868 17.655 20.16 34.397 33.734 49.895 5.478 2.7 11.362 6.25 17.522 10.634 3.008 2.149 1.982 5.333 1.232 8.618 103.251 95.695 267.122 97.038 371.803 0-.785-3.435-1.768-6.475 1.264-8.641 6.147-4.375 12.022-7.918 17.492-10.615 13.573-15.497 24.864-32.239 33.731-49.892-11.732-22.386-28.892-63.865-50.394-140.111z" fill="#eaeaea"/><path d="m392.261 114.284c-75.453-68.492-197.027-68.509-272.499 0-74.796 67.895-78.319 180.232 1.287 251.595 75.18 67.395 192.835 69.109 269.926 0 79.541-71.305 76.151-183.638 1.286-251.595z" fill="#d3d1d1"/><path d="m121.049 309.727c-30.228-27.098-49.563-61.169-56.065-97.975-19.468 111.819 79.035 205.398 191.028 205.398 111.355 0 210.597-92.996 191.027-205.398-23.791 134.691-208.869 202.968-325.99 97.975z" fill="#e0e0e0"/><path d="m311.506 291.245c-30.732-24.416-80.249-24.422-110.989 0-31.104 24.712-31.105 64.953 0 89.665 30.732 24.416 80.249 24.422 110.989 0 31.105-24.712 31.105-64.953 0-89.665z" fill="#f9f9f9"/><circle cx="205.919" cy="240.048" r="19.841"/><circle cx="306.104" cy="240.048" r="19.841"/><path d="m290.906 336.39-18.895-5.843v-15.15l9.064-13.111c6.203-8.972-.219-21.218-11.126-21.218h-27.877c-10.907 0-17.328 12.246-11.126 21.218l9.064 13.111v15.15l-18.895 5.843c-8.442 2.61-13.169 11.57-10.559 20.012s11.571 13.172 20.013 10.559l25.44-7.867c28.029 8.667 26.955 8.585 30.172 8.585 6.831-.001 13.157-4.41 15.281-11.278 2.614-8.44-2.114-17.4-10.556-20.011z"/><path d="m505.662 356.677c-7.162-9.608-19.958-31.67-37.365-80.985l29.242-2.804c8.796-.843 15.243-8.658 14.399-17.454-.843-8.797-8.667-15.248-17.454-14.399l-36.596 3.51c-16.946-53.352-15.631-60.181-29.225-84.658v-125.893c0-28.031-32.091-43.97-54.428-27.054l-78.795 59.676c-25.6-4.827-52.532-4.963-78.855 0l-78.797-59.676c-22.345-16.924-54.428-.966-54.428 27.054v125.892c-13.409 24.144-12.927 33.348-29.225 84.658l-36.596-3.51c-8.792-.848-16.611 5.603-17.454 14.399-.844 8.796 5.603 16.611 14.399 17.454l29.242 2.804c-17.407 49.314-30.203 71.376-37.365 80.985-11.148 14.958 2.236 31.297 17.981 26.11 9.638-3.172 25.857 2.618 44.535 15.912 1.588 1.135 2.362 3.162 1.971 5.165-4.191 21.452-13.255 35.977-28.523 45.71-14.026 8.942-6.672 30.795 9.914 29.438l23.874-1.965c9.881-.822 19.706 6.577 19.548 18.772-.115 8.916 7.089 16.205 15.999 16.205h288.705c8.323 0 16.121-6.481 15.99-16.862-.129-10.598 8.95-18.99 19.556-18.115l23.874 1.965c16.58 1.345 23.943-20.494 9.914-29.438-15.269-9.733-24.332-24.258-28.523-45.71-.392-2.002.382-4.029 2.003-5.187 18.646-13.271 34.867-19.063 44.502-15.889 15.954 5.257 29.041-11.27 17.981-26.11zm-45.035-14.602-36.01-16.303c6.478-10.496 11.795-21.573 15.823-33.064 6.403 17.696 13.191 34.613 20.187 49.367zm-67.071-309.626c1.294-.978 3.107-.083 3.107 1.544v84.431c-18.337-17.74-39.709-31.344-62.934-40.666zm-277.12-.19c1.631-.811-3.467-3.974 61.859 45.5-23.211 9.316-44.586 22.916-62.934 40.666-.001-93.094-.461-85.403 1.075-86.166zm-44.852 260.449c4.028 11.491 9.344 22.568 15.822 33.064l-36.009 16.303c6.996-14.754 13.784-31.671 20.187-49.367zm352.962 79.952c-11.767 8.405-17.567 23.062-14.777 37.34 2.703 13.833 7.097 25.896 13.258 36.307-17.161 4.018-31.03 16.713-36.375 33.716h-261.278c-5.33-16.945-19.159-29.686-36.377-33.717 6.161-10.411 10.555-22.474 13.258-36.306 2.79-14.279-3.01-28.936-14.854-37.396-3.556-2.531-7.052-4.846-10.491-6.954l30.194-13.67c18.134 20.077 41.164 36.76 67.897 48.341 8.109 3.514 17.529-.212 21.042-8.321 3.513-8.108-.212-17.529-8.32-21.042-19.039-8.249-35.799-19.546-49.677-32.986l19.19-8.688c8.05-3.645 11.621-13.125 7.977-21.175-3.645-8.05-13.125-11.622-21.175-7.977l-27.2 12.315c-6.462-9.832-11.624-20.312-15.356-31.218 40.787 3.912 37.671 3.645 38.775 3.645 8.147 0 15.114-6.197 15.908-14.474.844-8.796-5.603-16.611-14.399-17.454l-46.92-4.5c-3.716-54.858 27.655-105.394 77.902-132.68v31.443c0 8.836 7.164 16 16 16s16-7.164 16-16v-44.766c11.258-3.396 23.065-5.705 35.267-6.788v86.847c0 8.836 7.164 16 16 16s16-7.164 16-16v-86.845c10.216.907 20.151 2.678 29.723 5.222v50.147c0 8.836 7.164 16 16 16s16-7.164 16-16v-38.131c53.49 26.507 87.295 78.741 83.446 135.554l-46.92 4.5c-8.796.843-15.243 8.658-14.399 17.454.793 8.277 7.759 14.474 15.908 14.474 1.094 0-2.046.27 38.775-3.645-3.732 10.905-8.894 21.386-15.356 31.218l-27.2-12.315c-8.051-3.645-17.53-.073-21.175 7.977s-.073 17.53 7.977 21.175l19.19 8.688c-13.878 13.441-30.638 24.738-49.677 32.986-15.88 6.881-10.922 30.686 6.369 30.686 2.123 0 4.281-.425 6.353-1.323 26.733-11.582 49.763-28.264 67.897-48.341l30.198 13.672c-3.47 2.121-6.994 4.454-10.578 7.005z"/></svg>