<svg id="Layer_1" enable-background="new 0 0 512.023 512.023" height="512" viewBox="0 0 512.023 512.023" width="512" xmlns="http://www.w3.org/2000/svg"><path d="m232.754 78.862-94.966-71.923c-22.345-16.922-54.428-.966-54.428 27.055v133.903c0 8.915 7.248 16 16 16 6.394 0-2.461 4.314 132.13-78.66 9.539-5.881 10.252-19.567 1.264-26.375z" fill="#3f3f3f"/><path d="m374.235 6.939-94.965 71.923c-8.934 6.767-8.333 20.458 1.264 26.375 134.432 82.875 125.66 78.66 132.13 78.66 8.75 0 16-7.085 16-16v-133.903c-.001-28.031-32.092-43.97-54.429-27.055z" fill="#3f3f3f"/><path d="m83.36 98.025v69.872c0 12.494 13.741 20.189 24.396 13.62l123.733-76.279c9.539-5.88 10.252-19.567 1.264-26.375l-52.482-39.748c-36.874 11.611-70.087 31.659-96.911 58.91z" fill="#606060"/><path d="m428.663 98.025c-26.799-27.226-60.003-47.288-96.911-58.91l-52.482 39.747c-8.934 6.767-8.333 20.458 1.264 26.375l123.733 76.279c10.635 6.558 24.396-1.104 24.396-13.62z" fill="#606060"/><path d="m256.012 298.464c-88.418 0-160.353 71.934-160.353 160.353v37.207c0 8.836 7.164 16 16 16h288.705c8.836 0 16-7.164 16-16v-37.207c0-88.419-71.934-160.353-160.352-160.353z" fill="#d3d1d1"/><path d="m416.119 450.013c-4.586-84.34-74.643-151.549-160.108-151.549s-155.52 67.209-160.107 151.549c94.212 60.434 223.07 62.316 320.215 0z" fill="#d3d1d1"/><path d="m406.032 402.199c-22.932-60.56-81.524-103.735-150.02-103.735s-127.088 43.175-150.02 103.735c119.393 92.821 180.479 92.951 300.04 0z" fill="#e0e0e0"/><path d="m392.261 114.284c-75.453-68.492-197.027-68.509-272.499 0-76.367 69.321-76.368 182.206 0 251.527 75.453 68.492 197.027 68.509 272.499 0 76.367-69.32 76.369-182.205 0-251.527z" fill="#727272"/><path d="m374.522 368.78-11.456-68.149c-.687-4.082-2.928-7.739-6.254-10.204-58.118-43.059-55.955-41.529-56.055-41.529-1.918-1.421-3.266-3.485-3.796-5.813-9.949-43.682-72.008-43.434-81.901 0-.53 2.328-1.878 4.393-3.797 5.813l-56.054 41.529c-3.326 2.465-5.567 6.122-6.254 10.204l-11.456 68.149c-1.059 6.302 1.733 12.63 7.102 16.096 66.317 42.805 155.717 43.31 222.817 0 5.372-3.466 8.164-9.794 7.104-16.096z" fill="#f9f9f9"/><circle cx="180.933" cy="232.699" r="19.841"/><circle cx="331.091" cy="232.699" r="19.841"/><path d="m281.453 364.145c8.461 2.614 17.407-2.135 20.013-10.56 2.61-8.442-2.117-17.402-10.56-20.013l-18.779-5.807 8.949-12.943c6.203-8.972-.219-21.218-11.126-21.218h-27.877c-10.907 0-17.328 12.246-11.126 21.218l8.949 12.943-18.779 5.807c-8.442 2.61-13.17 11.57-10.56 20.013 2.61 8.441 11.57 13.168 20.013 10.56l25.441-7.867z"/><path d="m511.461 201.238c-2.298-8.532-11.08-13.582-19.611-11.287l-46.692 12.578c-3.479-14.86-9.014-29.172-16.495-42.644v-125.891c0-28.03-32.089-43.97-54.428-27.055l-78.796 59.677c-25.703-4.846-52.635-4.944-78.855 0l-78.796-59.677c-22.342-16.923-54.428-.965-54.428 27.055v125.892c-7.482 13.472-13.016 27.784-16.495 42.644l-46.692-12.578c-8.534-2.305-17.313 2.755-19.611 11.287-2.298 8.533 2.755 17.313 11.288 19.611l50.786 13.681c-.724 21.853 2.815 43.226 10.447 63.479-15.935 14.898-28.677 30.566-38.026 46.866-4.396 7.665-1.746 17.443 5.919 21.839 7.694 4.416 17.461 1.716 21.839-5.919 6.406-11.17 14.849-22.086 25.217-32.688 9.098 14.491 20.813 28.354 35.261 40.83-31.683 46.628-27.636 86.738-27.636 127.085 0 8.837 7.164 16 16 16h288.705c8.836 0 16-7.163 16-16 0-40.935 4.014-80.507-27.636-127.085 14.449-12.476 26.163-26.339 35.261-40.83 10.368 10.602 18.811 21.518 25.217 32.688 2.957 5.156 8.348 8.043 13.894 8.043 12.184 0 20.005-13.256 13.865-23.963-9.349-16.3-22.091-31.968-38.026-46.866 7.619-20.218 11.173-41.588 10.447-63.479l50.786-13.681c8.536-2.299 13.589-11.079 11.291-19.612zm-117.906-168.789c1.289-.973 3.108-.089 3.108 1.545v84.431c-18.154-17.566-39.477-31.251-62.934-40.667zm-277.119-.19c1.635-.813-3.466-3.974 61.859 45.5-23.395 9.39-44.733 23.055-62.934 40.667-.001-93.092-.462-85.404 1.075-86.167zm267.928 447.764h-256.705c0-25.045-2.474-56.303 21.508-92.25 64.405 39.183 149.241 39.21 213.689 0 23.393 35.064 21.508 64.867 21.508 92.25zm-213.491-116.735 8.571-50.991 50.869-37.688c8.058-5.969 13.722-14.642 15.949-24.42 1.599-7.021 7.351-7.778 9.749-7.778 2.399 0 8.151.758 9.75 7.779 2.228 9.778 7.892 18.45 15.949 24.419l50.869 37.688 8.571 50.991c-51.142 28.632-117.285 29.667-170.277 0zm241.567-87.18c-3.557-2.616-7.203-5.208-10.976-7.765-7.316-4.958-17.265-3.047-22.221 4.27-4.957 7.315-3.045 17.264 4.27 22.221 5.632 3.817 10.98 7.693 16.044 11.624-7.708 13.399-17.668 25.59-29.433 36.16l-7.058-41.986c-.687-4.082-2.928-7.739-6.254-10.204l-56.055-41.528c-1.917-1.421-3.266-3.485-3.796-5.814-9.922-43.559-71.981-43.555-81.901.001-.53 2.328-1.878 4.393-3.797 5.813l-56.054 41.528c-3.326 2.465-5.567 6.122-6.254 10.204l-7.058 41.986c-11.766-10.569-21.725-22.76-29.433-36.16 5.064-3.931 10.412-7.807 16.044-11.624 7.315-4.957 9.227-14.905 4.27-22.221-4.957-7.314-14.905-9.227-22.221-4.27-3.773 2.557-7.419 5.149-10.976 7.765-3.021-10.577-4.74-21.617-5.005-32.973l26.496 7.138c8.496 2.291 17.304-2.723 19.611-11.287 2.298-8.533-2.755-17.313-11.288-19.611l-31.582-8.507c15.072-66.072 80.277-115.921 158.196-115.921s143.125 49.85 158.196 115.921l-31.582 8.507c-8.533 2.299-13.586 11.078-11.288 19.611 2.294 8.518 11.061 13.588 19.611 11.287l26.496-7.138c-.262 11.356-1.98 22.396-5.002 32.973z"/></svg>