<svg id="Layer_1" enable-background="new 0 0 512 512" height="512" viewBox="0 0 512 512" width="512" xmlns="http://www.w3.org/2000/svg"><path d="m512 159.979c0 70.19-45.91 97.46-55.11 102.21-8.4 4.35-22.31 29.41-22.31 49.79 0 31.121-34.226 38.238-54.19 10.66-.02 41.23-.92 113.97-42.97 124.83-3.21.83-6.4 1.39-9.56 1.729-33.429 41.054-110.313 41.027-143.72 0-3.16-.34-6.35-.9-9.56-1.729-42.05-10.86-42.95-83.6-42.97-124.83-20.011 27.644-54.19 20.394-54.19-10.66 0-20.38-13.91-45.44-22.31-49.79-9.2-4.75-55.11-32.02-55.11-102.21 0-28.52 22.17-56.13 65.9-82.08 30-17.8 59.56-28.53 60.81-28.97 6.97-2.52 14.64.11 18.68 6.09 1.22-.21 4-1.03 8.63-4.22 36.382-25.038 167.722-24.939 203.96 0 4.46 3.07 7.21 3.95 8.49 4.19 3.79-6.39 11.5-8.7 18.82-6.06 1.25.44 30.81 11.17 60.81 28.97 43.73 25.95 65.9 53.56 65.9 82.08z" fill="#c79a83"/><path d="m419.87 200.649c-.379 2.755-1.259 4.623-2.55 6.74-14.46 33.04-36.93 91.95-36.93 112.59 0 34.54 0 94.32-26.3 118.39-6.884 6.294-16.76 11.25-33.91 11.25-29.103 0-55.846-17.443-64.19-17.64-10.243.244-45.242 24.838-81.41 15.49-42.277-10.945-42.97-83.99-42.97-127.49 0-25.617-34.719-108.964-37.29-113.18-1.15-1.88-1.89-3.97-2.19-6.15-7.44-54.09-2.99-82.41 14.93-93.6l12.55-43.92c3.144-10.993 16.505-15.241 25.42-8.06.97-.1 3.84-.71 8.99-4.27 36.367-25.028 167.732-24.953 203.96.01 5.15 3.55 8.02 4.16 8.99 4.26 8.935-7.196 22.282-2.913 25.42 8.06l12.55 43.92c17.92 11.19 22.37 39.51 14.93 93.6z" fill="#a07765"/><path d="m368 351.979c0 34.05-4.79 63.31-13.91 86.39-4.67 4.27-10.18 7.42-16.67 9.1-35.883 9.261-71.515-15.256-81.43-15.49-10.243.244-45.242 24.838-81.41 15.49-6.49-1.68-12-4.83-16.67-9.1-9.12-23.08-13.91-52.34-13.91-86.39 0-64 48-104 64-104s32 8 48 8 32-8 48-8 64 40 64 104z" fill="#ffdfba"/><path d="m325.42 348.889c-7.18 22.27-17.7 42.88-45.76 43.09-4.87.52-7.66 6.34-7.66 16 0 8.84-7.16 16-16 16s-16-7.16-16-16c0-9.66-2.79-15.48-7.66-16-28.06-.21-38.58-20.82-45.76-43.09-11.89-36.87 13.05-59.39 23.7-69.01 6.188-5.579 14.651-16.837 45.72-8.59 14.616-3.88 31.957-5.298 42.47 5.56 6.852 7.154 40.378 30.401 26.95 72.04z" fill="#999"/><circle cx="159.226" cy="171.979" r="20"/><path d="m446.1 77.898c-29.998-17.8-59.565-28.525-60.809-28.973-7.323-2.638-15.034-.328-18.819 6.068-9.671-1.85-12.486-15.163-71.163-20.938-26.938-2.652-50.432-2.774-78.618 0-59.196 5.826-61.541 19.298-71.304 20.963-4.036-5.984-11.706-8.607-18.678-6.094-1.244.447-30.811 11.173-60.809 28.973-43.728 25.947-65.9 53.563-65.9 82.082 0 70.188 45.905 97.46 55.107 102.215 8.406 4.343 22.312 29.408 22.312 49.785 0 31.326 34.327 38.093 54.194 10.659.019 41.228.917 113.97 42.965 124.832 3.216.831 6.404 1.39 9.557 1.731 33.371 40.972 110.253 41.101 143.729 0 3.154-.342 6.342-.9 9.557-1.731 42.048-10.862 42.946-83.604 42.965-124.832 19.85 27.41 54.194 20.626 54.194-10.659 0-20.377 13.906-45.442 22.312-49.785 9.203-4.755 55.108-32.028 55.108-102.215 0-28.519-22.172-56.135-65.9-82.081zm-218.437 364.444c37.496-13.625 19.166-13.634 56.674 0-17.576 7.51-39.092 7.512-56.674 0zm-10.629-103.275c-5.91-18.32 6.046-26.98 18.143-38.616 4.365-.466 11.918 1.506 16.132 2.807 2.064.637 4.188.847 6.339.624 3.348-.349 12.985-4.087 19.175-3.43 11.302 10.872 24.188 19.876 18.143 38.616-6.746 20.912-10.519 20.912-15.74 20.912-7.131 0-15.83 2.627-23.226 8.749-7.396-6.122-16.095-8.749-23.226-8.749-5.221-.001-8.994-.001-15.74-20.913zm15.74 52.912c0 .001-.132.01-.373-.001.125.001.248.001.373.001zm46.824-.001c-.24.011-.373.002-.373.001.126 0 .249 0 .373-.001zm162.606-158.214c-19.068 9.852-34.083 39.16-38.38 64.445-.698-3.704.506-10.89 5.801-38.406 14.921-77.541 23.886-138.12-6.925-154.039-7.85-4.057-17.503-.979-21.559 6.87-3.988 7.72-1.082 17.18 6.479 21.351 6.932 8.941 2.437 48.05.96 59.297-11.788 25.627-40.191 97.166-40.191 126.697 0 15.209 0 40.663-3.649 62.345-3.919 23.283-10.484 32.914-15.321 34.164-18.896 4.884-40.315-7.314-57.162-13.195.786-6.832 3.384-10.882 7.407-11.316 28.057-.211 38.576-20.822 45.758-43.086 11.894-36.871-13.048-59.393-23.699-69.01-6.15-5.554-14.836-16.828-45.722-8.588-14.556-3.884-31.953-5.304-42.465 5.559-7.259 7.503-40.32 30.611-26.956 72.039 7.182 22.264 17.701 42.875 45.758 43.086 4.023.434 6.622 4.484 7.407 11.316-16.86 5.885-38.258 18.073-57.162 13.195-4.837-1.25-11.402-10.881-15.321-34.164-3.649-21.682-3.649-47.136-3.649-62.345 0-29.466-28.708-101.731-40.191-126.697-1.477-11.246-5.973-50.357.96-59.297 7.561-4.171 10.467-13.631 6.479-21.351-4.056-7.85-13.708-10.925-21.559-6.87-30.811 15.919-21.847 76.498-6.925 154.039 5.066 26.329 6.51 34.64 5.801 38.406-4.297-25.285-19.312-54.594-38.38-64.445-6.314-3.261-37.798-22.144-37.798-73.785 0-29.72 59.972-62.632 96.435-77.439 13.926 8.669 30.081 4.024 43.738-5.385 13.159-9.065 56.94-13.162 83.827-13.176 26.887.014 70.668 4.111 83.826 13.176 13.604 9.372 29.776 14.077 43.738 5.385 36.47 14.81 96.436 47.721 96.436 77.439 0 51.641-31.484 70.524-37.796 73.785z"/><circle cx="352.774" cy="171.979" r="20"/></svg>