<svg id="Layer_1" enable-background="new 0 0 512.46 512.46" height="512" viewBox="0 0 512.46 512.46" width="512" xmlns="http://www.w3.org/2000/svg"><path d="m424.23 440.46c0 41.72-23.55 72-56 72-38.36 0-62.47-19.41-69.69-55.25-26.61 9.667-58.017 9.675-84.62-.01-7.22 35.85-31.33 55.26-69.69 55.26-32.45 0-56-30.28-56-72 0-24.971-42.868-54.044-22.31-95.16 14.63-29.26 30.31-114.75 30.31-152.84 0-33.54 18.83-51.84 34.11-59.66-.41-31.35 4.94-56.93 16-76.28 23.957-41.918 69.27-59.427 109.89-56.13 5.42-.44 21.22-1.12 39.88 3.55 30.5 7.62 54.71 25.81 70.01 52.58 11.06 19.35 16.41 44.93 16 76.28 15.28 7.82 34.11 26.12 34.11 59.66 0 38.09 15.68 123.58 30.31 152.84 20.578 41.156-22.31 70.161-22.31 95.16z" fill="#999"/><path d="m359.75 260.34c-6.981 27.904 8.69 76.658.17 119.26-6.333 31.669-1.836 59.248-21.33 69.94-7.812 4.275-16.674 3.703-25.04.86-33.796 18.716-80.667 18.788-114.63 0-8.365 2.842-17.237 3.415-25.05-.86-19.506-10.698-14.987-38.224-21.33-69.94-4.532-22.503-2.284-46.223-.14-68.71 3.799-39.78 2.266-43.287-2.28-60.49-15.31-58.069-33.868-141.248-3.78-193.88 15.652-27.31 40.063-45.104 70.01-52.58 18.66-4.67 34.46-3.99 39.88-3.55 5.42-.44 21.22-1.12 39.88 3.55 30.5 7.62 54.71 25.81 70.01 52.58 14.24 24.91 19.02 60.15 14.22 104.74-4.314 40.176-14.762 75.936-20.59 99.08z" fill="#f2f2f2"/><path d="m296.23 276.46c0 10.29-12.87 52-40 52-27.14 0-40-41.71-40-52 0-37.355 80-37.312 80 0z" fill="#999"/><path d="m321.27 445.66c-36.584 25.064-93.477 25.077-130.08 0-10.029-6.894-9.01-22.05 1.89-27.51 22.792-11.407 47.15-74.078 47.15-97.69 0-8.84 7.16-16 16-16s16 7.16 16 16c0 23.799 24.438 86.322 47.15 97.69 10.883 5.452 11.937 20.604 1.89 27.51z" fill="#ece2e2"/><path d="m216.23 208.46c-25.34 21.12-64 104-64 152 0 4.03-.4 7.58-1.12 10.32-5.05-39.82 8.089-84.503 1.6-110.44-16.047-63.724-41.164-155.668-.34-213.28 27.6-8.77 71.14-16.04 87.86 17.4 8 16 24 104-24 144z" fill="#a07765"/><path d="m296.23 208.46c25.34 21.12 64 104 64 152 0 4.03.4 7.58 1.12 10.32 5.05-39.82-8.089-84.503-1.6-110.44 16.047-63.724 41.164-155.668.34-213.28-27.6-8.77-71.14-16.04-87.86 17.4-8 16-24 104 24 144z" fill="#a07765"/><circle cx="204.23" cy="140.46" r="20"/><circle cx="308.23" cy="140.46" r="20"/><path d="m446.541 345.305c-14.635-29.27-30.311-114.75-30.311-152.845 0-33.538-18.826-51.844-34.108-59.658.407-31.351-4.945-56.933-16.001-76.281-15.3-26.775-39.51-44.958-70.011-52.584-18.66-4.664-34.464-3.985-39.881-3.547-5.417-.438-21.221-1.117-39.88 3.547-30.502 7.626-54.711 25.809-70.012 52.584-11.056 19.348-16.407 44.93-16 76.281-15.282 7.813-34.108 26.121-34.108 59.658 0 38.095-15.676 123.575-30.311 152.845-20.575 41.153 22.312 70.161 22.312 95.155 0 41.72 23.551 72 56 72 38.363 0 62.468-19.414 69.691-55.255 26.652 9.693 58.07 9.659 84.618.004 7.225 35.839 31.329 55.251 69.691 55.251 32.448 0 56-30.28 56-72 0-24.955 42.857-54.065 22.311-95.155zm-272.419-272.907c26.98-47.214 79.761-39.531 84.019-40.053 2.199-.259 54.063-5.683 80.197 40.053 25.909 45.342 2.888 132.584-6.942 169.839-6.077 23.029-7.154 30.126-3.194 71.69 5.268 55.251.72 45.876-3.781 88.944-.563 5.383-1.272 12.188-2.182 16.598-25.751-10.839-48.052-72.237-49.9-96.477 16.144-11.656 23.891-38.548 23.891-46.533 0-37.27-80-37.396-80 0 0 7.984 7.746 34.877 23.891 46.533-1.839 24.124-24.091 85.626-49.9 96.477-.908-4.41-1.619-11.215-2.182-16.598-4.489-42.978-9.056-33.598-3.781-88.944 3.793-39.79 3.105-47.822-3.194-71.69-9.83-37.255-32.851-124.497-6.942-169.839zm82.108 221.771c-2.354-3.342-4.911-8.651-6.507-13.008 3.983-.936 9.026-.937 13.014 0-1.596 4.357-4.152 9.666-6.507 13.008zm-112 186.291c-15.756 0-24-20.122-24-40 0-36.438-36.157-59.908-25.689-80.845 17.352-34.704 33.689-123.589 33.689-167.155 0-8.231 1.743-15.139 5.176-20.643 4.258 31.359 11.936 60.464 16.717 78.584 4.45 16.863 6.143 19.951 2.279 60.49-5.697 59.766-.438 54.638 3.81 95.306 1.976 18.915 3.899 42.928 26.149 46.144-5.307 24.252-21.202 28.119-38.131 28.119zm85.177-51.803c11.162-13.059 20.136-29.969 26.824-45.934 6.688 15.966 15.66 32.874 26.823 45.934-16.962 5.069-36.659 5.078-53.647 0zm162.823 11.803c0 19.878-8.244 40-24 40-16.928 0-32.824-3.867-38.131-28.119 2.838-.411 5.706-1.277 8.495-2.806 19.497-10.69 14.977-38.185 21.326-69.938 8.536-42.683-7.172-91.242-.167-119.257 4.131-16.536 14.15-50.588 19.302-88.523 3.433 5.504 5.176 12.412 5.176 20.642 0 43.566 16.337 132.451 33.689 167.155 10.46 20.921-25.69 44.426-25.69 80.846z"/><g fill="#f2a661"><path d="m207.82 88.46s40 8 32 24c-15.237 30.474-60.628-24-32-24z"/><path d="m304.64 88.46s-40 8-32 24c15.237 30.474 60.628-24 32-24z"/></g></svg>