<svg id="Layer_1" enable-background="new 0 0 512.027 512.027" height="512" viewBox="0 0 512.027 512.027" width="512" xmlns="http://www.w3.org/2000/svg"><path d="m512.014 352.027c0 34.64-5.42 78.47-30.84 93.23-3.952 10.691-1.874 38.656-21.52 49.78-19.983 11.306-39.393-5.917-48.18-3.31-4.449 1.354-12.104 20.3-35.46 20.3-32.614 0-89.391-47.107-87.95-90.79.52-14.56 5-25.49 9.26-34.47-27.849 6.893-54.761 6.896-82.62 0 4.26 8.98 8.74 19.91 9.26 34.47 1.44 43.638-55.342 90.79-87.95 90.79-23.435 0-30.99-18.939-35.46-20.3-8.776-2.604-28.219 14.604-48.18 3.31-19.635-11.118-17.573-39.102-21.52-49.78-25.42-14.76-30.84-58.59-30.84-93.23 0-46.63 20.34-66.97 36.69-83.32 18.3-18.3 24.77-36.88 19.79-56.8-8.9-35.59 5.84-71.11 23.02-97.94 16.37-25.54 34.95-43.19 37.47-45.54 17.971-58.969 85.928-80.713 139.03-61.63 53.292-19.129 121.099 2.791 139.03 61.63 2.52 2.35 21.1 20 37.47 45.54 17.18 26.83 31.92 62.35 23.02 97.94-4.98 19.92 1.49 38.5 19.79 56.8 16.35 16.35 36.69 36.691 36.69 83.32z" fill="#ffaa64"/><path d="m440.004 177.217c-1.846 74.262-28.651 106.199-36.69 121.41-26.436 51.279-25.037 77.794-52.71 98.96-17.21 13.14-41.42 20.21-62.54 23.65.52-14.56 5-25.49 9.26-34.47-27.849 6.893-54.761 6.896-82.62 0 4.26 8.98 8.74 19.91 9.26 34.47-21.13-3.44-45.34-10.52-62.55-23.68-27.57-20.972-26.334-47.787-52.7-98.93-7.432-14.064-34.824-46.389-36.69-121.4-.574-22.964 5.67-43.565 7.49-63.26 16.37-25.54 34.95-43.19 37.47-45.54 17.971-58.969 85.928-80.713 139.03-61.63 53.292-19.129 121.099 2.791 139.03 61.63 2.52 2.35 21.1 20 37.47 45.54 1.835 19.832 8.063 40.314 7.49 63.25z" fill="#f2a661"/><path d="m408.014 176.427c-1.632 65.464-23.96 90.111-33.1 107.45-27.104 54.207-26.511 75.117-43.74 88.28-19.08 14.57-55.41 19.87-75.16 19.87s-56.08-5.3-75.17-19.89c-16.997-12.943-17.008-34.816-43.73-88.26-9.262-17.57-31.47-42.059-33.1-107.45-.562-22.654 8-46.109 8-72.4 0-65.832 45.483-102.382 103.55-103.99 17.15-.48 32.12 3.76 40.45 6.76 8.33-3 23.35-7.22 40.45-6.76 47.77 1.32 103.55 29.36 103.55 103.99 0 26.257 8.561 49.782 8 72.4z" fill="#ffaa64"/><path d="m296.014 112.007c0 16 8 16 16 8 3.808-3.808 8-8 16-8 16 0 20.251 15.499 24 8 12.804-25.607-56-53.061-56-8z" fill="#f2a661"/><path d="m288.014 152.007c-16-16-32-40 0-64s-16-32-16-56c0-13.18 30.77-21.54 58.51-26.39-26.052-8.105-51.412-7.138-74.51 1.18-23.098-8.318-48.458-9.285-74.51-1.18 27.74 4.85 58.51 13.21 58.51 26.39 0 24-48 32-16 56s16 48 0 64-88 56-88 128c0 24 56 40 88 16s32-25 32-25 0 1 32 25 88 8 88-16c0-72-72-112-88-128z" fill="#ffdfba"/><path d="m304.014 180.027c0 19.93-21.41 44-48 44s-48-24.07-48-44c0-20.19 21.08-36 48-36s48 15.81 48 36z" fill="#999"/><path d="m317.114 292.297c-34.605 47.571-87.58 47.592-122.2 0 7.78.7 15.17-.32 21.1-4.27 24-16 40-40 40-72 0 32 16 56 40 72 5.93 3.95 13.32 4.971 21.1 4.27z" fill="#ea8692"/><circle cx="180.014" cy="148.023" r="20"/><path d="m475.327 268.71c-18.299-18.299-24.772-36.881-19.791-56.806 17.369-69.475-55.326-138.666-60.493-143.474-17.99-59.025-85.986-80.696-139.03-61.635-53.276-19.142-121.093 2.787-139.029 61.635-5.167 4.808-77.862 73.999-60.493 143.474 4.981 19.925-1.492 38.507-19.791 56.806-16.345 16.345-36.687 36.686-36.687 83.313 0 34.641 5.418 78.477 30.844 93.231 3.951 10.777 1.892 38.669 21.521 49.783 19.983 11.314 39.517-5.96 48.177-3.308 4.416 1.342 12.104 20.293 35.459 20.293 32.856 0 88-47.07 88-88 0-15.957-4.775-27.705-9.31-37.251 27.838 6.88 54.759 6.886 82.62 0-4.535 9.546-9.31 21.294-9.31 37.251 0 40.836 55.127 88 88 88 23.435 0 30.996-18.937 35.459-20.293 8.675-2.653 28.199 14.617 48.177 3.308 19.624-11.112 17.572-39.014 21.521-49.783 25.426-14.755 30.844-58.591 30.844-93.231-.001-46.628-20.343-66.969-36.688-83.313zm-258.867-236.693c15.833-.46 29.504 5.074 32.211 6.247 4.115 2.117 9.084 2.424 13.623.457 11.745-5.01 23.391-6.998 33.273-6.704 16.995.474 72.446 7.067 72.446 72.006 0 29.183 8.448 53.748 8.005 71.602-1.363 54.728-19.516 75.487-27.093 89.051-19.529 10.407-37.287 14.534-44.037 10.035-20.312-13.541-31.294-31.594-32.712-53.713 18.59-7.073 31.837-25.3 31.837-40.975 0-20.187-21.084-36-48-36s-48 15.813-48 36c0 15.674 13.247 33.902 31.837 40.975-1.418 22.119-12.401 40.172-32.711 53.712-6.749 4.499-24.51.373-44.038-10.034-7.562-13.539-25.73-34.315-27.093-89.05-.444-17.868 8.005-42.392 8.005-71.603.001-64.938 55.452-71.532 72.447-72.006zm9.01 268.92c12.738-8.591 22.959-18.726 30.544-30.173 7.585 11.447 17.806 21.582 30.544 30.173-19.464 14.546-40.997 15.015-61.088 0zm30.544-108.914c-7.841 0-14.42-7.729-15.774-11.36 6.307-6.127 25.166-6.2 31.549 0-1.355 3.631-7.934 11.36-15.775 11.36zm-85.917 268.303c-14.557 13.586-28.693 19.697-34.083 19.697-8.499 0-15.58-33.401-61.942-14.855-2.936 1.174-4.786 1.552-5.792 1.667-5.196-10.579-1.678-39.406-21.11-49.122-5.859-2.93-15.155-23.354-15.155-65.689 0-33.372 12.054-45.426 27.313-60.687 26.546-26.546 36.037-55.882 28.209-87.194-6.854-27.417 7.579-56.959 22.868-78.872-2.514 18.456-6.792 34.814-6.386 51.151.969 38.913 9.946 71.373 26.683 96.477 17.611 26.418 33.875 82.034 43.786 93.319 2.012 36.486 40.967 51.777-4.391 94.108zm30.49-113.365c-3.583-2.902-1.07 1.197-18.141-40.479 1.284.295 2.568.561 3.852.797 40.388 49.032 99.088 48.977 139.431 0 1.283-.237 2.567-.502 3.851-.797-6.58 16.065-12.404 31.439-15.861 38.355-.754 1.298-6.184 5.917-20.757 9.987-41.077 11.471-80.434.747-92.375-7.863zm264.271 70.751c-19.442 9.72-15.916 38.546-21.11 49.122-1.006-.115-2.856-.493-5.792-1.667-46.334-18.535-53.484 14.855-61.942 14.855-5.39 0-19.526-6.111-34.083-19.697-45.348-42.321-6.404-57.609-4.39-94.108 1.905-2.169 3.52-4.512 4.784-7.039 8.36-16.718 24.208-64.088 39.002-86.28 16.736-25.104 25.714-57.563 26.683-96.478.406-16.357-3.843-32.521-6.377-51.084 15.667 22.589 29.507 52.218 22.859 78.805-7.828 31.313 1.663 60.648 28.209 87.194 15.26 15.261 27.313 27.314 27.313 60.687 0 42.336-9.296 62.761-15.156 65.69z"/><circle cx="332.014" cy="148.023" r="20"/><path d="m216.014 112.007c0 16-8 16-16 8-3.808-3.808-8-8-16-8-16 0-20.251 15.499-24 8-12.804-25.607 56-53.061 56-8z" fill="#f2a661"/></svg>