<svg id="Layer_1" enable-background="new 0 0 512.018 512.018" height="512" viewBox="0 0 512.018 512.018" width="512" xmlns="http://www.w3.org/2000/svg"><path d="m208.009 512.009c-38.22 0-61.098-42.35-73.299-78.571l-5.826 3.884c-6.25 4.167-14.559 3.425-19.971-1.786-1.426-1.373-34.567-34.281-2.89-91.298 23.568-42.422 57.376-57.601 81.587-62.864 26.136-5.682 46.995-1.178 47.87-.984 8.626 1.917 14.065 10.464 12.148 19.09-1.912 8.604-10.421 14.04-19.022 12.163-2.715-.568-61.215-11.976-94.611 48.137-10.471 18.848-10.598 32.583-8.434 41.298l9.573-6.382c9.319-6.213 22.047-1.159 24.494 9.84 3.047 13.589 10.231 35.177 20.055 51.79-3.948-20.339-4.357-42.726 6.015-63.472 1.167-2.334 2.888-4.348 5.011-5.864 19.876-14.24 49.3-42.84 49.3-58.98 0-8.836 7.164-16 16-16 8.837 0 16 7.164 16 16 0 31.039-34.686 63.733-59.14 82.373-10.055 24.862 2.374 56.72 10.319 80.568 3.449 10.346-4.262 21.058-15.179 21.058z"/><path d="m216.009 308.009c0-10.99 9.067-18.81 18.866-25.622 6.577-4.572 13.073-8.203 13.346-8.355 4.841-2.697 10.734-2.697 15.576 0 .273.152 6.77 3.783 13.346 8.355 9.799 6.813 18.866 14.632 18.866 25.622 0 37.272-80 37.395-80 0zm49.739 6.226h.011z"/><circle cx="180.009" cy="252.009" r="20"/><path d="m62.055 439.672c-7.014 12.861-26.266 10.259-29.621-3.999-11.539-49.04-17.259-104.746-3.219-153.148-1.441.901-2.887 1.833-4.332 2.796-11.42 7.614-26.551-1.808-24.734-15.428 6.41-48.063 25.486-83.364 56.7-104.919 25.159-17.375 51.212-20.633 64.503-21.028 8.835-.268 16.207 6.684 16.469 15.517s-6.684 16.206-15.517 16.469c-19.924.594-63.299 8.659-82.762 64.796 11.066-5.088 18.828-7.705 19.407-7.897 16.559-5.524 28.475 14.951 16.468 26.403-.978 1.102-10.485 12.292-16.751 36.926-4.752 18.683-8.319 48.122-2.853 90.109 9.665-5.763 22.129.014 23.979 11.111.576 3.26 15.511 81.505 111.078 74.671 8.824-.619 16.47 6.005 17.1 14.819.629 8.814-6.005 16.47-14.819 17.1-56.189 4.009-104.417-16.059-131.096-64.298z"/><path d="m112.023 360.012c-5.667 0-11.156-3.017-14.061-8.341-30.97-56.779-14.918-117.484 24.857-167.283-3.134-.235-6.722-.379-10.811-.379-14.208 0-21.382-17.246-11.313-27.313 29.679-29.68 85.819-36.684 127.818-37.301-10.129-7.605-24.539-13.582-32.926-16.009-8.479-2.453-13.382-11.312-10.943-19.794 2.438-8.483 11.275-13.39 19.759-10.967 6.919 1.977 67.604 20.552 67.604 63.384 0 9.365-7.99 16.669-17.227 15.953-19.04-1.442-62.705-1.396-96.696 8.839 2.554 1.483 4.213 2.871 5.236 3.895 6.447 6.446 6.218 16.999-.551 23.152-.181.167-20.553 19.006-34.954 47.298-18.246 35.845-18.839 69.895-1.762 101.201 5.849 10.718-2.015 23.665-14.03 23.665z"/><path d="m256.009 152.009c-8.836 0-16-7.164-16-16 0-72.534-34.96-108.333-35.314-108.686-6.248-6.249-6.248-16.379 0-22.628 6.249-6.248 16.379-6.248 22.628 0 1.824 1.825 44.686 45.671 44.686 131.314 0 8.837-7.163 16-16 16z"/><path d="m256.009 152.009c-8.836 0-16-7.164-16-16 0-63.829 52.874-99.812 55.125-101.313 7.353-4.901 17.286-2.915 22.188 4.438 4.892 7.336 2.923 17.244-4.391 22.157-.666.455-40.922 28.443-40.922 74.718 0 8.837-7.163 16-16 16z"/><path d="m256.009 512.009c-29.586 0-56.759-24.41-70.323-38.96-6.026-6.463-5.67-16.588.793-22.613 6.463-6.026 16.588-5.67 22.613.793 16.8 18.021 34.339 28.78 46.917 28.78 8.837 0 16 7.164 16 16s-7.163 16-16 16z"/><path d="m304.009 512.009c-10.906 0-18.632-10.704-15.179-21.06 8.132-24.39 20.338-55.794 10.319-80.568-24.464-18.647-59.141-51.303-59.141-82.373 0-8.836 7.164-16 16-16 8.837 0 16 7.164 16 16 0 16.213 29.418 44.779 49.3 58.98 2.124 1.517 3.844 3.53 5.011 5.864 10.306 20.611 9.968 42.846 6.092 63.08 9.859-16.761 17.08-38.362 19.979-51.397 2.431-10.933 15.116-16.09 24.493-9.84l9.64 6.427c2.215-8.718 2.031-22.386-8.501-41.343-33.466-60.24-92.146-48.658-94.628-48.133-8.623 1.917-17.13-3.532-19.047-12.158s3.564-17.182 12.19-19.099c.875-.194 21.734-4.698 47.869.984 24.212 5.263 58.021 20.442 81.588 62.864 31.677 57.017-1.464 89.925-2.891 91.298-5.412 5.208-13.721 5.953-19.971 1.786l-5.825-3.884c-12.207 36.24-35.083 78.572-73.298 78.572z"/><circle cx="332.009" cy="252.009" r="20"/><path d="m318.87 503.969c-8.814-.63-15.449-8.285-14.819-17.1.63-8.814 8.31-15.453 17.099-14.819 40.819 2.917 71.854-8.828 92.261-34.901 15.066-19.252 18.784-39.57 18.817-39.77 1.852-11.111 14.324-16.868 23.979-11.111 5.467-41.986 1.899-71.425-2.853-90.108-6.267-24.634-15.774-35.824-16.752-36.926-12.002-11.447-.1-31.93 16.468-26.403.579.193 8.341 2.809 19.406 7.897-19.463-56.137-62.838-64.202-82.763-64.796-8.832-.263-15.779-7.636-15.517-16.469.264-8.854 7.659-15.78 16.47-15.517 13.291.396 39.344 3.654 64.503 21.028 31.214 21.555 50.291 56.855 56.7 104.919 1.815 13.6-13.297 23.054-24.734 15.428-1.444-.963-2.891-1.895-4.332-2.796 14.038 48.392 8.324 104.09-3.219 153.148-3.354 14.261-22.608 16.854-29.62 3.999-26.855 48.563-75.367 68.276-131.094 64.297z"/><path d="m399.995 360.012c-12.014.002-19.877-12.947-14.031-23.665 41.497-76.079-35.93-147.784-36.717-148.499-7.04-6.401-8.415-19.438 4.685-27.047-33.992-10.233-77.657-10.283-96.703-8.838-8.814.668-16.495-5.928-17.168-14.736-.672-8.807 5.915-16.493 14.722-17.17 1.118-.086 27.752-2.071 59.768 1.027 44.932 4.348 77.49 16.33 96.772 35.612 10.046 10.046 2.929 27.314-11.313 27.314-4.089 0-7.677.144-10.811.379 39.738 49.749 55.849 110.466 24.856 167.283-2.903 5.323-8.394 8.34-14.06 8.34z"/><path d="m256.009 512.009c-8.836 0-16-7.164-16-16s7.164-16 16-16c12.578 0 30.117-10.759 46.917-28.78 6.023-6.464 16.15-6.819 22.613-.793 6.464 6.025 6.818 16.15.793 22.613-13.563 14.55-40.737 38.96-70.323 38.96z"/><path d="m487.129 285.319c-1.44-.96-2.89-1.89-4.33-2.79 14.27 47.355 8.068 105.194-3.22 153.14-3.35 14.268-22.595 16.857-29.62 4-24.61 44.601-67.972 65.378-119.64 64.79-9.59 5.76-18.7 7.55-26.31 7.55-6.071 0-11.878-3.465-14.58-9.42-22.833 12.338-43.288 12.726-66.84 0-2.7 5.952-8.505 9.42-14.58 9.42-7.61 0-16.72-1.79-26.31-7.55-56.75.646-97.259-24.227-119.64-64.79-7.018 12.866-26.272 10.264-29.62-4-11.29-47.956-17.488-105.79-3.22-153.14-1.44.9-2.89 1.83-4.33 2.79-11.422 7.622-26.556-1.795-24.74-15.43 10.919-81.866 60.227-121.685 116.56-125.7 30.692-18.979 75.729-24.273 111.8-24.79-10.12-7.61-24.53-13.59-32.92-16.01-8.48-2.46-13.38-11.32-10.94-19.8 2.43-8.48 11.27-13.39 19.76-10.96 2.94.84 15.59 4.68 29.17 12.1-10.11-38.16-28.63-57.15-28.88-57.41-6.25-6.24-6.25-16.38 0-22.62 6.25-6.25 16.37-6.25 22.62 0 1.26 1.25 21.99 22.46 34.77 63.53 14.79-21.13 31.79-32.7 33.04-33.53 7.36-4.9 17.29-2.92 22.19 4.43 4.89 7.34 2.93 17.25-4.39 22.16-.58.4-31.38 21.82-39.15 58.08 38.766-.361 88.672 4.501 121.53 24.82 55.999 3.992 105.567 43.282 116.56 125.7 1.814 13.612-13.298 23.065-24.74 15.43z" fill="#b9dcff"/><path d="m330.159 465.999c-.67 2.66-2 5.11-3.88 7.1-13.57 14.56-40.71 38.91-70.27 38.91-29.54 0-56.67-24.33-70.25-38.88-1.93-2.05-3.33-4.6-3.98-7.44-7.23-29.27-5.95-53.1 3.92-72.83 1.16-2.34 2.89-4.35 5.01-5.87 19.88-14.24 49.3-42.84 49.3-58.98 0-8.84 7.16-16 16-16s16 7.16 16 16c0 16.21 29.42 44.78 49.3 58.98 2.12 1.52 3.85 3.53 5.01 5.87 9.9 19.81 11.16 43.73 3.84 73.14z" fill="#ece2e2"/><path d="m403.109 435.539c-5.41 5.21-13.72 5.95-19.98 1.78l-5.75-3.84c-12.142 36.203-35.225 78.53-73.37 78.53-5.14 0-9.97-2.47-12.98-6.64-5.46-7.564-2.235-14.361-.09-20.65 7.803-22.833 17.292-51.74 8.2-74.34-15.011-11.434-31.811-26.866-43.13-42.18-11.312 15.305-28.106 30.736-43.13 42.18-9.103 22.608.477 51.776 8.19 74.32 2.185 6.38 5.435 13.029-.08 20.67-3.01 4.17-7.84 6.64-12.98 6.64-38.109 0-61.202-42.249-73.37-78.53l-5.75 3.84c-6.26 4.17-14.56 3.43-19.98-1.78-1.42-1.38-34.56-34.29-2.89-91.3 20.031-36.153 50.349-56.923 84.64-63.49 20.7-3.95 37.21-1.75 42.89-.74h44.92c41.2-7.326 96.304 7.837 127.54 64.25 31.66 56.99-1.48 89.9-2.9 91.28z" fill="#f2f2f2"/><path d="m414.059 351.669c-2.81 5.14-8.19 8.34-14.05 8.34h-12.8c-5.42 0-10.48-2.75-13.43-7.3-34.24-52.84-89.74-41.21-90.3-41.08-2.44.535.695.38-51.47.38-4.381 0-59.015-12.93-93.77 40.7-2.95 4.55-8.01 7.3-13.43 7.3h-12.8c-5.85 0-11.24-3.2-14.05-8.34-30.979-56.813-14.884-117.505 24.86-167.28-3.13-.24-6.72-.38-10.81-.38-14.205 0-21.391-17.251-11.31-27.31 34.081-34.081 108.305-39.829 155.31-36.73 46.477-3.064 120.959 2.379 155.31 36.73 10.052 10.03 2.931 27.31-11.31 27.31-4.09 0-7.68.14-10.81.38 39.843 49.831 55.782 110.572 24.86 167.28z" fill="#ece2e2"/><path d="m107.779 256.009c4.65-6.51 36.919-48 80-48 40 0 56 56 8 80-86.163 43.081-104 112-104 112s-24-88 16-144z" fill="#e0b7a3"/><path d="m404.24 256.009c-4.65-6.51-36.919-48-80-48-40 0-56 56-8 80 86.163 43.081 104 112 104 112s24-88-16-144z" fill="#e0b7a3"/><path d="m186.839 504.319c-53.591 2.019-99.083-18.196-124.79-64.65-6.998 12.87-26.262 10.264-29.61-4-11.29-47.956-17.488-105.79-3.22-153.14-1.44.9-2.89 1.83-4.33 2.79-11.422 7.622-26.556-1.795-24.74-15.43 6.41-48.05 25.48-83.35 56.69-104.91 25.16-17.38 51.21-20.64 64.5-21.03 6.69-.2 12.75 3.77 15.27 9.88 14.353 2.404 31.73 8.154 31.4 22.56-.11 4.37-2 8.52-5.24 11.46-.18.17-20.55 19.01-34.95 47.3-16.64 32.68-18.6 63.88-5.87 92.86h2.86c12.681 0 20.293 14.078 13.44 24.68-9.139 14.209-16.771 31.914-12.69 48.39l9.57-6.38c9.354-6.229 22.054-1.135 24.5 9.84 3.31 14.76 16.25 56.32 36.05 70.91 12.141 8.945 6.233 28.248-8.84 28.87z" fill="#f2a661"/><path d="m487.129 285.319c-1.44-.96-2.89-1.89-4.33-2.79 14.27 47.355 8.068 105.194-3.22 153.14-3.35 14.27-22.617 16.862-29.61 4-25.511 46.1-70.746 66.686-124.79 64.65-15.062-.621-20.987-19.921-8.84-28.87 19.8-14.59 32.74-56.15 36.05-70.93 2.472-10.951 15.163-16.052 24.5-9.82l9.63 6.42c4.152-16.307-3.604-34.21-12.75-48.43-6.857-10.609.765-24.68 13.44-24.68h2.84c31.84-72.9-40.04-139.47-40.8-140.16-7.966-7.228-12.186-27.598 26.16-34.02 2.52-6.11 8.62-10.09 15.27-9.88 13.29.39 39.34 3.65 64.5 21.03 31.21 21.56 50.28 56.86 56.69 104.91 1.814 13.612-13.298 23.065-24.74 15.43z" fill="#f2a661"/><circle cx="180.009" cy="252.009" r="20"/><circle cx="332.009" cy="252.009" r="20"/><path d="m511.869 269.894c-10.93-81.969-60.284-121.7-116.555-125.709-32.866-20.314-82.795-25.178-121.537-24.815 7.771-36.266 38.573-57.682 39.155-58.079 7.313-4.913 9.282-14.82 4.391-22.157-4.901-7.353-14.835-9.339-22.188-4.438-1.255.837-18.251 12.401-33.043 33.533-12.779-41.072-33.512-62.277-34.769-63.534-6.249-6.248-16.379-6.248-22.628 0-6.248 6.249-6.248 16.379 0 22.628.257.256 18.77 19.241 28.883 57.408-13.578-7.425-26.232-11.266-29.173-12.106-8.484-2.423-17.321 2.484-19.759 10.967-2.439 8.482 2.464 17.341 10.943 19.794 8.387 2.427 22.797 8.404 32.926 16.009-35.977.528-81.061 5.785-111.809 24.79-56.004 3.99-105.564 43.284-116.556 125.709-1.814 13.603 13.299 23.052 24.734 15.428 1.444-.963 2.891-1.895 4.332-2.796-14.039 48.397-8.322 104.1 3.219 153.148 3.356 14.26 22.609 16.855 29.621 3.999 22.641 40.938 63.447 65.565 119.641 64.785 9.591 5.758 18.699 7.552 26.313 7.552 6.14 0 11.924-3.539 14.578-9.42 22.756 12.291 43.192 12.775 66.844 0 2.655 5.883 8.438 9.42 14.578 9.42 7.614 0 16.722-1.795 26.313-7.552 51.369.714 94.896-20.037 119.641-64.785 7.013 12.858 26.267 10.261 29.62-3.999 11.539-49.041 17.259-104.746 3.219-153.148 1.441.901 2.888 1.833 4.332 2.796 11.418 7.613 26.551-1.805 24.734-15.428zm-257.087-117.932c2.758.216 55.431-4.322 99.149 8.839-2.554 1.483-4.212 2.871-5.235 3.894-6.447 6.448-6.217 16.999.551 23.153.742.675 69.577 64.439 42.697 135.482-21.733-26.801-47.817-37.669-67.536-41.956-21.939-4.77-43.676-2.486-49.519-.521-5.732-3.825-10.849-6.686-11.091-6.821-4.842-2.697-10.735-2.697-15.576 0-13.791 7.682-9.392 7.102-12.742 6.358-.875-.194-21.734-4.697-47.87.984-19.725 4.288-45.818 15.162-67.555 41.981-10.572-27.659-7.989-57.264 7.763-88.209 14.401-28.292 34.773-47.132 34.954-47.298 7.158-6.507 8.277-19.52-4.686-27.047 33.992-10.235 77.656-10.281 96.696-8.839zm1.227 328.047c-11.871 0-28.16-9.586-44.077-25.813-3.343-14.945-4.461-30.468.937-43.814 14.999-11.433 31.737-26.752 43.14-42.188 11.394 15.423 28.121 30.739 43.141 42.188 5.398 13.346 4.279 28.869.937 43.814-15.917 16.227-32.207 25.813-44.078 25.813zm-122.013-120.229c24.524-44.144 62.587-49.719 82.153-49.34 1.146 10.751 9.875 19.253 22.869 23.186-5.248 16.52-30.57 40.656-48.308 53.364-2.124 1.517-3.844 3.53-5.011 5.864-10.373 20.746-9.963 43.132-6.015 63.472-9.824-16.613-17.008-38.2-20.055-51.79-2.432-10.932-15.117-16.091-24.494-9.84l-9.573 6.382c-2.165-8.715-2.038-22.45 8.434-41.298zm218.395 44.756c-2.899 13.035-10.12 34.636-19.979 51.397 3.876-20.234 4.214-42.468-6.092-63.08-1.167-2.334-2.887-4.348-5.011-5.864-17.749-12.678-43.08-36.797-48.314-53.362 12.997-3.932 21.728-12.435 22.875-23.188 19.567-.379 57.629 5.196 82.153 49.34 10.532 18.958 10.716 32.625 8.501 41.343l-9.64-6.427c-9.32-6.211-22.047-1.159-24.493 9.841zm-272.599-7.157c-1.852-11.112-14.324-16.868-23.979-11.111-5.466-41.987-1.899-71.426 2.853-90.109 6.266-24.634 15.773-35.824 16.751-36.926 12.001-11.446.101-31.93-16.468-26.403-.579.193-8.34 2.809-19.407 7.897 13.905-40.105 40.012-55.672 61.056-61.511 6.081 6.188 11.638 4.376 22.221 5.171-39.729 49.741-55.853 110.456-24.857 167.283.723 1.326 1.607 2.509 2.615 3.538-21.987 50.251 7.004 79.046 8.336 80.328 5.413 5.21 13.721 5.952 19.971 1.786l5.826-3.884c4.109 12.2 9.246 24.59 15.573 35.853-59.456-13.938-70.009-69.184-70.491-71.912zm373.277-164.549c-16.561-5.525-28.473 14.953-16.468 26.403.978 1.102 10.485 12.292 16.752 36.926 4.752 18.683 8.319 48.122 2.853 90.108-9.671-5.766-22.13.024-23.979 11.111-.033.2-3.751 20.518-18.817 39.77-13.006 16.618-30.336 27.405-51.758 32.296 6.333-11.243 11.506-23.683 15.658-36.006l5.825 3.884c6.25 4.167 14.559 3.423 19.971-1.786 1.333-1.282 30.323-30.077 8.336-80.328 1.007-1.029 1.891-2.211 2.614-3.538 30.971-56.778 14.919-117.487-24.856-167.283 10.611-.797 16.166.99 22.221-5.171 21.044 5.839 47.151 21.406 61.056 61.51-11.067-5.086-18.829-7.703-19.408-7.896z"/></svg>