<svg id="Layer_1" enable-background="new 0 0 512.02 512.02" height="512" viewBox="0 0 512.02 512.02" width="512" xmlns="http://www.w3.org/2000/svg"><path d="m142.572 10.318c-6.514-8.339-22.936-13.962-37.828-7.344-12.298 5.466-19.758 17.283-20.13 29.745l-5.133 165.712c-.346 11.147 10.561 19.23 21.132 15.647l137.651-46.695c10.395-3.528 14.268-16.297 7.469-25.002z" fill="#e0e0e0"/><path d="m432.539 198.431c-5.295-170.923-5.133-165.718-5.14-165.906-1.208-28.003-33.954-42.547-55.542-24.685-1.974 1.633 4.688-6.607-105.57 134.541-6.761 8.656-2.982 21.455 7.469 25.002 150.629 51.098 139.011 47.543 142.79 47.543 8.971 0 16.274-7.414 15.993-16.495z" fill="#e0e0e0"/><path d="m339.337 48.864-73.05 93.517c-6.761 8.656-2.982 21.455 7.469 25.002l137.651 46.695c10.569 3.58 21.478-4.497 21.132-15.647l-2.505-80.872c-22.097-29.789-52.734-53.966-90.697-68.695z" fill="#d3d1d1"/><path d="m81.986 117.559-2.505 80.872c-.346 11.147 10.561 19.23 21.132 15.647l137.651-46.695c10.395-3.528 14.268-16.297 7.469-25.002l-73.05-93.517c-37.969 14.731-68.605 38.912-90.697 68.695z" fill="#d3d1d1"/><path d="m256.01 298.461c-88.418 0-160.353 71.934-160.353 160.353v37.207c0 8.836 7.164 16 16 16h288.705c8.836 0 16-7.164 16-16v-37.207c0-88.419-71.934-160.353-160.352-160.353z" fill="#e0e0e0"/><path d="m416.117 450.009c-4.586-84.34-74.643-151.549-160.108-151.549s-155.52 67.21-160.107 151.549c94.212 60.434 223.07 62.316 320.215 0z" fill="#d3d1d1"/><path d="m406.03 402.195c-22.932-60.56-81.524-103.735-150.02-103.735s-127.088 43.175-150.02 103.735c119.393 92.821 180.48 92.951 300.04 0z" fill="#e0e0e0"/><path d="m387.73 114.725c-69.704-68.613-192.687-69.645-263.439 0-33.376 32.854-51.758 77.36-51.758 125.319 0 98.687 141.428 177.103 183.478 177.103 42.014 0 183.478-78.267 183.478-177.103-.002-47.959-18.382-92.465-51.759-125.319z" fill="#e0e0e0"/><path d="m256.01 347.594c-39.282 0-155.946-64.854-179.191-147.014-2.833 12.76-4.287 25.976-4.287 39.464 0 98.622 141.397 177.103 183.478 177.103 42.477 0 183.478-78.718 183.478-177.103 0-13.489-1.454-26.704-4.287-39.464-23.332 82.471-140.382 147.014-179.191 147.014z" fill="#d3d1d1"/><path d="m320.594 273.353c-35.766-28.415-93.393-28.422-129.168 0-36.199 28.759-36.2 75.592 0 104.351 35.766 28.415 93.393 28.422 129.168 0 36.199-28.759 36.199-75.592 0-104.351z" fill="#f9f9f9"/><circle cx="202.584" cy="245.401" r="19.841"/><circle cx="309.436" cy="245.401" r="19.841"/><path d="m511.937 255.43c-.844-8.796-8.647-15.248-17.454-14.399l-55.205 5.294c.948-15.919-1.174-37.215-7.026-57.165-4.902-158.254-4.848-156.534-4.853-156.635-1.21-28.005-33.955-42.547-55.543-24.685-2.074 1.715 1.61-2.667-51.651 65.515-40.128-13.671-86.964-14.114-128.39 0-53.57-68.577-49.733-63.928-51.651-65.515-21.595-17.87-54.335-3.31-55.542 24.685-.007.186.184-5.968-4.853 156.638-5.803 19.779-7.985 41.059-7.026 57.162l-55.205-5.294c-8.796-.852-16.611 5.603-17.454 14.399-.844 8.796 5.603 16.61 14.399 17.454l65.266 6.259c3.745 10.195 8.948 20.363 15.584 30.454l-54.595 11.073c-8.66 1.757-14.257 10.201-12.5 18.861 1.539 7.587 8.21 12.822 15.664 12.822 2.297 0-3.488 1.034 73.846-14.652 5.237 5.548 10.889 11.007 16.951 16.362-24.315 28.119-39.043 64.745-39.043 104.749v37.207c0 8.837 7.164 16 16 16h288.705c8.837 0 16-7.163 16-16v-37.207c0-40.003-14.728-76.629-39.042-104.749 6.062-5.355 11.714-10.815 16.951-16.363l70.649 14.33c8.662 1.758 17.105-3.843 18.861-12.5 1.757-8.66-3.84-17.104-12.5-18.861l-54.594-11.074c6.636-10.091 11.839-20.259 15.584-30.454l65.266-6.259c8.797-.842 15.244-8.656 14.401-17.452zm-118.866-223.373c.883-.199 2.278.396 2.354 1.773l2.858 92.273c-13.688-16.123-29.764-29.2-47.939-39.349zm-276.476 1.772c.07-1.339 1.438-1.977 2.353-1.772l42.727 54.698c-18.139 10.128-34.223 23.193-47.939 39.349zm11.062 446.191v-15.342l11.235 3.979c8.309 2.945 17.468-1.396 20.423-9.741 2.95-8.329-1.411-17.473-9.741-20.423l-19.037-6.742c4.705-21.829 14.976-41.609 29.253-57.78 35.104 25.069 74.971 43.176 96.219 43.176s61.116-18.107 96.219-43.175c14.472 16.391 24.825 36.494 29.44 58.678l-16.498 5.843c-8.33 2.95-12.691 12.094-9.741 20.423 2.949 8.33 12.092 12.69 20.423 9.741l8.51-3.014v14.377zm254.646-177.398-17.736-3.598c-8.657-1.753-17.104 3.84-18.861 12.5-1.627 8.019 3.057 15.842 10.634 18.353-38.806 34.473-86.688 55.269-100.33 55.269-13.696 0-61.442-20.724-100.329-55.27 7.576-2.511 12.26-10.334 10.634-18.353-1.756-8.659-10.196-14.256-18.861-12.5l-17.736 3.598c-4.908-6.246-9.456-12.925-13.298-19.962l22.287 2.137c8.796.843 16.611-5.604 17.454-14.399.844-8.796-5.603-16.61-14.399-17.454l-36.623-3.512c-.393-3.094-.606-6.224-.606-9.387 0-39.316 14.989-75.723 42.206-102.515 57.478-56.578 160.462-57.172 218.543 0 27.217 26.792 42.206 63.198 42.206 102.515 0 3.163-.213 6.293-.606 9.387l-36.623 3.512c-8.796.844-15.243 8.658-14.399 17.454s8.657 15.243 17.454 14.399l22.287-2.137c-3.842 7.038-8.39 13.718-13.298 19.963z"/><path d="m290.903 322.78-21.947-6.786 12.118-17.527c6.203-8.972-.219-21.218-11.126-21.218h-27.877c-10.907 0-17.328 12.247-11.126 21.218l12.118 17.527-21.948 6.787c-8.442 2.61-13.17 11.57-10.56 20.013 2.607 8.43 11.558 13.172 20.013 10.56l25.441-7.867 25.44 7.867c8.442 2.608 17.401-2.118 20.013-10.56 2.611-8.443-2.116-17.403-10.559-20.014z"/><path d="m256.01 173.313c8.837 0 16-7.163 16-16v-19.998c0-8.837-7.163-16-16-16-8.836 0-16 7.163-16 16v19.998c0 8.837 7.163 16 16 16z"/><path d="m256.01 224.553c8.837 0 16-7.163 16-16v-9.999c0-8.837-7.163-16-16-16-8.836 0-16 7.163-16 16v9.999c0 8.837 7.163 16 16 16z"/><path d="m202.584 204.685c8.836 0 16-7.163 16-16v-26.094c0-8.837-7.164-16-16-16s-16 7.163-16 16v26.094c0 8.837 7.164 16 16 16z"/><path d="m309.436 204.685c8.837 0 16-7.163 16-16v-26.094c0-8.837-7.163-16-16-16s-16 7.163-16 16v26.094c0 8.837 7.163 16 16 16z"/><path d="m198.26 411.565-28.657-10.069c-8.338-2.927-17.47 1.455-20.399 9.792s1.454 17.47 9.791 20.399l28.657 10.069c8.354 2.933 17.476-1.471 20.399-9.792 2.93-8.337-1.454-17.47-9.791-20.399z"/><path d="m365.542 411.287c-2.93-8.337-12.063-12.72-20.399-9.792l-28.657 10.069c-8.337 2.93-12.721 12.063-9.792 20.399 2.313 6.583 8.493 10.7 15.096 10.7 3.625 0 2.329.137 33.961-10.978 8.336-2.928 12.72-12.061 9.791-20.398z"/><path d="m260.922 433.574h-10.824c-8.836 0-16 7.163-16 16s7.164 16 16 16h10.824c8.837 0 16-7.163 16-16s-7.163-16-16-16z"/></svg>