<svg id="Layer_1" enable-background="new 0 0 512 512" height="512" viewBox="0 0 512 512" width="512" xmlns="http://www.w3.org/2000/svg"><path d="m478.31 367.047c-7.134 14.268-28.634 10.371-30.23-5.57-2.055-17.443-4.3-34.179-8.25-51.31-.593.596-.637 17.045-8.44 37.42 20.3 24.93 28.92 46.63 31.79 55.24 3.454 10.34-4.259 21.06-15.18 21.06-22.96 0-51.03-2.37-79.8-6.6-12.69 18.11-33.68 32.42-66.26 45.46-25.93 10.37-29.47 23.13-29.91 25.51.734 9.598-8.461 18.978-21.09 14.81-1.13-.38-27.89-9.5-54.25-35.87-19.892-19.877-55.348-35.759-71.05-47.48-22.28 2.7-43.55 4.17-61.64 4.17-10.904 0-18.64-10.702-15.18-21.06 2.87-8.61 11.49-30.31 31.79-55.24-8.014-20.926-7.825-36.803-8.44-37.42-3.965 17.221-6.201 33.916-8.25 51.31-1.592 15.902-23.083 19.864-30.23 5.57-15.175-30.35-22.524-99.977-4.57-168.02-25.81-20.86-29.12-63.3-29.12-95.14 0-42.59 16.44-84.19 17.14-85.94 3.506-8.735 13.662-12.538 22.02-8.37 46.37 23.104 81.404 25.432 112.24 68.18 33.998-15.156 74.361-29.344 104.6-6.21 30.119-23.042 70.455-9.012 104.6 6.21 30.822-42.729 65.706-45.02 112.26-68.19 8.384-4.171 18.535-.283 22 8.38.7 1.75 17.14 43.35 17.14 85.94 0 31.84-3.31 74.28-29.12 95.14 17.926 67.935 10.611 137.658-4.57 168.02z" fill="#b9dcff"/><path d="m478.31 367.047c-7.153 14.283-28.635 10.356-30.23-5.57-2.055-17.443-4.3-34.179-8.25-51.31-.497.499-.674 17.154-8.46 37.49 19.53 23.9 28.24 44.46 31.81 55.17 3.466 10.377-4.303 21.06-15.18 21.06-61.468 0-159.456-17.752-192.02-35.59-33.521 18.362-132.14 35.59-191.98 35.59-10.895 0-18.64-10.704-15.18-21.06 3.57-10.71 12.28-31.27 31.81-55.17-8.045-21.01-7.843-36.87-8.46-37.49-3.955 17.152-6.2 33.91-8.25 51.31-1.596 15.94-23.106 19.839-30.23 5.57-17.661-35.322-21.851-115.879-1.05-180.15 21.268-65.772 62.777-84.245 124.28-111.6 32.088-14.224 70.705-25.458 99.08-3.75 28.327-21.671 66.878-10.525 99.08 3.75 61.572 27.385 102.999 45.786 124.28 111.61 20.863 64.401 16.557 144.927-1.05 180.14z" fill="#ffe773"/><path d="m224 287.887s-24-16-32-24-8-16 16-16 16-16 0-24-48-24-8-16 24 0 24-16 40 0 40 16 0-8 32-8 0 8-8 24 8 16 24 16-16 24-24 32-8 8 0 16-24 32-24 32-32-24-40-32z" fill="#efd66c"/><path d="m373.88 407.887c-11.68 22.7-33.92 39.65-71.94 54.86-25.93 10.37-29.47 23.13-29.91 25.51.734 9.598-8.461 18.978-21.09 14.81-1.13-.38-27.89-9.5-54.25-35.87-23.081-23.081-65.509-39.694-77.94-53.57-8.547-9.565-2.892-24.863 9.84-26.53 26.66-3.51 53.54-8.61 75.71-14.38 27.89-7.25 36.59-12.5 38.45-13.8 6.387-9.44 20.265-9.288 26.54.06 6.85 5.24 40.25 16.48 93.32 25.05 11.102 1.797 16.918 14.164 11.27 23.86z" fill="#ffe773"/><g fill="#ffec8f"><path d="m460.98 417.247c-5.684 7.874-12.532 7.154-33.47 6.09-33.984-1.744-71.407-6.877-115.07-16.5-52.841-12.322-54.546-19.519-57.18-18.15-30.171 16.723-128.201 35.2-191.26 35.2-10.904 0-18.64-10.702-15.18-21.06 10.927-32.841 40.057-73.287 86.3-104.25 30.952-20.626 63.943-23.857 91.72-14.27 5.806 1.951 10.741 4.288 13.39 5.86 0 0 7.75 5.72 15.77 5.72s15.77-5.72 15.77-5.72c4.842-2.904 12.293-5.644 17.77-7.21 27.472-7.808 58.1-3.873 87.34 15.62 46.183 30.916 75.399 71.488 86.3 104.25 1.63 4.88.81 10.24-2.2 14.42z"/><path d="m223.64 129.947-.87.44c-7.542 19.045-42.733 40.063-49.56 45.48-33.68 26.51-61.65 103.85-69.83 132.42-3.358 11.732-18.1 15.521-26.69 6.91-.57-.56-2.29-2.33-4.52-5.03-3.965 17.221-6.201 33.916-8.25 51.31-1.592 15.902-23.083 19.864-30.23 5.57-1.08-2.16-26.19-53.83-9.43-146.02 17.107-94.085 60.623-113.918 138.53-148.33.286 0 3.717-.81 9.21-.81 31.391 0 55.317 27.533 51.64 58.06z"/><path d="m478.31 367.047c-7.117 14.234-28.632 10.394-30.23-5.57-2.055-17.443-4.3-34.179-8.25-51.31-2.23 2.7-3.95 4.47-4.52 5.03-8.597 8.618-23.359 4.805-26.69-6.91-10.819-37.785-40.472-113.075-73.5-135.09-47.437-31.619-43.071-41.385-46.76-43.25-3.68-30.549 20.274-58.06 51.64-58.06 5.911 0 8.668.81 9.21.81 77.62 34.285 121.343 53.803 138.53 148.33 16.76 92.19-8.35 143.86-9.43 146.02z"/></g><path d="m512 103.887c0 39.189-5.361 87.033-41.5 102.62-8.714 3.777-18.709-.835-21.58-9.76-15.51-47.95-44.12-63.88-89.41-84.41-10.195-4.629-12.582-18.02-4.7-25.88 1.072-1.108 19.013-35.728 63.25-53.43 38.64-15.45 54.64-23.38 54.8-23.46 8.384-4.171 18.535-.283 22 8.38 9.035 22.764 17.14 57.251 17.14 85.94z" fill="#efd66c"/><path d="m512 103.887c0 35.34-4.07 83.77-38.52 101.22-1.5-42.64-19.41-68.28-46.35-101.62-7.391-9.16-3.526-25.96 7.45-32.52 1.542-.964 26.129-27.409 65.58-37.7 5.04 16.23 11.84 43.22 11.84 70.62z" fill="#ffbd7b"/><path d="m152.49 112.337c-45.29 20.53-73.9 36.46-89.41 84.41-2.892 8.99-12.937 13.506-21.58 9.76-37.2-16.12-41.5-66.29-41.5-102.62 0-42.59 16.44-84.19 17.14-85.94 3.506-8.735 13.662-12.538 22.02-8.37.14.07 16.14 8 54.78 23.45 38.76 15.51 57.85 44.33 62.96 53.13 8.82 9.117 5.036 21.891-4.41 26.18z" fill="#efd66c"/><path d="m0 103.887c0 35.34 4.07 83.77 38.52 101.22 1.5-42.64 19.41-68.28 46.35-101.62 7.391-9.16 3.526-25.96-7.45-32.52-1.542-.964-26.129-27.409-65.58-37.7-5.04 16.23-11.84 43.22-11.84 70.62z" fill="#ffbd7b"/><path d="m482.88 199.027c25.81-20.86 29.12-63.3 29.12-95.14 0-42.59-16.44-84.19-17.14-85.94-3.464-8.659-13.614-12.553-22-8.38-46.719 23.252-81.45 25.478-112.26 68.19-2.62-1.168-1.92-.851-10.1-4.49-30.47-13.545-68.03-21.97-94.5-1.72-26.463-20.244-64.013-11.833-94.5 1.72-7.878 3.505-7.542 3.35-10.1 4.49-30.831-42.741-65.926-45.104-112.24-68.18-8.356-4.168-18.513-.366-22.02 8.37-.7 1.75-17.14 43.35-17.14 85.94 0 31.84 3.31 74.28 29.12 95.14-17.926 67.936-10.611 137.658 4.57 168.02 7.12 14.241 28.631 10.394 30.23-5.57 3.707-31.462 7.91-51.627 8.39-51.15.63 7.95 2.54 22.22 8.3 37.26-15.164 18.627-25.76 38.115-30.82 52.48-2.26 6.071-2.81 11.57 1.23 17.18 3.01 4.17 7.84 6.64 12.98 6.64 20.255 0 41.353-1.769 61.64-4.17 15.732 11.743 51.127 27.572 71.05 47.48 19.944 19.952 49.325 36.92 60.46 36.92 8.662 0 15.522-7.463 14.88-15.86.44-2.38 3.98-15.14 29.91-25.51 32.58-13.04 53.57-27.35 66.26-45.46 29.855 4.389 56.966 6.337 72.48 6.52 8.379.168 14.996.787 20.3-6.56 4.1-5.693 3.438-11.247 1.23-17.18-5.001-14.199-15.463-33.616-30.82-52.48 8.014-20.926 7.825-36.803 8.44-37.42 3.955 17.152 6.2 33.91 8.25 51.31 1.598 15.96 23.112 19.806 30.23 5.57 15.175-30.35 22.524-99.978 4.57-168.02zm-441.18-34.73c-6.44-12.36-9.7-32.56-9.7-60.41 0-21.66 5.24-43.71 9.5-58.05 40.601 17.842 59.077 20.478 80.08 45.67-35.14 17.24-62.1 36.08-79.88 72.79zm47.61 226.7c12.17-21.01 32.97-45.4 63.57-65.8 28.05-18.7 52.27-14.52 63.83-10.59-4.164 14.801 12.633 36.583 27.24 42.76-.426.479-1.155 1.497-1.24 1.61-13.858 10.386-88.843 27.851-153.4 32.02zm157.77 74.93c-30.419-17.551-21.658-23.782-72.48-53.84 21.924-4.202 58.59-12.343 78.62-22.35 4.026-1.93 1.117-1.928 8.23 1.27 18.286 8.493 49.523 15.775 69.35 19.79-28.749 23.544-64.153 22.929-83.72 55.13zm48.21-151.32c11.56-3.93 35.78-8.11 63.83 10.59 30.6 20.4 51.4 44.79 63.57 65.8-26.17-1.69-56.47-5.74-85.34-11.52-40.99-8.21-63.03-16.73-68.06-20.5-.075-.1-.743-1.051-1.24-1.61 14.766-6.245 31.347-28.165 27.24-42.76zm151.87-57.03c-7.054-3.527-15.653-1.402-20.25 5.1-14.592-38.567-39.793-93.28-74.03-116.1-22.64-15.1-30.41-23.38-32.88-26.6.02-4.13-1.54-8.26-4.69-11.4-10.828-10.846-29.394-2.041-27.71 15.15.94 9.42 7.31 22.66 47.52 49.47 14.07 9.38 27.26 28.05 38.56 48.98-18.074-14.737-45.68-2.012-45.68 21.71 0 15.46 12.54 28 28 28 16.317 0 28.836-13.928 27.97-29.05 11.23 24.33 19.67 48.65 23.95 63.06-.16 2.82-.63 8.35-2.02 15.08-30.369-27.096-63.143-46.562-103.09-40.82-13.154 1.868-24.952 6.359-31.04 10.01 0 0-7.75 5.72-15.77 5.72s-15.77-5.72-15.77-5.72c-9.407-5.582-26.465-10.672-41.8-10.91-36.13-1.079-65.376 17.671-92.33 41.72-1.39-6.72-1.86-12.25-2.02-15.08 4.28-14.42 12.73-38.74 23.95-63.06-.867 15.138 11.666 29.05 27.97 29.05 15.46 0 28-12.54 28-28 0-23.733-27.618-36.438-45.68-21.71 11.3-20.93 24.49-39.6 38.56-48.98 40.21-26.81 46.58-40.05 47.52-49.47 1.678-17.128-16.855-26.022-27.71-15.15-3.15 3.14-4.71 7.27-4.69 11.4-2.47 3.22-10.24 11.5-32.88 26.6-34.265 22.838-59.469 77.617-74.03 116.1-4.596-6.501-13.198-8.626-20.25-5.1-4.66 2.33-9.45 6.23-14.16 15.75 1.395-44.903 13.08-78.752 13.1-78.87 16.9-50.3 48.27-64.23 106.16-89.93 17.459-7.734 42.496-17.661 60.55-10.86 7.54 2.82 10.37 7.7 10.8 8.51-.1-.22-.15-.35-.15-.35.1 0 1.695 6.026 8.92 8.92 8.2 3.28 17.51-.71 20.8-8.92.01-.04 2.7-4.94 9.96-7.9 18.03-7.326 43.544 2.761 61.24 10.6 69.088 30.671 100.067 44.643 114.2 122.22 3.12 17.18 4.63 32.74 5.06 46.58-4.71-9.52-9.5-13.42-14.16-15.75zm23.14-93.28c-17.78-36.71-44.74-55.56-79.89-72.8 20.938-25.125 39.465-27.828 80.11-45.67 4.25 14.3 9.48 36.3 9.48 58.06 0 27.85-3.26 48.05-9.7 60.41z"/></svg>