<svg id="Layer_1" enable-background="new 0 0 512.179 512.179" height="512" viewBox="0 0 512.179 512.179" width="512" xmlns="http://www.w3.org/2000/svg"><path d="m512.095 267.08c0 59.396-32 85.6-32 120 0 30.195-51.7 66.155-81.02 75.03-16.815 5.086-34.545 4.457-44.29-10.16-7.89-11.84-6.48-28.85-.84-52.2-11.473 14.411-32.602 27.33-41.85 27.33-7.378 0-38.435-12.136-56-31.8-19.39 21.7-49.74 30.65-51.6 31.18-3.18.91-6.57.81-9.69-.28-11.855-4.184-26.534-13.836-36.56-26.43 5.64 23.35 7.05 40.36-.84 52.2-9.736 14.604-27.523 15.257-44.29 10.16-29.25-8.854-81.02-44.864-81.02-75.03 0-34.376-32-60.623-32-120 0-62.567 58.413-120.493 74.69-144.88 13.56-20.35 32.8-25.02 46.75-24.34 38.035-43.951 89.817-58.001 134.56-47.35 44.696-10.653 96.487 3.355 134.56 47.35 13.95-.68 33.19 3.99 46.75 24.34 16.193 24.261 74.69 82.207 74.69 144.88z" fill="#ffaa64"/><g fill="#ffbd7b"><path d="m147.285 461.18c-3.82 2.08-8.69 3.59-14.84 3.81-5.272-28.117-12.105-19.141 14.84-3.81z"/><path d="m379.745 464.99c-6.16-.22-11.03-1.73-14.85-3.8 27.022-15.468 20.102-24.206 14.85 3.8z"/><path d="m456.625 147.16c-8.46-2.01-16.73-2.57-23.92-2.3-49.477-43.564-117.243-58.129-176.61-47.35-59.036-10.708-126.844 3.532-176.61 47.35-7.19-.27-15.45.29-23.91 2.3 8.71-11.041 15.518-19.429 19.21-24.96 13.56-20.35 32.8-25.02 46.75-24.34 38.035-43.951 89.817-58.001 134.56-47.35 44.696-10.653 96.487 3.355 134.56 47.35 13.95-.68 33.19 3.99 46.75 24.34 3.983 5.968 11.6 15.261 19.22 24.96z"/></g><path d="m491.835 198.44c-8.55 50.81-29.6 147.66-59.74 153.69-40 8-32-120-32-120s-72 88-144 88-144-88-144-88 8 128-32 120c-30.14-6.03-51.19-102.88-59.74-153.69-51.861 94.106 11.74 143.782 11.74 188.64 0 32.873 64.865 77.94 98.76 77.94 15.1 0 22.89-7.58 26.55-13.07 7.89-11.84 6.48-28.85.84-52.2 10.001 12.563 24.789 22.276 36.56 26.43 3.12 1.09 6.51 1.19 9.69.28 1.86-.53 32.21-9.48 51.6-31.18 19.39 21.7 49.74 30.65 51.6 31.18 3.18.91 6.57.81 9.69-.28 11.855-4.184 26.534-13.836 36.56-26.43-5.64 23.35-7.05 40.36.84 52.2 3.66 5.49 11.45 13.07 26.55 13.07 34.03 0 98.76-45.241 98.76-77.94 0-44.859 63.576-94.581 11.74-188.64z" fill="#f2a661"/><path d="m367.905 344.64c-14.64-95.16-49.14-122.4-64.78-134.06-14.537-110.651-14.599-74.552-32.72-110.66-5.883-11.766-22.735-11.77-28.62 0-14.082 28.163-15.808 13.038-22.24 44.04-3.814 18.365-8.039 48.038-10.48 66.62-41.055 30.62-56.82 82.208-64.78 134.06-3.84 24.91 3.85 47.03 22.22 63.98 12.98 11.98 26.77 17.02 28.3 17.56 3.12 1.09 6.51 1.19 9.69.28 1.86-.53 32.21-9.48 51.6-31.18 19.39 21.7 49.74 30.65 51.6 31.18 3.331.948 6.691.772 9.69-.28 1.53-.54 15.32-5.58 28.3-17.56 18.37-16.95 26.06-39.07 22.22-63.98zm-56.53 49.23c-11.71-4.53-39.28-17.48-39.28-38.79 0-18.325-26.214-22.221-31.36-4.49-.42 1.42-.64 2.93-.64 4.49 0 21.32-27.6 34.27-39.28 38.79-17.847-9.242-28.014-24.077-24.91-44.36 12.93-84.01 41.1-104.95 53.12-113.9 5.657-4.191 10.046-7.45 10.95-14.54 4.05-32.3 10.12-71.02 13.3-80.65.96-1.06 1.9-2.18 2.82-3.34.92 1.16 1.86 2.28 2.82 3.34 3.18 9.63 9.25 48.35 13.3 80.65.903 7.083 5.293 10.35 10.95 14.54 12.02 8.95 40.19 29.89 53.12 113.9 3.104 20.179-7.034 35.095-24.91 44.36z" fill="#f2f2f2"/><path d="m311.375 393.87c-11.71-4.53-39.28-17.48-39.28-38.79 0-8.84-7.16-16-16-16s-16 7.16-16 16c0 21.32-27.6 34.27-39.28 38.79-17.884-9.261-28.013-24.111-24.91-44.36 12.93-84.01 41.1-104.95 53.12-113.9 5.657-4.191 10.046-7.45 10.95-14.54 4.05-32.3 10.12-71.02 13.3-80.65.96-1.06 1.9-2.18 2.82-3.34.92 1.16 1.86 2.28 2.82 3.34 3.18 9.63 9.25 48.35 13.3 80.65.903 7.083 5.293 10.35 10.95 14.54 12.02 8.95 40.19 29.89 53.12 113.9 3.104 20.179-7.034 35.095-24.91 44.36z" fill="#f2f2f2"/><path d="m367.905 344.64c-.64-4.17-1.32-8.21-2.04-12.12-4.98 9.42-13.29 23.64-29.77 35.61-42.245 30.645-64.337-6.418-80-56-15.598 49.376-37.664 86.712-80 56-16.48-11.97-24.79-26.19-29.77-35.61-.72 3.91-1.4 7.95-2.04 12.12-3.84 24.91 3.85 47.03 22.22 63.98 12.98 11.98 26.77 17.02 28.3 17.56 3.12 1.09 6.51 1.19 9.69.28 1.86-.53 32.21-9.48 51.6-31.18 19.39 21.7 49.74 30.65 51.6 31.18 3.18.91 6.57.81 9.69-.28 1.53-.54 15.32-5.58 28.3-17.56 18.37-16.95 26.06-39.07 22.22-63.98z" fill="#ece2e2"/><path d="m311.615 310.96c-.42 1.68-10.8 41.43-51.64 51.64-2.539.64-5.22.64-7.76 0-40.84-10.21-51.22-49.96-51.64-51.64-2.435-9.662 4.339-23.329 12.21-31.2 16.933-16.933 69.652-16.968 86.62 0 9.221 9.22 14.347 22.721 12.21 31.2z" fill="#999"/><path d="m437.408 122.2c-13.564-20.348-32.799-25.022-46.749-24.343-38.532-44.515-90.585-57.837-134.564-47.347-43.779-10.442-95.87 2.646-134.563 47.346-13.943-.677-33.185 3.998-46.749 24.343-16.177 24.264-74.688 82.186-74.688 144.876 0 59.379 32 85.61 32 120 0 17.079 16.101 34.199 29.606 45.553 27.343 22.987 76.205 48.577 95.706 19.322 7.892-11.837 6.477-28.848.837-52.198 9.891 12.438 24.762 22.295 36.564 26.424 3.12 1.092 6.502 1.192 9.682.283 1.869-.534 32.211-9.476 51.604-31.178 16.883 18.893 47.821 31.794 56 31.794 9.856 0 30.898-13.551 41.851-27.323-5.64 23.35-7.055 40.361.837 52.198 9.726 14.589 27.445 15.264 44.295 10.162 29.277-8.864 81.018-44.869 81.018-75.037 0-34.377 32-60.61 32-120 0-62.684-58.459-120.536-74.687-144.875zm-181.313 208.159c-14.537-5.355-21.099-18.192-23.442-24.167.447-.955 1.22-2.217 2.548-3.591 2.793-1.798 12.83-3.499 20.895-3.526 7.894 0 18.105 1.733 20.895 3.526 1.328 1.374 2.101 2.636 2.548 3.591-2.345 5.975-8.906 18.812-23.444 24.167zm55.278 63.512c-11.116-4.305-36.506-16.197-39.053-35.625 30.635-14.134 38.923-45.788 39.298-47.29 2.428-9.709-4.368-23.353-12.209-31.194-16.903-16.903-69.628-16.999-86.627 0-9.353 9.352-14.317 22.762-12.209 31.194.375 1.502 8.663 33.156 39.298 47.29-2.549 19.441-27.97 31.335-39.055 35.628-11.927-6.195-22.165-16.184-24.781-29.598.211-2.849-.193-7.053-.631-9.893.087-1.591.25-3.214.505-4.875 12.925-84.006 41.093-104.953 53.121-113.897 5.659-4.208 10.053-7.464 10.94-14.542 4.058-32.299 10.128-71.019 13.31-80.653.956-1.06 1.896-2.178 2.815-3.333.919 1.155 1.859 2.274 2.815 3.333 3.181 9.631 9.251 48.352 13.31 80.653.887 7.074 5.287 10.338 10.94 14.542 12.028 8.944 40.196 29.891 53.121 113.897.255 1.658.42 3.277.507 4.865-.438 2.834-.846 7.072-.632 9.916-2.61 13.351-12.798 23.36-24.783 29.582zm136.722-7.056c-1.022 4.975-14.283 20.963-36.545 34.454-7.299 4.423-21.656 11.898-30.19 11.801-2.174-20.775 23.321-82.354 33.426-143.706 1.1-2.565 1.481-5.271 1.215-7.89 5.268-36.795 4.945-74.757-9.136-108.553-3.398-8.156-12.765-12.015-20.924-8.615-8.156 3.399-12.014 12.766-8.615 20.923 11.595 27.827 11.556 60.784 6.705 93.475-4.757 6.695-14.765 17.329-23.635 28.645-16.748-65.443-43.904-86.805-57.267-96.767-2.481-18.822-6.627-48.03-10.479-66.618-6.396-30.85-8.044-15.764-22.243-44.044-5.882-11.766-22.732-11.781-28.621 0-14.081 28.16-15.825 13.086-22.243 44.044-3.852 18.588-7.998 47.794-10.479 66.618-13.363 9.962-40.519 31.324-57.267 96.767-9.02-11.507-18.806-21.849-23.635-28.645-4.851-32.69-4.89-65.647 6.705-93.475 3.398-8.157-.459-17.524-8.615-20.923-8.162-3.399-17.525.459-20.924 8.615-14.081 33.796-14.405 71.758-9.136 108.553-.266 2.619.115 5.325 1.215 7.89 10.058 61.071 35.589 123.032 33.426 143.706-8.531.097-22.885-7.373-30.19-11.801-22.262-13.491-35.522-29.479-36.545-34.454-.129-44.625-32-68.043-32-119.74 0-49.541 52.994-102.647 69.313-127.125 8.12-12.18 18.487-10.55 21.743-9.653 6.527 2.406 13.294.104 17.574-5.399 47.949-61.653 107.782-43.449 110.392-42.616 2.717.888 5.835 1.057 8.831.307 43.973-10.966 83.575 6.386 111.515 42.309 4.282 5.504 11.048 7.804 17.574 5.399 3.256-.896 13.621-2.528 21.743 9.653 16.262 24.393 69.313 77.566 69.313 127.125-.001 51.77-31.871 75.01-32.001 119.74z"/><circle cx="172.095" cy="199.075" r="20"/><circle cx="340.095" cy="199.075" r="20"/></svg>