<svg id="Layer_1" enable-background="new 0 0 512 512" height="512" viewBox="0 0 512 512" width="512" xmlns="http://www.w3.org/2000/svg"><path d="m503.74 285.145c2.32 12.686-10.687 22.869-22.5 17.36-4.63 46.494-29.972 47.215-38.55 34.38-5.38-8.065-11.018-23.321-16.5-37.72 1.21 11.55 3.87 23.06 7.99 34.31 6.98 19 8.83 37.05 5.51 53.67-2.514 12.528-18.01 17.182-27 8.17l-9.78-9.77c-5.65 20.31-17.56 45.11-42.68 60.18-7.319 4.386-16.875 2.302-21.63-5.01-22.377 19.572-67.37 47.972-94.72 54.81-10.091 2.522-19.88-5.114-19.88-15.52 0-5.32-7.06-16.37-22.83-29.05-9.43-7.58-18.65-13.19-25.09-16.55-.3.87-.6 1.76-.9 2.66-3.239 9.676-14.6 13.939-23.41 8.66-25.12-15.07-37.03-39.87-42.68-60.18l-9.78 9.77c-8.989 9.011-24.486 4.36-27-8.17-3.32-16.62-1.47-34.67 5.51-53.68 4.12-11.24 6.78-22.75 7.99-34.3-5.157 13.544-11.196 29.769-16.5 37.72-8.493 12.707-33.845 12.466-38.54-34.4-11.992 5.552-24.809-4.77-22.51-17.34 3.555-19.555-8.26-50.58-8.26-77.14 0-51.435 54.215-85.353 103.97-98.16-8.527-4.972-10.526-16.261-4.46-23.84 23.7-29.61 77-34.73 122.6-32.86-.82-3.6-2.31-8.55-4.97-15.2-4.831-12.087 6.095-24.626 18.74-21.46 21.67 5.41 42.25 21.91 57.07 36.57 43.05-1.4 96.11 3.66 119.54 32.95 6.071 7.585 4.06 18.872-4.46 23.84 49.83 12.826 103.97 46.768 103.97 98.16 0 26.358-11.804 57.648-8.26 77.14z" fill="#f2f2f2"/><path d="m503.25 281.375c-16.87-57.91-66.33-143.26-211.26-146.25-12.39-14.72 4.01-31.12 4.01-31.12s-80-8-80 16c0 6.18-2.65 11.3-6.6 15.49-136.75 6.84-184.2 89.41-200.65 145.88 1.617-19.904-8.75-48.357-8.75-73.37 0-51.435 54.215-85.353 103.97-98.16-8.527-4.972-10.526-16.261-4.46-23.84 23.7-29.61 77-34.73 122.6-32.86-.82-3.6-2.31-8.55-4.97-15.2-4.831-12.087 6.095-24.626 18.74-21.46 21.67 5.41 42.25 21.91 57.07 36.57 43.05-1.4 96.11 3.66 119.54 32.95 6.071 7.585 4.06 18.872-4.46 23.84 49.83 12.826 103.97 46.768 103.97 98.16 0 24.899-10.365 53.49-8.75 73.37z" fill="#f9f9f9"/><path d="m312 296.005c.52-8.037 32-8 56 8 0-24-40.902-36.451-48-40 8-8 32 0 48 8 0-16-16-48-40-48 24-8 56 16 56 16s-10.531-31.161-40-48c-56-32-88-16-88-16s-32-16-88 16c-29.469 16.839-40 48-40 48s32-24 56-16c-24 0-40 32-40 48 16-8 40-16 48-8-7.098 3.549-48 16-48 40 24-16 55.48-16.037 56-8 .792 12.256-48 40-72 24 8 24 32 16 64 16-24 8-40 32-40 40 32-24 104 0 104 0s72-24 104 0c0-8-16-32-40-40 32 0 56 8 64-16-24 16-72.792-11.744-72-24z" fill="#ece2e2"/><path d="m296 324.005c0 15.55-13.61 52-40 52s-40-36.45-40-52c0-19.85 17.94-36 40-36s40 16.15 40 36z" fill="#999"/><circle cx="188" cy="252.005" r="20"/><path d="m512 208.005c0-51.44-54.203-85.315-103.967-98.163 8.472-4.919 10.554-16.217 4.461-23.832-23.438-29.296-76.493-34.351-119.548-32.958-14.814-14.657-35.394-31.154-57.067-36.57-12.643-3.157-23.573 9.363-18.735 21.464 2.661 6.653 4.145 11.598 4.97 15.202-45.603-1.878-98.908 3.246-122.606 32.859-6.098 7.622-4.008 18.918 4.459 23.834-49.667 12.824-103.967 46.668-103.967 98.164 0 26.419 11.804 57.631 8.258 77.139-2.313 12.726 10.73 22.853 22.514 17.336 1.773 17.754 9.317 43.199 26.805 41.447 12.109-1.197 15.7-12.237 28.237-44.761-1.21 11.551-3.869 23.063-7.996 34.304-6.978 19.001-8.83 37.059-5.507 53.674 2.501 12.503 17.974 17.203 27.003 8.175l9.777-9.777c5.648 20.316 17.561 45.113 42.678 60.184 8.711 5.229 20.159 1.099 23.41-8.66.302-.904.602-1.787.903-2.657 23.022 11.997 47.918 34.351 47.918 45.596 0 10.395 9.781 18.046 19.881 15.522 27.543-6.887 72.444-35.335 94.724-54.808 4.776 7.339 14.353 9.372 21.627 5.005 25.117-15.07 37.029-39.867 42.678-60.184l9.777 9.777c9.01 9.014 24.497 4.35 27.003-8.175 3.323-16.615 1.471-34.673-5.507-53.673-4.127-11.242-6.786-22.754-7.996-34.306 12.418 32.201 16.147 43.566 28.237 44.762 17.511 1.754 25.051-23.727 26.819-41.419 11.798 5.497 24.81-4.653 22.499-17.364-3.542-19.482 8.258-50.732 8.258-77.137zm-261.505 251.218c-11.293-21.897-39.743-43.215-61.197-53.973 10.702-16.744 19.305-14.601 22.821-13.723 15.481 3.868 31.094 2.905 43.882-6.394 9.709 7.06 24.063 11.346 43.88 6.394 3.778-.944 13.433-3.351 25.256 17.805-15.457 16.737-51.89 39.766-74.642 49.891zm5.505-116.427c-3.709-4.204-8-14.384-8-18.791 0-1.222 3.022-4 8-4s8 2.778 8 4c0 4.407-4.291 14.587-8 18.791zm218.895-98.511c-11.027-10.229-28.842-.909-26.735 13.973 7.948 55.637-15.491-90.253-104.159-90.253-8.837 0-16 7.163-16 16s7.163 16 16 16c24.832 0 42.479 19.891 55.339 41.018-.175.49-.33.991-.459 1.506-8.323 33.194-7.099 65.498 3.671 97.446-10.38-9.114-26.551-1.675-26.551 11.979-.002.376-.438 30.215-16.559 51.915-.876-3.277-2.749-6.145-5.296-8.235-17.306-32.155-40.453-40.543-62.025-35.151-4.117 1.03-7.448 1.292-10.153 1.073 9.296-11.945 14.034-28.379 14.034-37.55 0-19.851-17.944-36-40-36s-40 16.149-40 36c0 9.17 4.737 25.604 14.032 37.549-2.704.219-6.035-.042-10.152-1.071-11.711-2.927-34.26-3.973-53.681 21.923-5.173 6.897-9.424 14.771-12.899 22.464-16.861-21.77-17.299-52.523-17.301-52.864 0-13.704-16.205-21.107-26.551-12.028 10.54-31.267 11.994-64.162 4.173-95.442-.419-1.674-.597-2.49-.961-3.512 12.864-21.13 30.507-41.018 55.339-41.018 8.837 0 16-7.163 16-16s-7.163-16-16-16c-56.704 0-86.757 57.277-105.425 102.899.413-5.723 1.045-11.207 1.274-12.749 2.028-14.919-15.864-23.989-26.744-13.868-2.175-11.749-5.106-25.485-5.106-36.284 0-44.136 78.952-79.132 142.233-72.098 9.491 1.047 17.767-6.384 17.767-15.902 0-13.214-13.229-19.002-19.587-21.783-5.172-2.263-12-4.761-20.329-7.439 20.197-5.589 48.827-7.39 82.852-4.842 12.182.899 19.553-11.095 20.146-23.701 18.238 14.149 18.939 19.981 26.706 22.37 8.01 2.47 42.519-3.47 77.93 6.238-20.851 6.715-39.718 13.233-39.718 29.157 0 9.528 8.286 16.95 17.767 15.902 63.717-7.085 142.233 28.289 142.233 72.098 0 10.5-2.628 22.898-5.105 36.28z"/><circle cx="324" cy="252.005" r="20"/></svg>