<svg id="Layer_1" enable-background="new 0 0 512.048 512.048" height="512" viewBox="0 0 512.048 512.048" width="512" xmlns="http://www.w3.org/2000/svg"><path d="m234.099 72.045c-130.832-73.544-122.66-69.036-124.208-69.641-26.115-10.185-52.628 13.913-44.987 40.872l43.186 152.361c3.34 11.786 18.234 15.632 26.843 6.813l102.775-105.281c7.343-7.523 5.551-19.976-3.609-25.124z" fill="#e0e0e0"/><path d="m437.313 8.902c-11.073-10.06-27.255-11.127-37.181-5.539l-122.183 68.682c-9.164 5.151-10.95 17.604-3.609 25.124l102.776 105.281c8.563 8.773 23.486 5.031 26.843-6.813l43.186-152.361c3.536-12.481-.232-25.652-9.832-34.374z" fill="#e0e0e0"/><path d="m338.848 37.812-60.899 34.233c-9.164 5.151-10.95 17.604-3.609 25.124l102.776 105.281c8.581 8.791 23.494 5.005 26.843-6.813l32.34-114.099c-25.002-26.194-61.634-37.875-97.451-43.726z" fill="#d3d1d1"/><path d="m75.749 81.538 32.341 114.099c3.34 11.786 18.234 15.632 26.843 6.813l102.775-105.281c7.343-7.522 5.551-19.975-3.609-25.124l-60.899-34.233c-35.791 5.846-72.418 17.512-97.451 43.726z" fill="#d3d1d1"/><path d="m256.024 298.489c-88.418 0-160.353 71.934-160.353 160.353v37.207c0 8.836 7.164 16 16 16h288.705c8.836 0 16-7.164 16-16v-37.207c0-88.419-71.934-160.353-160.352-160.353z" fill="#e0e0e0"/><path d="m416.131 450.037c-4.586-84.34-74.643-151.549-160.108-151.549s-155.52 67.21-160.107 151.549c94.212 60.434 223.07 62.316 320.215 0z" fill="#d3d1d1"/><path d="m406.044 402.223c-22.932-60.56-81.524-103.735-150.02-103.735s-127.088 43.175-150.02 103.735c86.06 66.906 213.427 67.336 300.04 0z" fill="#999"/><path d="m408.828 103.931c-27.771-27.946-76.326-40.962-152.804-40.962s-125.032 13.016-152.804 40.962c-34.57 34.786-30.674 85.269-30.674 136.141 0 51.886 42.375 95.343 79.771 123.586 15.636 37.21 55.466 63.727 102.021 63.727 44.983 0 83.692-24.756 100.359-59.996 42.224-30.763 84.804-75.323 84.804-127.317 0-50.578 3.925-101.325-30.673-136.141z" fill="#e0e0e0"/><path d="m354.697 304.475c-16.667 35.24-55.375 59.996-100.359 59.996-46.555 0-86.385-26.517-102.021-63.727-35.12-26.524-74.628-66.466-79.308-114.206-.917 17.206-.463 35.135-.463 53.533 0 51.886 42.375 95.343 79.771 123.586 15.636 37.21 55.466 63.727 102.021 63.727 44.983 0 83.692-24.756 100.359-59.996 42.224-30.763 84.804-75.323 84.804-127.317 0-18.5.455-36.332-.464-53.555-4.711 48.165-45.058 89.383-84.34 117.959z" fill="#d3d1d1"/><path d="m324.328 280.92c-37.826-30.052-98.773-30.059-136.608 0-38.284 30.416-38.285 79.946 0 110.362 37.826 30.052 98.773 30.059 136.608 0 38.284-30.415 38.285-79.945 0-110.362z" fill="#f9f9f9"/><path d="m511.951 225.112c-.844-8.797-8.666-15.248-17.454-14.399l-54.887 5.264c.088-33.535-1.064-65.319-15.467-91.548l23.002-81.153c7.643-26.965-18.882-51.057-44.987-40.871-1.628.636 5.263-3.138-110.043 61.678-22.684-1.487-49.476-1.489-72.18 0-115.327-64.828-108.416-61.043-110.044-61.679-26.115-10.185-52.628 13.913-44.987 40.872l23.002 81.152c-14.404 26.229-15.555 58.013-15.467 91.548l-54.887-5.264c-8.798-.848-16.61 5.604-17.454 14.399-.844 8.796 5.604 16.611 14.399 17.454l58.398 5.6c1.41 16.653 7.074 32.369 15.346 46.911l-50.907 23.047c-15.602 7.063-10.576 30.58 6.608 30.58 4.754 0 2.291.518 63.11-27.018 9.236 10.909 19.567 20.874 30.006 29.753-25.709 28.449-41.388 66.127-41.388 107.401v37.207c0 8.836 7.163 16 16 16h288.705c8.837 0 16-7.164 16-16v-37.207c0-41.274-15.678-78.952-41.388-107.401 10.439-8.879 20.77-18.844 30.006-29.753l56.521 25.589c8.047 3.646 17.53.073 21.175-7.977s.073-17.53-7.978-21.175l-50.907-23.047c8.272-14.542 13.937-30.258 15.346-46.911l58.398-5.6c8.799-.842 15.246-8.656 14.403-17.452zm-97.56-193.056c1.031-.104 2.393.984 1.966 2.493l-17.255 60.877c-14-10.717-32.04-18.675-54.701-24.027zm-318.139.531c1.28-1.165-4.647-3.932 71.394 38.813-22.661 5.352-40.701 13.31-54.701 24.027-18.893-66.659-17.986-61.665-16.693-62.84zm288.124 447.461h-256.705c0-24.501-3.428-64.412 30.715-104.416 42.024 70.016 153.353 68.581 193.248-2.319 20.346 22.72 32.742 52.701 32.742 85.529zm10.193-198.207-26.571-12.03c-8.047-3.646-17.529-.074-21.175 7.977-3.645 8.05-.073 17.53 7.978 21.175l19.771 8.951c-3.939 4.211-8.326 8.531-13.195 12.95-8.043-14.279-29.942-8.595-29.942 7.835 0 36.771-34.586 66.686-77.099 66.686-42.512 0-77.098-29.915-77.098-66.686 0-15.134-19.306-21.874-28.659-9.759-4.043-3.754-7.724-7.431-11.092-11.032l19.758-8.945c8.051-3.645 11.622-13.125 7.978-21.175-3.645-8.049-13.124-11.621-21.175-7.977l-26.565 12.027c-6.841-11.451-10.38-21.706-11.927-30.54l33.163 3.18c8.796.843 16.61-5.603 17.454-14.399s-5.604-16.611-14.399-17.454l-37.326-3.58c-.177-38.597.781-71.74 21.47-92.558 21.076-21.208 63.634-31.519 130.105-31.519s109.029 10.31 130.105 31.519c20.688 20.818 21.646 53.961 21.47 92.558l-37.326 3.58c-8.796.843-15.243 8.658-14.399 17.454s8.657 15.243 17.454 14.399l33.17-3.181c-1.547 8.835-5.086 19.092-11.928 30.544z"/><path d="m291.057 332.231c-10.211 0-18.518-8.307-18.518-18.518v-2.853l8.549-12.365c6.203-8.971-.219-21.218-11.126-21.218h-27.877c-10.907 0-17.328 12.246-11.126 21.218 10.614 15.352 9.219 12.614 9.219 15.218 0 10.211-8.308 18.518-18.519 18.518-8.837 0-16 7.164-16 16s7.163 16 16 16c13.429 0 25.641-5.277 34.699-13.854 9.058 8.577 21.27 13.854 34.698 13.854 8.837 0 16-7.164 16-16s-7.162-16-15.999-16z"/><circle cx="212.77" cy="226.639" r="19.841"/><circle cx="299.277" cy="226.639" r="19.841"/></svg>