<svg id="Layer_1" enable-background="new 0 0 512.007 512.007" height="512" viewBox="0 0 512.007 512.007" width="512" xmlns="http://www.w3.org/2000/svg"><path d="m231.453 76.853-114.376-70.176c-26.793-16.44-60.542 5.924-55.912 36.973l22.362 149.94c1.825 12.237 16.342 17.851 25.927 10.047l123.733-100.74c8.518-6.933 7.687-20.264-1.734-26.044z" fill="#c69a85"/><path d="m395.795 6.606-115.201 70.222c-9.395 5.728-10.359 19.081-1.773 26.07l123.733 100.74c9.527 7.759 24.027 2.273 25.914-9.968l23.119-149.85c4.798-31.101-28.952-53.574-55.792-37.214z" fill="#c69a85"/><g fill="#dfb7a4"><path d="m428.468 193.669 9.729-63.059c-25.036-35.439-62.907-66.876-105.397-85.605l-52.207 31.823c-9.395 5.728-10.359 19.081-1.773 26.07l123.733 100.74c9.528 7.759 24.027 2.272 25.915-9.969z"/><path d="m74.079 130.24 9.448 63.35c1.826 12.245 16.322 17.868 25.927 10.047l123.733-100.74c8.517-6.934 7.686-20.265-1.734-26.045l-52.048-31.934c-42.808 18.824-80.49 50.318-105.326 85.322z"/><path d="m256.004 297.337c-88.418 0-160.353 71.934-160.353 160.353v37.207c0 8.836 7.164 16 16 16h288.705c8.836 0 16-7.164 16-16v-37.207c0-88.419-71.934-160.353-160.352-160.353z"/></g><path d="m416.111 448.886c-4.586-84.34-74.643-151.549-160.108-151.549s-155.52 67.21-160.107 151.549c94.212 60.434 223.07 62.316 320.215 0z" fill="#d3d1d1"/><path d="m406.024 401.072c-22.932-60.56-81.524-103.735-150.02-103.735s-127.088 43.175-150.02 103.735c119.393 92.821 180.479 92.951 300.04 0z" fill="#e0e0e0"/><path d="m392.253 113.157c-75.453-68.492-197.027-68.509-272.499 0-76.367 69.321-76.368 182.206 0 251.527 75.453 68.492 197.027 68.509 272.499 0 76.368-69.32 76.369-182.205 0-251.527z" fill="#e0c8bf"/><path d="m392.253 297.454c-110.994 100.753-297.724 44.748-326.261-92.149-22.595 108.393 67.306 210.718 190.012 210.718 119.416 0 213.242-99.278 190.012-210.718-7.246 34.758-25.707 66.681-53.763 92.149z" fill="#dfb7a4"/><path d="m322.967 268.05c-37.083-29.462-96.833-29.469-133.926 0-37.532 29.819-37.533 78.376 0 108.195 37.083 29.462 96.833 29.469 133.926 0 37.532-29.818 37.533-78.376 0-108.195z" fill="#e8d9d4"/><circle cx="188.737" cy="219.08" r="19.841"/><circle cx="323.271" cy="219.08" r="19.841"/><path d="m511.573 229.637c-2.037-8.6-10.662-13.923-19.257-11.882l-43.209 10.234c-1.419-21.521-7.011-42.298-16.44-61.543l18.919-122.626c4.796-31.081-28.932-53.584-55.792-37.213l-97.501 59.433c-27.634-5.612-56.73-5.642-84.49-.017l-96.725-59.346c-26.8-16.439-60.543 5.925-55.913 36.974l18.282 122.582c-9.492 19.306-15.122 40.156-16.547 61.757l-43.209-10.234c-8.598-2.037-17.22 3.283-19.257 11.882-2.037 8.599 3.283 17.22 11.882 19.257l51.707 12.247c2.33 17.179 7.361 33.778 14.896 49.385l-38.682 9.129c-8.6 2.03-13.927 10.647-11.897 19.247 1.738 7.365 8.307 12.329 15.559 12.329 2.604 0-.563.572 52.599-11.975 7.792 10.333 16.754 19.891 26.788 28.555-31.683 46.628-27.636 86.709-27.636 127.085 0 8.837 7.164 16 16 16h288.705c8.837 0 16-7.163 16-16 0-40.936 4.014-80.506-27.635-127.085 9.856-8.51 18.854-18.034 26.788-28.555l48.912 11.543c8.579 2.028 17.213-3.281 19.247-11.897 2.029-8.6-3.297-17.217-11.897-19.247l-38.681-9.129c7.534-15.607 12.566-32.207 14.896-49.386l51.707-12.247c8.598-2.038 13.917-10.659 11.881-19.257zm-99.122-195.707c3.665-2.234 8.157.815 7.511 5.011l-13.644 88.432c-18.475-20.778-41.512-37.327-67.451-48.588zm-319.635 5c-.519-3.472 2.416-5.77 4.919-5.77 1.947 0-2.579-2.39 75.563 45.554-25.339 10.974-48.497 27.259-67.338 48.351zm291.54 439.966h-256.705c0-25.045-2.474-56.303 21.508-92.25 64.405 39.183 149.241 39.21 213.689 0 23.393 35.065 21.508 64.866 21.508 92.25zm16.538-175.968-20.839-4.918c-8.59-2.03-17.217 3.296-19.247 11.897-2.029 8.6 3.297 17.217 11.897 19.247l7.974 1.882c-64.809 70.702-184.636 70.597-249.349 0l7.974-1.882c8.6-2.03 13.927-10.647 11.897-19.247-2.03-8.601-10.648-13.931-19.248-11.897l-20.838 4.918c-5.813-10.582-10.231-21.886-13.039-33.722l38.465 9.111c8.618 2.042 17.225-3.304 19.257-11.882 2.037-8.599-3.283-17.22-11.882-19.257l-49.34-11.687c1.577-60.786 44.96-112.443 105.257-132.612v54.71c0 8.837 7.164 16 16 16s16-7.163 16-16v-62.144c16-2.167 32.325-2.17 48.344 0v62.145c0 8.837 7.163 16 16 16s16-7.163 16-16v-54.71c60.297 20.168 103.68 71.825 105.257 132.612l-49.34 11.687c-8.599 2.037-13.918 10.658-11.882 19.257 2.041 8.618 10.68 13.916 19.257 11.882l38.465-9.111c-2.809 11.835-7.227 23.139-13.04 33.721z"/><path d="m326.413 297.152c-8.837 0-16 7.163-16 16 0 6.619-5.386 12.005-12.005 12.005-14.183 0-25.737-11.449-25.92-25.589l8.58-12.41c6.203-8.972-.219-21.218-11.126-21.218h-27.877c-10.907 0-17.328 12.246-11.126 21.218l8.58 12.41c-.183 14.141-11.737 25.589-25.92 25.589-6.62 0-12.005-5.386-12.005-12.005 0-8.837-7.164-16-16-16s-16 7.163-16 16c0 24.265 19.741 44.005 44.005 44.005 16.731 0 31.82-7.138 42.404-18.519 10.584 11.381 25.673 18.519 42.404 18.519 24.265 0 44.005-19.74 44.005-44.005.001-8.837-7.162-16-15.999-16z"/></svg>