<svg id="Layer_1" enable-background="new 0 0 512 512" height="512" viewBox="0 0 512 512" width="512" xmlns="http://www.w3.org/2000/svg"><path d="m512 92.776c0 51.508-5.77 148.294-46 180.49-26.11 20.88-46.59 29.479-59.38 33.03-4.24 33.37-17.44 59.92-27.31 69.79-6.22 6.22-20.94 28.16-28.13 49.74-8.59 25.78-20.55 50.95-63.18 50.95-14.02 0-24.48-4.56-32-11.26-7.52 6.7-17.98 11.26-32 11.26-42.63 0-54.59-25.17-63.18-50.95-6.55-19.645-20.858-42.466-28.13-49.74-9.87-9.87-23.07-36.42-27.31-69.79-12.79-3.55-33.27-12.15-59.38-33.03-40.231-32.196-46-128.982-46-180.49 0-21.16 10.39-41.02 20.69-51.32 39.186-39.187 130.506 86.98 170.31 114.52 28.26-9.442 100.767-9.669 130 0 39.728-27.488 131.136-153.694 170.31-114.52 10.3 10.3 20.69 30.16 20.69 51.32z" fill="#c79a83"/><path d="m154.45 277.231c7.389-6.754 42.234-23.811 53.55 2.045 14.779 33.77-53.55 58.742-60.939 38.48-7.39-20.262 0-33.771 7.389-40.525z" fill="#ffdfba"/><path d="m256 148.796v-.02c.153 0 .108-.008 0 .02z" fill="#b9dcff"/><g fill="#ffdfba"><path d="m32 63.276c6.644-16.609 120 96 104 120s-1.352 80-48 80c-48 0-88-120-56-200z"/><path d="m357.55 278.481c-7.389-6.754-42.234-23.811-53.55 2.045-14.779 33.77 53.55 58.742 60.939 38.48 7.39-20.262 0-33.771-7.389-40.525z"/><path d="m280 328.526c-8-40 16-40 32-104 10.209-40.81-16.677-66.065-56-74.48v-1.25c-9.44 2.02-42.52 10.67-54.14 37.23-.101 0-7.6 14.306-1.86 37.25 16 64 40 64 32 104-7.633 38.152-73.467 32.641-72.61 94.5 9.18 24.788 17.425 55 64.61 55 14.02 0 24.48-4.56 32-11.26v1.25c7.52 6.7 17.98 11.26 32 11.26 42.63 0 54.59-25.17 63.18-50.95.45-1.35.93-2.7 1.43-4.05.857-61.864-64.976-56.345-72.61-94.5z"/></g><path d="m304 396.776c0 16.43-20.27 48-48 48s-48-31.57-48-48c0-18.143 21.818-40 48-40 26.181 0 48 21.847 48 40z" fill="#818182"/><path d="m480 64.526c-6.644-16.609-120 96-104 120s1.352 80 48 80c48 0 88-120 56-200z" fill="#ffdfba"/><circle cx="176" cy="316.771" r="24"/><path d="m491.31 41.456c-39.186-39.187-130.506 86.98-170.31 114.52-28.75-9.509-101.164-9.635-130 0-39.728-27.488-131.136-153.694-170.31-114.52-10.3 10.3-20.69 30.16-20.69 51.32 0 51.508 5.77 148.294 46 180.49 26.11 20.88 46.59 29.479 59.38 33.03 4.24 33.37 17.44 59.92 27.31 69.79 6.783 6.784 17.538 24.772 22.01 34.66 12.684 26.845 15.228 66.03 69.3 66.03 14.02 0 24.48-4.56 32-11.26 7.52 6.7 17.98 11.26 32 11.26 42.63 0 54.59-25.17 63.18-50.95 7.19-21.58 21.91-43.52 28.13-49.74 9.87-9.87 23.07-36.42 27.31-69.79 12.79-3.55 33.27-12.15 59.38-33.03 40.231-32.196 46-128.983 46-180.49 0-21.16-10.39-41.02-20.69-51.32zm-235.31 371.32c-5.64 0-13.66-9.96-15.67-15.47 1.99-3.14 8.29-8.53 15.67-8.53s13.68 5.39 15.67 8.53c-2.01 5.51-10.03 15.47-15.67 15.47zm190-164.5c-16.36 13.09-29.54 20.17-38.83 24.01-5.22-40.26-33.36-75.87-34.68-77.51-5.52-6.9-15.59-8.02-22.49-2.5s-8.01 15.59-2.49 22.49c7.92 9.91 28.49 41.8 28.49 70.01 0 37.02-15.22 64.59-19.31 68.68-9.15 9.14-26.87 35.25-35.87 62.26-7.32 21.96-11.48 29.06-32.82 29.06-7.49 0-10.72-2.52-12.61-5.31 17.29-9.69 28.61-30.42 28.61-42.69 0-18.143-21.818-40-48-40-26.181 0-48 21.848-48 40 0 12.27 11.32 33 28.61 42.69-1.89 2.79-5.12 5.31-12.61 5.31-34.363 0-22.749-19.614-49.48-64.86-7.1-12-14.36-21.61-19.21-26.46-4.09-4.09-19.31-31.66-19.31-68.68 0-33.57 27.91-69.26 28.5-70.02 5.51-6.9 4.39-16.96-2.5-22.48-6.91-5.52-16.97-4.4-22.49 2.5-1.32 1.64-29.46 37.25-34.68 77.51-9.29-3.84-22.47-10.92-38.83-24.01-20.66-16.52-34-77.56-34-155.5 0-9.69 4.56-20.46 9.48-26.63 25.169 7.709 89.579 80.098 119.35 106.44 12.31 10.87 25.41 20.96 38.33 14.5 16.226-8.226 97.112-8.295 113.68 0 12.92 6.46 26.02-3.63 38.33-14.5 30.008-26.551 94.186-98.732 119.35-106.44 4.92 6.17 9.48 16.94 9.48 26.63 0 77.94-13.34 138.98-34 155.5z"/><circle cx="336" cy="316.771" r="24"/></svg>