<svg id="Layer_1" enable-background="new 0 0 512.024 512.024" height="512" viewBox="0 0 512.024 512.024" width="512" xmlns="http://www.w3.org/2000/svg"><path d="m256.007 298.465c-88.418 0-160.353 71.934-160.353 160.353v37.207c0 8.836 7.164 16 16 16h288.706c8.836 0 16-7.164 16-16v-37.207c0-88.419-71.934-160.353-160.353-160.353z" fill="#dfb7a4"/><path d="m416.115 450.013c-4.586-84.34-74.643-151.549-160.108-151.549s-155.521 67.21-160.107 151.549c94.212 60.434 223.069 62.316 320.215 0z" fill="#e8d9d4"/><path d="m406.027 402.199c-22.932-60.56-81.524-103.735-150.02-103.735s-127.088 43.175-150.02 103.735c119.394 92.821 180.48 92.951 300.04 0z" fill="#f2f2f2"/><path d="m232.749 78.862-94.965-71.922c-22.344-16.923-54.428-.965-54.428 27.054v158.362c0 13.54 15.764 20.829 26.102 12.407l123.733-100.738c8.043-6.55 7.816-18.909-.442-25.163z" fill="#e8d9d4"/><path d="m374.231 6.94-94.966 71.923c-8.271 6.263-8.473 18.623-.441 25.163l123.733 100.738c10.373 8.448 26.102 1.085 26.102-12.407v-158.363c0-28.03-32.091-43.971-54.428-27.054z" fill="#e8d9d4"/><path d="m328.971 41.217-49.706 37.645c-8.271 6.263-8.473 18.623-.441 25.163l123.733 100.738c10.373 8.448 26.102 1.085 26.102-12.407v-91.843c-26.879-27.629-60.987-48.06-99.688-59.296z" fill="#e0c8bf"/><path d="m83.356 100.513v91.843c0 13.452 15.669 20.907 26.102 12.407l123.733-100.738c8.043-6.55 7.816-18.91-.441-25.163l-49.706-37.645c-38.678 11.23-72.792 31.649-99.688 59.296z" fill="#e0c8bf"/><path d="m481.484 337.211-28.577-112.587c-6.436-44.704-29.033-85.279-63.699-114.331-73.453-61.557-192.122-62.249-266.4 0-34.666 29.052-57.264 69.627-63.699 114.331l-28.578 112.587c-3.456 13.614 11.125 24.767 23.358 17.878 18.61-10.481 33.997-10.761 49.687-.847 43.748 48.576 65.896 85.162 152.432 85.162 86.309 0 108.396-36.282 152.539-85.282 9.444-6.364 24.715-12.562 49.782 1.079 12.224 6.656 26.587-4.477 23.155-17.99z" fill="#dfb7a4"/><path d="m470.162 292.605c-3.903 1.058-8.144.629-11.833-1.379-25.067-13.641-40.338-7.443-49.782-1.079-43.756 48.572-65.902 85.282-152.539 85.282-86.548 0-108.737-36.645-152.432-85.162-15.689-9.914-31.076-9.635-49.687.847-3.732 2.102-8.059 2.57-12.037 1.493l-11.322 44.604c-3.456 13.614 11.125 24.767 23.358 17.878 18.61-10.481 33.997-10.761 49.687-.847 43.748 48.576 65.896 85.162 152.432 85.162 86.309 0 108.396-36.282 152.539-85.282 9.444-6.364 24.715-12.562 49.782 1.079 12.225 6.655 26.587-4.477 23.155-17.99z" fill="#e8d9d4"/><path d="m322.97 289.151c-37.083-29.462-96.833-29.469-133.926 0-37.532 29.819-37.533 78.376 0 108.195 37.083 29.462 96.833 29.469 133.926 0 37.533-29.819 37.533-78.376 0-108.195z" fill="#e0c8bf"/><circle cx="215.344" cy="249.744" r="19.841"/><circle cx="296.671" cy="249.744" r="19.841"/><path d="m504.268 270.204c-14.31-8.626-29.197-14.945-44.605-18.963l-6.756-26.617c-3.505-24.349-11.815-47.467-24.248-68.171v-122.459c0-28.025-32.089-43.974-54.428-27.055l-79.587 60.276c-25.179-4.291-52.074-4.294-77.273 0l-79.588-60.275c-22.341-16.923-54.427-.967-54.427 27.054v122.459c-12.433 20.704-20.743 43.822-24.248 68.171l-6.756 26.618c-15.408 4.018-30.295 10.336-44.605 18.962-13.834 8.341-7.904 29.708 8.276 29.705 7.729 0 8.987-4.299 26.982-11.844l-12.474 49.146c-3.456 13.614 11.125 24.767 23.358 17.878 12.445-7.009 23.448-9.449 34.064-7.336-14.024 13.717-25.381 28.062-33.911 42.934-4.396 7.665-1.747 17.442 5.919 21.839 7.707 4.42 17.467 1.705 21.839-5.919 7.89-13.756 18.86-27.129 32.735-40 2.583 2.945 3.935 4.49 5.875 6.696-28.424 44.911-24.756 82.566-24.756 122.721 0 8.837 7.163 16 16 16h288.706c8.837 0 16-7.163 16-16 0-40.398 3.734-77.705-24.756-122.721 1.6-1.82 2.26-2.574 5.876-6.696 13.875 12.871 24.845 26.244 32.735 40 2.957 5.156 8.348 8.043 13.894 8.043 12.185 0 20.005-13.256 13.864-23.963-8.554-14.915-19.951-29.3-34.03-43.052 8.707-1.566 19.91-.311 34.387 7.566 12.225 6.655 26.587-4.477 23.155-17.99l-12.474-49.146c6.341 2.658 12.583 5.835 18.737 9.545 7.598 4.579 17.419 2.095 21.964-5.442 4.56-7.568 2.123-17.401-5.444-21.964zm-110.718-237.755c1.295-.978 3.108-.084 3.108 1.545v82.908c-18-16.82-39.305-30.091-62.986-39.104zm-277.119-.19c1.642-.817-3.414-3.935 61.911 45.54-23.728 9.03-45.016 22.314-62.986 39.104 0-91.209-.472-83.876 1.075-84.644zm267.929 447.765h-256.705c0-25.579-1.84-50.334 15.5-82.253 25.908 25.25 55.036 41.634 112.852 41.634s86.944-16.384 112.852-41.634c17.363 31.959 15.501 57.182 15.501 82.253zm58.759-163.893c-19.177-3.209-34.878 1.396-46.742 7.968-4.465-3.361-9.087-6.681-13.905-9.945-7.315-4.956-17.265-3.045-22.221 4.27-4.957 7.315-3.046 17.264 4.27 22.221 2.792 1.892 5.492 3.804 8.145 5.725-35.681 40.722-53.764 61.036-116.658 61.036-61.707 0-79.979-19.176-116.658-61.036 2.653-1.921 5.353-3.833 8.145-5.725 7.315-4.957 9.227-14.905 4.27-22.221-4.957-7.314-14.905-9.227-22.221-4.27-4.86 3.293-9.521 6.642-14.021 10.034-14.944-8.117-30.512-10.882-46.576-8.253l9.427-37.14c18.129-2.072 37.142-.378 57.287 5.07 8.532 2.304 17.314-2.739 19.622-11.269 2.307-8.53-2.738-17.315-11.269-19.622-19.701-5.328-38.844-7.593-57.354-6.826 3.922-15.451 3.845-14.983 4.017-16.223 10.957-78.854 78.944-133.926 165.331-133.926s154.374 55.072 165.331 133.926c.17 1.223.001.4 4.017 16.223-18.51-.768-37.653 1.498-57.354 6.826-8.53 2.307-13.575 11.092-11.269 19.622s11.093 13.574 19.622 11.269c20.145-5.447 39.157-7.14 57.287-5.068z"/><path d="m326.416 319.136c-8.837 0-16 7.163-16 16 0 6.619-5.386 12.005-12.005 12.005-14.183 0-25.737-11.449-25.92-25.589l8.58-12.411c6.203-8.971-.219-21.218-11.126-21.218h-27.877c-10.907 0-17.328 12.247-11.126 21.218l8.58 12.411c-.183 14.14-11.737 25.589-25.92 25.589-6.619 0-12.005-5.386-12.005-12.005 0-8.837-7.163-16-16-16s-16 7.163-16 16c0 24.265 19.74 44.005 44.005 44.005 16.731 0 31.82-7.138 42.404-18.519 10.584 11.381 25.673 18.519 42.404 18.519 24.265 0 44.005-19.74 44.005-44.005.001-8.837-7.162-16-15.999-16z"/></svg>