<svg id="Layer_1" enable-background="new 0 0 512.007 512.007" height="512" viewBox="0 0 512.007 512.007" width="512" xmlns="http://www.w3.org/2000/svg"><path d="m256.004 297.9c-88.418 0-160.353 71.934-160.353 160.353v37.207c0 8.836 7.164 16 16 16h288.705c8.836 0 16-7.164 16-16v-37.207c0-88.419-71.934-160.353-160.352-160.353z" fill="#f9bf98"/><path d="m416.111 449.448c-4.586-84.34-74.643-151.549-160.108-151.549s-155.52 67.21-160.107 151.549c94.212 60.434 223.07 62.316 320.215 0z" fill="#f9b78a"/><g fill="#fdaa6a"><path d="m406.024 401.634c-22.932-60.56-81.524-103.735-150.02-103.735s-127.088 43.175-150.02 103.735c119.393 92.821 180.479 92.951 300.04 0z"/><path d="m231.453 76.288-114.375-70.176c-26.8-16.439-60.543 5.925-55.913 36.974l22.362 149.939c1.837 12.316 16.391 17.814 25.927 10.047l123.733-100.738c8.518-6.937 7.686-20.265-1.734-26.046z"/><path d="m395.795 6.042-115.201 70.221c-9.411 5.737-10.343 19.093-1.774 26.07l123.733 100.739c9.562 7.781 24.034 2.225 25.915-9.969l23.119-149.851c4.799-31.105-28.955-53.567-55.792-37.21z"/></g><path d="m72.48 118.953 11.047 74.072c1.826 12.244 16.324 17.869 25.927 10.047l123.733-100.738c8.517-6.936 7.685-20.265-1.734-26.046l-59.891-36.746c-38.782 18.102-73.996 46.564-99.082 79.411z" fill="#f0a567"/><path d="m428.468 193.104 11.376-73.735c-24.843-32.678-59.996-61.391-99.176-79.725l-60.074 36.619c-9.411 5.737-10.343 19.093-1.774 26.07l123.733 100.739c9.562 7.782 24.034 2.226 25.915-9.968z" fill="#f0a567"/><path d="m256.004 61.254c-80.94 0-183.478 79.838-183.478 177.103 0 54.583 40.885 102.346 85.096 134.286 39.778 68.651 147.316 71.164 190.826 4.177 46.852-32.198 91.033-81.691 91.033-138.463 0-95.108-100.19-177.103-183.477-177.103z" fill="#fdaa6a"/><path d="m348.448 301.693c-43.535 67.025-151.066 64.443-190.826-4.177-34.142-24.665-66.535-58.781-79.404-99.064-3.749 13.084-5.692 26.455-5.692 39.905 0 54.583 40.885 102.346 85.096 134.286 39.778 68.651 147.316 71.164 190.826 4.177 46.852-32.198 91.033-81.691 91.033-138.463 0-13.45-1.942-26.82-5.692-39.905-13.489 42.225-48.515 77.932-85.341 103.241z" fill="#f0a567"/><path d="m322.967 274.6c-37.083-29.462-96.833-29.469-133.926 0-37.532 29.819-37.533 78.376 0 108.195 37.083 29.462 96.833 29.469 133.926 0 37.532-29.818 37.533-78.375 0-108.195z" fill="#f9bf98"/><path d="m215.204 437.013h-10.824c-8.836 0-16 7.163-16 16s7.164 16 16 16h10.824c8.836 0 16-7.163 16-16s-7.163-16-16-16z"/><path d="m307.627 437.013h-10.824c-8.836 0-16 7.163-16 16s7.164 16 16 16h10.824c8.836 0 16-7.163 16-16s-7.163-16-16-16z"/><circle cx="212.499" cy="240.424" r="19.841"/><circle cx="299.509" cy="240.424" r="19.841"/><path d="m290.898 334.698-18.895-5.843v-18.966l9.064-13.111c6.203-8.971-.219-21.218-11.126-21.218h-27.877c-10.907 0-17.328 12.247-11.126 21.218l9.064 13.111v18.966l-18.895 5.843c-8.442 2.611-13.169 11.571-10.559 20.013s11.571 13.168 20.013 10.56l25.44-7.867c28.031 8.668 26.955 8.585 30.172 8.585 6.831 0 13.157-4.409 15.281-11.277 2.614-8.443-2.114-17.403-10.556-20.014z"/><path d="m511.573 200.021c-2.037-8.6-10.662-13.922-19.257-11.882l-57.612 13.646c-1.404-5.358-3.113-10.67-5.119-15.924l22.002-142.607c4.799-31.107-28.955-53.569-55.792-37.212l-100.098 61.015c-27.426-7.707-51.857-7.724-79.319-.02l-99.3-60.926c-26.8-16.439-60.543 5.925-55.913 36.974l21.283 142.706c-2.018 5.276-3.736 10.612-5.146 15.994l-57.612-13.646c-8.6-2.036-17.22 3.284-19.257 11.882-2.037 8.599 3.283 17.22 11.882 19.257l60.299 14.282c-.523 15.351 1.709 30.853 8.507 48.179l-40.39 8.193c-8.66 1.757-14.257 10.201-12.5 18.861 1.761 8.68 10.223 14.254 18.861 12.5l49.548-10.051c9.769 14.725 22.39 29.073 37.671 42.701-24.088 28.061-38.661 64.514-38.661 104.309v37.207c0 8.837 7.164 16 16 16h288.705c8.836 0 16-7.163 16-16v-37.207c0-39.795-14.573-76.249-38.661-104.309 15.281-13.627 27.902-27.976 37.671-42.701 53.728 10.899 50.447 10.373 52.745 10.373 7.453 0 14.125-5.235 15.664-12.822 1.757-8.66-3.84-17.104-12.5-18.861l-40.39-8.193c6.772-17.26 9.032-32.756 8.507-48.179l60.299-14.282c8.6-2.037 13.92-10.658 11.883-19.257zm-99.123-166.655c3.666-2.236 8.157.817 7.511 5.009l-15.849 102.731c-17.794-22.918-42.596-44.224-71.299-59.196zm-319.634 4.999c-.519-3.472 2.416-5.77 4.919-5.77 1.924 0-3.957-3.236 81.587 49.25-28.425 14.802-53.276 35.962-71.223 58.994zm291.54 441.094h-256.705c0-23.469-.052-23.398.175-27.836l11.061 3.917c8.315 2.947 17.47-1.402 20.423-9.741 2.949-8.33-1.412-17.474-9.742-20.423l-15.995-5.664c5.299-16.791 13.962-32.101 25.198-45.137 40.871 66.875 146.63 68.519 189.677 2.245 1.404-.965 2.802-1.942 4.193-2.933 11.363 12.997 20.146 28.3 25.56 45.102l-18.036 6.387c-8.33 2.949-12.691 12.093-9.742 20.423 2.325 6.564 8.495 10.663 15.083 10.663 3.689 0 4.695-.693 18.635-5.629.284 4.964.215 5.894.215 28.626zm14.57-204.203-34.365-6.971c-8.662-1.757-17.105 3.84-18.861 12.5-1.757 8.66 3.84 17.104 12.5 18.861l22.819 4.629c-5.003 6.334-10.922 12.889-17.909 19.6-1.447-7.348-7.92-12.892-15.693-12.892-8.836 0-16 7.163-16 16 0 36.771-34.586 66.687-77.099 66.687s-77.099-29.915-77.099-66.687c0-8.837-7.164-16-16-16-6.837 0-12.656 4.296-14.947 10.33-5.859-5.819-10.919-11.512-15.284-17.038l22.82-4.629c8.66-1.757 14.257-10.201 12.5-18.861-1.756-8.659-10.198-14.256-18.861-12.5l-34.369 6.972c-6.188-13.808-8.162-25.529-8.497-34.125l31.959 7.569c8.618 2.042 17.225-3.304 19.257-11.882 2.037-8.599-3.283-17.22-11.882-19.257l-35.486-8.405c10.599-39.423 42.288-73.903 78.149-94.731v49.793c0 8.837 7.164 16 16 16s16-7.163 16-16v-64.362c7.24-2.407 14.427-4.185 21.426-5.288v38.277c0 8.837 7.164 16 16 16s16-7.163 16-16v-38.277c6.999 1.103 14.186 2.881 21.426 5.288v64.361c0 8.837 7.164 16 16 16s16-7.163 16-16v-49.793c35.498 20.617 67.249 54.471 78.066 94.751l-35.403 8.385c-8.599 2.037-13.918 10.658-11.882 19.257 2.041 8.618 10.68 13.916 19.257 11.882l31.959-7.569c-.336 8.596-2.313 20.318-8.501 34.125z"/><path d="m256.004 200.087c8.836 0 16-7.163 16-16v-9.999c0-8.837-7.164-16-16-16s-16 7.163-16 16v9.999c0 8.837 7.163 16 16 16z"/></svg>