<svg id="Layer_1" enable-background="new 0 0 512.407 512.407" height="512" viewBox="0 0 512.407 512.407" width="512" xmlns="http://www.w3.org/2000/svg"><path d="m512.205 376.203c0 11.77-1.91 42.07-19.61 69.13-12.79 19.56-37.82 42.87-84.39 42.87-60.628 0-86.899-26.919-93.66-76.1-13.92 8.28-32.71 12.1-58.34 12.1s-44.42-3.82-58.34-12.1c-6.778 49.307-33.116 76.1-93.66 76.1-46.57 0-71.6-23.31-84.39-42.87-17.7-27.06-19.61-57.36-19.61-69.13 0-32.4 0-86.63 44.69-131.31 32.66-32.67 48.24-77.47 51.34-87.18 1.102-95.342 64.237-133.51 159.97-133.51 95.713 0 158.868 38.164 159.97 133.49 3.13 9.74 18.85 54.71 51.34 87.2 44.69 44.68 44.69 98.91 44.69 131.31z" fill="#f9f9f9"/><path d="m492.595 445.333c-12.79 19.56-37.82 42.87-84.39 42.87-60.628 0-86.899-26.919-93.66-76.1-13.92 8.28-32.71 12.1-58.34 12.1s-44.42-3.82-58.34-12.1c-6.778 49.307-33.116 76.1-93.66 76.1-46.57 0-71.6-23.31-84.39-42.87-20.039-30.636-21.9-66.472-18.39-103.47 7.379 55.421 43.624 94.34 102.78 94.34 60.628 0 86.899-26.919 93.66-76.1 13.92 8.28 32.71 12.1 58.34 12.1s44.42-3.82 58.34-12.1c6.778 49.307 33.116 76.1 93.66 76.1 58.864 0 95.376-38.731 102.78-94.34 3.564 37.562 1.462 73.121-18.39 103.47z" fill="#ece2e2"/><path d="m416.205 160.203c0 108.323-57.227 121.727-64.16 170.26-4.12 28.86-8.41 52.27-22.63 69.07-14.43 17.06-37.01 24.67-73.21 24.67s-58.78-7.61-73.21-24.67c-14.22-16.8-18.51-40.21-22.63-69.07-6.918-48.43-64.16-62.074-64.16-170.26 0-96.532 62.702-136 160-136 97.309 0 160 39.477 160 136z" fill="#f2f2f2"/><path d="m304.205 336.203c0 63.842-96 63.892-96 0 0-7.51 3.46-32 48-32s48 24.49 48 32z" fill="#a07765"/><path d="m416.075 152.603c-38.87-40.181-104.181-48.4-159.87-48.4-55.672 0-120.994 8.214-159.87 48.4 3.313-91.676 65.917-128.4 159.87-128.4 93.955 0 156.557 36.726 159.87 128.4z" fill="#f9f9f9"/><path d="m256.205 304.203c-44.539 0-48 24.493-48 32 0 63.847 96 63.897 96 0 0-7.506-3.461-32-48-32zm0 48c-4.552 0-14.816-1.397-15.906-13.784 7.305-2.961 24.485-2.97 31.812 0-1.089 12.387-11.353 13.784-15.906 13.784z"/><circle cx="200.205" cy="240.203" r="16"/><path d="m467.519 244.89c-32.489-32.49-48.209-77.458-51.342-87.196-1.11-95.278-64.189-133.49-159.972-133.49-95.73 0-158.869 38.171-159.972 133.508-3.103 9.713-18.677 54.513-51.342 87.178-44.686 44.686-44.686 98.914-44.686 131.313 0 11.77 1.911 42.066 19.609 69.127 12.792 19.559 37.816 42.873 84.391 42.873 60.504 0 86.902-26.818 93.659-76.098 13.918 8.279 32.713 12.098 58.341 12.098s44.423-3.819 58.341-12.098c6.771 49.377 33.238 76.098 93.659 76.098 46.574 0 71.599-23.314 84.391-42.873 17.698-27.061 19.609-57.357 19.609-69.127 0-32.399 0-86.627-44.686-131.313zm-363.314 211.313c-68.529 0-72-66.641-72-80 0-30.965 0-73.373 35.313-108.687 15.083-15.083 26.941-32.133 35.997-47.959 15.841 57.211 51.435 72.999 56.85 110.908 2.123 14.859 4.292 28.269 7.834 40.081-.223 64.202-9.899 85.657-63.994 85.657zm152-64c-52.48 0-56.652-13.702-64.161-66.263-9.062-63.426-63.839-66.266-63.839-165.737 0-78.461 49.157-104 128-104 78.839 0 128 25.536 128 104 0 99.831-54.721 101.902-63.839 165.737-5.405 37.832-6.948 34.201-7.89 39.39-7.244 20.529-20.591 26.873-56.271 26.873zm152 64c-54.096 0-63.771-21.456-63.995-85.657 3.542-11.812 5.711-25.221 7.834-40.08 5.417-37.91 41-53.66 56.851-110.908 9.055 15.825 20.913 32.875 35.997 47.958 35.313 35.314 35.313 77.722 35.313 108.687 0 13.359-3.471 80-72 80z"/><circle cx="312.205" cy="240.203" r="16"/></svg>