<svg id="Layer_1" enable-background="new 0 0 512.024 512.024" height="512" viewBox="0 0 512.024 512.024" width="512" xmlns="http://www.w3.org/2000/svg"><path d="m232.754 78.862-94.966-71.923c-22.344-16.922-54.428-.966-54.428 27.055v133.903c0 8.915 7.248 16 16 16 6.394 0-2.461 4.314 132.13-78.66 9.539-5.881 10.252-19.567 1.264-26.375z" fill="#fdaa6a"/><path d="m374.235 6.939-94.965 71.923c-8.934 6.767-8.333 20.458 1.264 26.375 134.432 82.875 125.66 78.66 132.13 78.66 8.75 0 16-7.085 16-16v-133.903c-.001-28.031-32.092-43.97-54.429-27.055z" fill="#fdaa6a"/><path d="m83.36 98.025v69.872c0 12.494 13.741 20.189 24.396 13.62l123.733-76.279c9.539-5.88 10.252-19.567 1.264-26.375l-52.482-39.748c-36.874 11.611-70.087 31.659-96.911 58.91z" fill="#f9b78a"/><path d="m428.663 98.025c-26.799-27.226-60.003-47.288-96.911-58.91l-52.482 39.747c-8.934 6.767-8.333 20.458 1.264 26.375l123.733 76.279c10.635 6.558 24.396-1.104 24.396-13.62z" fill="#f9b78a"/><path d="m256.012 298.464c-88.418 0-160.353 71.934-160.353 160.353v37.207c0 8.836 7.164 16 16 16h288.705c8.836 0 16-7.164 16-16v-37.207c0-88.419-71.934-160.353-160.352-160.353z" fill="#fdaa6a"/><path d="m387.732 114.728c-69.533-68.445-192.539-69.792-263.439 0-33.376 32.854-51.758 77.36-51.758 125.319 0 54.576 40.877 102.34 85.097 134.287 39.779 68.648 147.313 71.162 190.824 4.177 46.856-32.203 91.034-81.695 91.034-138.464-.001-47.958-18.382-92.464-51.758-125.319z" fill="#fdaa6a"/><path d="m407.636 406.536c-3.323-9.639-14.722-13.762-23.444-8.453l-99.579 60.596c-18.572 11.39-41.558 11.29-60.022-.248l-95.286-62.818c-8.589-5.662-20.258-1.855-23.822 7.833-11.711 31.826-9.824 52.998-9.824 92.576 0 8.836 7.164 16 16 16h288.705c8.836 0 16-7.164 16-16 0-37.311 1.803-58.939-8.728-89.486z" fill="#f9b78a"/><path d="m348.456 317.256c-43.537 67.025-151.065 64.438-190.824-4.177-36.5-26.369-71.131-63.675-81.813-107.629-2.169 11.244-3.284 22.816-3.284 34.598 0 54.576 40.877 102.34 85.097 134.287 39.779 68.648 147.313 71.162 190.824 4.177 46.856-32.203 91.034-81.695 91.034-138.464 0-11.782-1.116-23.354-3.284-34.598-11.195 46.061-48.685 84.957-87.75 111.806z" fill="#f0a567"/><path d="m311.506 291.245c-30.732-24.416-80.249-24.422-110.989 0-31.104 24.712-31.105 64.953 0 89.665 30.732 24.416 80.249 24.422 110.989 0 31.105-24.712 31.105-64.953 0-89.665z" fill="#f9bf98"/><circle cx="202.586" cy="245.404" r="19.841"/><circle cx="309.438" cy="245.404" r="19.841"/><path d="m511.939 225.088c-.843-8.797-8.667-15.246-17.454-14.399l-56.561 5.424c-1.712-13.055-4.823-25.728-9.26-37.841v-144.278c0-28.03-32.091-43.971-54.428-27.054l-78.941 59.786c-24.925-4.891-52.106-5.192-78.565 0l-78.942-59.786c-22.346-16.923-54.428-.966-54.428 27.054v144.278c-4.437 12.113-7.548 24.786-9.26 37.841l-56.561-5.424c-8.792-.848-16.611 5.604-17.454 14.399-.844 8.796 5.603 16.611 14.399 17.454l58.356 5.596c1.193 15.879 5.886 31.888 13.814 47.628l-49.332 22.334c-15.602 7.064-10.574 30.58 6.608 30.58 4.718 0 2.464.44 59.967-25.594 8.385 10.998 18.37 21.735 29.887 32.061-23.765 27.974-38.125 64.174-38.125 103.669v37.207c0 8.836 7.164 16 16 16h288.705c8.836 0 16-7.164 16-16v-37.207c0-39.496-14.36-75.696-38.125-103.669 11.517-10.326 21.502-21.063 29.887-32.061l53.377 24.166c8.049 3.646 17.531.072 21.175-7.977 3.645-8.05.073-17.53-7.977-21.175l-49.332-22.334c7.927-15.74 12.621-31.749 13.814-47.628l58.356-5.596c8.797-.844 15.243-8.658 14.4-17.454zm-118.383-192.639c1.295-.977 3.107-.083 3.107 1.544v90.212c-17.398-19.903-38.985-35.444-63.614-45.932zm-278.196 1.545c0-1.371 1.204-1.972 1.992-1.972.858 0-3.262-2.888 61.622 46.252-24.612 10.481-46.204 26.016-63.614 45.932zm109.094 424.352-84.929-53.388c4.946-10.653 11.307-20.52 18.847-29.354 40.537 67.546 146.927 69.346 190.083 2.908 1.61-1.106 3.212-2.228 4.804-3.367 7.68 8.913 14.152 18.892 19.175 29.677l-87.821 53.858c-18.618 11.417-41.67 11.289-60.159-.334zm-94.845-21.824 69.201 43.501h-71.151c0-21.727-.453-29.841 1.95-43.501zm254.755 43.502h-73.344l71.349-43.756c2.505 14.068 1.995 22.731 1.995 43.756zm11.867-197.45-28.244-12.787c-8.051-3.646-17.53-.074-21.175 7.977s-.073 17.53 7.977 21.175l23.359 10.575c-4.355 5.224-9.34 10.587-15.031 16.053-1.447-7.348-7.92-12.892-15.693-12.892-8.836 0-16 7.164-16 16 0 36.771-34.586 66.686-77.099 66.686s-77.099-29.915-77.099-66.686c0-8.836-7.164-16-16-16-6.837 0-12.656 4.296-14.947 10.33-4.614-4.582-8.732-9.085-12.405-13.491l23.359-10.575c8.05-3.645 11.621-13.125 7.977-21.175-3.645-8.05-13.125-11.623-21.175-7.977l-28.244 12.787c-6.157-12.006-9.125-22.648-10.407-31.315l33.323 3.196c8.796.843 16.611-5.604 17.454-14.399.844-8.796-5.603-16.611-14.399-17.454l-35.784-3.432c2.068-14.848 6.341-29.069 12.659-42.266l-.785 6.464c-.696 5.734 1.752 11.397 6.406 14.819l18.121 13.322c7.088 5.211 17.111 3.737 22.368-3.414 5.234-7.12 3.706-17.134-3.414-22.368l-10.588-7.784 5.987-49.332c12.536-10.18 26.794-18.198 42.278-23.848l-19.098 42.192c-3.229 7.134-.82 15.558 5.693 19.905l9.23 6.161v12.274c0 8.836 7.164 16 16 16s16-7.164 16-16v-20.832c0-5.347-2.67-10.34-7.117-13.308l-3.182-2.124c1.732-11.015-1.997-.979 21.628-53.174 11.554-1.182 23.428-1.255 35.692 0l20.329 44.913 1.299 8.261c-12.393 8.272-10.299 10.311-10.299 36.263 0 8.836 7.164 16 16 16s16-7.164 16-16v-12.274l9.23-6.161c6.513-4.347 8.923-12.771 5.693-19.905l-19.098-42.192c15.484 5.65 29.742 13.668 42.278 23.848l5.987 49.332-10.588 7.784c-7.12 5.234-8.648 15.249-3.414 22.368 5.25 7.142 15.269 8.633 22.368 3.414l18.121-13.322c4.654-3.421 7.102-9.085 6.406-14.819l-.785-6.464c6.317 13.197 10.591 27.418 12.659 42.266l-35.784 3.432c-8.796.843-15.243 8.658-14.399 17.454.843 8.795 8.657 15.244 17.454 14.399l33.321-3.196c-1.28 8.669-4.246 19.31-10.403 31.316z"/><path d="m290.906 336.39-18.895-5.843v-18.967l9.064-13.111c6.203-8.971-.219-21.218-11.126-21.218h-27.877c-10.907 0-17.328 12.246-11.126 21.218l9.064 13.111v18.967l-18.895 5.843c-8.442 2.61-13.169 11.57-10.559 20.012s11.571 13.171 20.013 10.559l25.44-7.867c28.029 8.667 26.955 8.585 30.172 8.585 6.831-.001 13.157-4.41 15.281-11.278 2.614-8.44-2.114-17.4-10.556-20.011z"/></svg>