<?xml version="1.0" encoding="iso-8859-1"?>
<!-- Generator: Adobe Illustrator 19.0.0, SVG Export Plug-In . SVG Version: 6.00 Build 0)  -->
<svg version="1.1" id="Capa_1" xmlns="http://www.w3.org/2000/svg" xmlns:xlink="http://www.w3.org/1999/xlink" x="0px" y="0px"
	 viewBox="0 0 512 512" style="enable-background:new 0 0 512 512;" xml:space="preserve">
<g>
	<g>
		<path d="M253.839,35.748c-3.422-3.66-8.454-5.365-13.4-4.547c-4.946,0.817-9.157,4.05-11.223,8.617L93.867,333.701
			C87.803,332.113,81.555,331,75,331c-41.353,0-75,33.647-75,75c0,41.353,33.647,75,75,75s75-33.647,75-75
			c0-12.339-3.281-23.818-8.584-34.096l122.219-268.343C275.193,80.444,270.478,53.544,253.839,35.748z M75,451
			c-24.814,0-45-20.186-45-45c0-24.814,20.186-45,45-45s45,20.186,45,45C120,430.814,99.814,451,75,451z"/>
	</g>
</g>
<g>
	<g>
		<path d="M255,331c-6.555,0-12.803,1.113-18.867,2.701l-22.304-48.43l-32.347,71.034l7.103,15.597
			C183.281,382.18,180,393.661,180,406c0,41.353,33.647,75,75,75c41.353,0,75-33.647,75-75C330,364.647,296.353,331,255,331z
			 M255,451c-24.814,0-45-20.186-45-45c0-24.814,20.186-45,45-45c24.814,0,45,20.186,45,45C300,430.814,279.814,451,255,451z"/>
	</g>
</g>
<g>
	<g>
		<path d="M467,31c-13.193,0-17.976,0-19.51,0c-0.471,0-0.638,0-0.646,0c-2.797,0-16.369,0-71.843,0c-8.291,0-15,6.709-15,15
			s6.709,15,15,15h47v30h-47c-8.291,0-15,6.709-15,15s6.709,15,15,15h47v30h-47c-8.291,0-15,6.709-15,15s6.709,15,15,15h47v30h-47
			c-8.291,0-15,6.709-15,15s6.709,15,15,15h47v30h-47c-8.291,0-15,6.709-15,15c0,8.291,6.709,15,15,15h47v30h-47
			c-8.291,0-15,6.709-15,15c0,8.291,6.709,15,15,15h47v30h-47c-8.291,0-15,6.709-15,15c0,8.291,6.709,15,15,15h47v30h-47
			c-8.291,0-15,6.709-15,15c0,8.291,6.709,15,15,15c55.387,0,69.015,0,71.841,0c0.497,0,0.66,0,0.657,0c1.548,0,6.344,0,19.501,0
			c24.814,0,45-20.186,45-45V76C512,51.186,491.814,31,467,31z"/>
	</g>
</g>
<g>
	<g>
		<path d="M100.785,39.818c-2.066-4.566-6.277-7.8-11.223-8.616c-4.946-0.818-9.977,0.886-13.4,4.547
			c-16.639,17.796-21.354,44.696-9.796,67.813l49.953,109.677l32.168-69.844L100.785,39.818z"/>
	</g>
</g>
<g>
</g>
<g>
</g>
<g>
</g>
<g>
</g>
<g>
</g>
<g>
</g>
<g>
</g>
<g>
</g>
<g>
</g>
<g>
</g>
<g>
</g>
<g>
</g>
<g>
</g>
<g>
</g>
<g>
</g>
</svg>
