<svg id="Layer_1" enable-background="new 0 0 512.007 512.007" height="512" viewBox="0 0 512.007 512.007" width="512" xmlns="http://www.w3.org/2000/svg"><path d="m231.453 76.852-114.376-70.176c-26.793-16.44-60.542 5.924-55.912 36.974l22.362 149.94c1.825 12.236 16.342 17.851 25.927 10.047l123.733-100.74c8.518-6.934 7.687-20.265-1.734-26.045z" fill="#606060"/><path d="m395.795 6.605-115.201 70.222c-9.395 5.728-10.359 19.081-1.773 26.07l123.733 100.74c9.527 7.759 24.027 2.273 25.914-9.968l23.119-149.85c4.798-31.101-28.952-53.574-55.792-37.214z" fill="#606060"/><path d="m428.468 193.669 9.729-63.059c-25.036-35.44-62.907-66.877-105.397-85.606l-52.207 31.823c-9.395 5.728-10.359 19.081-1.773 26.07l123.733 100.74c9.528 7.759 24.027 2.272 25.915-9.968z" fill="#4f4f4f"/><path d="m74.079 130.239 9.448 63.35c1.826 12.245 16.322 17.868 25.927 10.047l123.733-100.74c8.517-6.934 7.686-20.265-1.734-26.045l-52.048-31.934c-42.808 18.824-80.49 50.318-105.326 85.322z" fill="#4f4f4f"/><path d="m256.004 297.337c-88.418 0-160.353 71.934-160.353 160.353v37.207c0 8.836 7.164 16 16 16h288.705c8.836 0 16-7.164 16-16v-37.207c0-88.419-71.934-160.353-160.352-160.353z" fill="#606060"/><path d="m416.111 448.885c-4.586-84.34-74.643-151.549-160.108-151.549s-155.52 67.21-160.107 151.549c94.212 60.434 223.07 62.316 320.215 0z" fill="#4f4f4f"/><path d="m406.024 401.071c-22.932-60.56-81.524-103.735-150.02-103.735s-127.088 43.175-150.02 103.735c86.059 66.906 213.427 67.336 300.04 0z" fill="#3f3f3f"/><path d="m256.004 61.817c-80.539 0-183.478 79.329-183.478 177.103 0 54.576 40.877 102.34 85.097 134.287 39.779 68.647 147.312 71.162 190.823 4.177 46.855-32.201 91.035-81.695 91.035-138.465 0-95.107-100.189-177.102-183.477-177.102z" fill="#606060"/><path d="m348.447 314.464c-43.536 67.022-151.063 64.439-190.823-4.177-35.727-25.811-69.646-62.071-81.106-104.837-2.636 11.021-3.991 22.219-3.991 33.471 0 54.576 40.877 102.34 85.097 134.287 39.779 68.647 147.312 71.162 190.823 4.177 46.855-32.201 91.035-81.695 91.035-138.465 0-11.253-1.354-22.451-3.991-33.471-12.06 45.004-48.964 82.843-87.044 109.015z" fill="#4f4f4f"/><path d="m324.308 279.768c-37.826-30.052-98.773-30.059-136.608 0-38.284 30.416-38.285 79.946 0 110.362 37.826 30.052 98.773 30.06 136.608 0 38.284-30.415 38.284-79.945 0-110.362z" fill="#3f3f3f"/><circle cx="212.499" cy="240.987" r="19.841"/><circle cx="299.509" cy="240.987" r="19.841"/><path d="m290.897 335.262-18.894-5.843v-18.967l9.064-13.111c6.203-8.971-.219-21.218-11.126-21.218h-27.877c-10.907 0-17.328 12.246-11.126 21.218l9.064 13.111v18.967l-18.895 5.843c-8.442 2.61-13.169 11.57-10.559 20.012 2.611 8.442 11.569 13.172 20.013 10.559l25.44-7.867c28.029 8.667 26.955 8.585 30.172 8.585 6.83-.001 13.157-4.41 15.281-11.277 2.613-8.441-2.114-17.401-10.557-20.012z"/><path d="m511.573 200.585c-2.037-8.599-10.662-13.92-19.257-11.882l-57.611 13.645c-1.404-5.359-3.113-10.671-5.119-15.925l22.001-142.605c4.799-31.101-28.952-53.574-55.792-37.213l-100.098 61.016c-27.425-7.707-51.857-7.724-79.32-.019l-99.3-60.926c-26.793-16.44-60.542 5.924-55.912 36.974l21.283 142.705c-2.018 5.276-3.736 10.612-5.145 15.994l-57.612-13.645c-8.596-2.034-17.22 3.283-19.257 11.882-2.037 8.599 3.283 17.22 11.882 19.257l60.299 14.282c-.524 15.386 1.723 30.887 8.507 48.179l-40.39 8.192c-8.66 1.757-14.257 10.201-12.5 18.861 1.758 8.664 10.206 14.256 18.861 12.5l49.548-10.05c9.653 14.55 22.098 28.731 37.135 42.214-23.765 27.974-38.125 64.174-38.125 103.669v37.207c0 8.836 7.164 16 16 16h288.705c8.837 0 16-7.164 16-16v-37.207c0-39.496-14.36-75.696-38.125-103.669 15.037-13.483 27.482-27.664 37.135-42.214 53.728 10.898 50.447 10.372 52.745 10.372 7.453 0 14.125-5.236 15.664-12.822 1.757-8.66-3.84-17.104-12.5-18.861l-40.39-8.192c6.759-17.227 9.034-32.723 8.507-48.179l60.299-14.282c8.599-2.038 13.918-10.659 11.882-19.258zm-99.122-166.656c3.626-2.208 8.164.769 7.511 5.01l-15.85 102.731c-17.794-22.919-42.596-44.224-71.299-59.196zm-319.635 5c-.518-3.472 2.416-5.769 4.919-5.769 1.92 0-4.133-3.344 81.586 49.249-28.423 14.802-53.275 35.961-71.223 58.995zm291.54 439.967h-256.705v-21.207c0-31.723 11.573-60.79 30.713-83.213 40.537 67.546 146.926 69.347 190.082 2.909 1.61-1.106 3.213-2.228 4.805-3.367 19.374 22.485 31.105 51.732 31.105 83.671zm14.57-203.076-34.366-6.971c-8.657-1.757-17.104 3.84-18.861 12.5s3.84 17.104 12.5 18.861l22.819 4.628c-5.003 6.334-10.922 12.889-17.91 19.6-1.447-7.348-7.92-12.892-15.693-12.892-8.837 0-16 7.164-16 16 0 36.771-34.586 66.686-77.098 66.686s-77.099-29.915-77.099-66.686c0-8.836-7.164-16-16-16-6.837 0-12.656 4.296-14.947 10.33-5.859-5.819-10.919-11.512-15.284-17.038l22.82-4.629c8.66-1.757 14.257-10.201 12.5-18.861s-10.201-14.257-18.861-12.5l-34.369 6.971c-6.188-13.808-8.162-25.529-8.497-34.125l31.959 7.569c8.646 2.046 17.231-3.329 19.257-11.882 2.037-8.599-3.283-17.22-11.882-19.257l-35.486-8.405c16.942-63.016 89.736-115.904 147.575-115.904 56.141 0 130.09 51.122 147.491 115.923l-35.403 8.385c-8.599 2.037-13.918 10.658-11.882 19.257 2.034 8.588 10.647 13.921 19.257 11.882l31.959-7.569c-.334 8.598-2.311 20.319-8.499 34.127z"/></svg>