<svg id="Layer_1" enable-background="new 0 0 512.023 512.023" height="512" viewBox="0 0 512.023 512.023" width="512" xmlns="http://www.w3.org/2000/svg"><path d="m256.012 298.464c-88.419 0-160.353 71.934-160.353 160.353v37.207c0 8.836 7.163 16 16 16h288.705c8.837 0 16-7.164 16-16v-37.207c0-88.419-71.933-160.353-160.352-160.353z" fill="#dfb7a4"/><path d="m387.831 367.508c-66.191-95.397-208.496-90.842-268.762 7.851-3.225 5.281-3.115 11.948.28 17.12l73.755 112.326c2.959 4.505 7.985 7.218 13.375 7.218h88.258c5.338 0 10.324-2.662 13.295-7.098l79.948-119.395c3.661-5.466 3.602-12.617-.149-18.022z" fill="#f2f2f2"/><path d="m232.754 78.862-94.966-71.923c-22.345-16.922-54.428-.966-54.428 27.055v133.903c0 8.915 7.248 16 16 16 6.394 0-2.461 4.314 132.13-78.66 9.539-5.881 10.252-19.567 1.264-26.375z" fill="#aa8579"/><path d="m374.235 6.939-94.966 71.923c-8.934 6.767-8.333 20.458 1.264 26.375 134.432 82.875 125.66 78.66 132.13 78.66 8.75 0 16-7.085 16-16v-133.903c0-28.031-32.091-43.97-54.428-27.055z" fill="#aa8579"/><path d="m83.36 98.025v69.872c0 12.494 13.741 20.189 24.396 13.62l123.733-76.279c9.539-5.88 10.252-19.567 1.264-26.375l-52.482-39.748c-36.874 11.611-70.088 31.659-96.911 58.91z" fill="#ba9283"/><path d="m428.663 98.025c-26.799-27.226-60.003-47.288-96.911-58.91l-52.482 39.748c-8.934 6.767-8.333 20.458 1.264 26.375l123.733 76.279c10.635 6.558 24.396-1.104 24.396-13.62z" fill="#ba9283"/><path d="m392.262 114.284c-75.454-68.492-197.027-68.509-272.5 0-76.367 69.323-76.367 182.206 0 251.528 75.454 68.492 197.027 68.509 272.5 0 76.367-69.323 76.366-182.205 0-251.528z" fill="#f9f9f9"/><path d="m392.261 114.284c-75.452-68.492-197.027-68.509-272.498 0-86.272 78.312-72.585 207.709 24.84 270.592 9.642 6.223 22.549.549 24.455-10.79l5.084-30.239c3.42-20.344 14.432-38.312 31.008-50.593l32.898-24.374c3.072-2.275 5.228-5.576 6.076-9.303l11.888-52.193 11.888 52.193c.849 3.727 3.004 7.027 6.076 9.303l32.898 24.374c16.576 12.281 27.588 30.249 31.008 50.594l5.084 30.238c1.915 11.387 14.869 16.979 24.455 10.79 97.527-62.95 111.01-192.372 24.84-270.592z" fill="#c69a85"/><circle cx="180.933" cy="232.699" r="19.841"/><circle cx="331.091" cy="232.699" r="19.841"/><path d="m290.905 333.574-18.778-5.807 8.949-12.944c6.203-8.972-.219-21.218-11.126-21.218h-27.877c-10.907 0-17.328 12.246-11.126 21.218l8.949 12.944-18.778 5.807c-8.442 2.61-13.17 11.57-10.56 20.013 2.611 8.442 11.571 13.172 20.013 10.559l25.44-7.867c28.029 8.667 26.955 8.585 30.172 8.585 6.83-.001 13.157-4.41 15.281-11.277 2.611-8.443-2.116-17.403-10.559-20.013z"/><path d="m511.461 201.239c-2.298-8.532-11.076-13.585-19.611-11.288l-46.691 12.578c-3.479-14.86-9.014-29.172-16.495-42.643v-125.892c0-28.031-32.091-43.969-54.428-27.054l-78.796 59.677c-25.6-4.827-52.532-4.963-78.855 0l-78.797-59.678c-22.348-16.921-54.428-.966-54.428 27.055v125.892c-7.481 13.471-13.016 27.783-16.495 42.643l-46.691-12.578c-8.536-2.298-17.313 2.755-19.611 11.288-2.299 8.532 2.755 17.313 11.287 19.611l50.787 13.681c-.57 17.193 1.496 33.641 5.796 49.232l-28.856 8.142c-8.505 2.4-13.454 11.239-11.054 19.744 2.395 8.492 11.227 13.457 19.743 11.054l31.703-8.945c10.331 20.657 24.976 39.33 43.326 55.182-31.683 46.628-27.635 86.709-27.635 127.085 0 8.836 7.163 16 16 16h288.705c8.837 0 16-7.164 16-16 0-40.935 4.014-80.506-27.635-127.085 18.361-15.862 33.034-34.567 43.378-55.285 33.528 9.585 32.82 9.654 36.004 9.654 6.962 0 13.367-4.58 15.376-11.606 2.429-8.496-2.489-17.353-10.986-19.782l-28.88-8.256c4.253-15.463 6.339-31.877 5.767-49.133l50.787-13.681c8.53-2.3 13.584-11.08 11.285-19.612zm-117.905-168.79c1.29-.983 3.107-.083 3.107 1.544v84.431c-18.375-17.775-39.755-31.362-62.934-40.666zm-277.121-.19c1.626-.809-3.467-3.974 61.858 45.5-23.165 9.298-44.548 22.881-62.934 40.666.001-93.092-.46-85.403 1.076-86.166zm98.679 447.764-57.329-87.31c56.261 30.432 125.285 32.1 182.201 6.977l-53.792 80.333zm-44.242-116.735c3.622-21.548 5.326-48.585 34.277-70.035l32.899-24.374c3.072-2.275 5.228-5.576 6.076-9.303l11.887-52.192 11.887 52.192c.849 3.727 3.004 7.027 6.076 9.303l32.899 24.374c16.576 12.281 27.588 30.249 31.009 50.593l3.268 19.441c-51.14 28.633-117.285 29.669-170.278.001zm-35.941 52.921 41.901 63.814h-49.173c0-24-1.127-40.017 7.272-63.814zm249.433 63.814h-59.657l48.791-72.865c12.363 28.006 10.866 48.562 10.866 72.865zm28.419-205.175-15.998-4.574c-8.49-2.427-17.352 2.49-19.781 10.986s2.489 17.353 10.986 19.782l12.588 3.599c-7.842 14.114-18.159 26.932-30.453 37.977-9.25-55.02-38.566-70.9-72.34-95.923l-14.398-63.218c-6.617-29.054-48.137-29.03-54.748 0l-14.398 63.219-28.139 20.848c-25.526 18.911-38.977 43.996-44.202 75.075-12.235-10.992-22.513-23.739-30.341-37.773l13.422-3.787c8.505-2.4 13.454-11.239 11.054-19.744-2.399-8.505-11.243-13.454-19.743-11.054l-16.995 4.795c-2.838-10.257-4.462-20.939-4.718-31.919l26.495 7.137c8.533 2.298 17.313-2.755 19.611-11.288 2.299-8.532-2.755-17.313-11.287-19.611l-31.582-8.508c15.072-66.072 80.277-115.921 158.196-115.921s143.125 49.849 158.196 115.921l-31.582 8.508c-8.532 2.298-13.586 11.079-11.287 19.611 2.302 8.547 11.093 13.583 19.611 11.288l26.495-7.137c-.254 10.904-1.859 21.517-4.662 31.711z"/></svg>