<svg id="Layer_1" enable-background="new 0 0 512 512" height="512" viewBox="0 0 512 512" width="512" xmlns="http://www.w3.org/2000/svg"><path d="m512 204.945c0 66.603-56 157.954-56 184 0 8.83-7.16 16-16 16-14.32 0-27.09-5.8-37.07-16.29-20.657 36.322-54.521 63.356-96.77 74.74-18.007 4.844-36.974 6.477-50.16 5.59-13.06.879-31.909-.68-50.16-5.59-42.331-11.406-76.156-38.494-96.77-74.74-9.98 10.49-22.75 16.29-37.07 16.29-8.84 0-16-7.17-16-16 0-26.184-56-117.134-56-184 0-47.855 36.767-78.787 81.77-92.75 8.223-30.285 43.01-58.941 74.35-66.78 31.24-7.8 84.19 3.4 99.88 7.07 15.7-3.67 68.65-14.87 99.88-7.07 31.453 7.868 66.176 36.675 74.35 66.78 44.965 13.951 81.77 44.868 81.77 92.75z" fill="#f2f2f2"/><path d="m416.34 359.075c-19.914 55.659-60.467 90.938-110.18 104.32-17.685 4.757-36.038 6.457-50.16 5.6-5.67.36-25.62 1.01-50.16-5.6-37.82-10.181-69.34-32.86-91.15-65.57-37.196-55.869-41.773-152.267-34.69-217.78v-55.1c0-34.894 41.183-70.8 76.12-79.521 31.23-7.81 84.17 3.39 99.88 7.06 15.7-3.67 68.65-14.87 99.88-7.06 35.353 8.824 76.12 44.933 76.12 79.521v55.1c5.733 53.025 3.206 126.228-15.66 179.03z" fill="#ece2e2"/><path d="m433.34 195.625v.01c-2.02 28.69-6.85 60.271-17 88.681-19.914 55.659-60.467 90.938-110.18 104.319-17.685 4.757-36.038 6.458-50.16 5.601-45.737 2.899-105.118-16.89-141.31-71.17-23.834-35.799-33.016-84.639-36.03-127.431 0-1.033.804-10.635 1.34-15.59v-55.1c0-34.894 41.183-70.8 76.12-79.521 31.23-7.81 84.17 3.39 99.88 7.06 15.7-3.67 68.65-14.87 99.88-7.06 35.353 8.824 76.12 44.933 76.12 79.521 0 73.858-.435 44.719 1.34 70.68z" fill="#f9f9f9"/><path d="m371.31 376.255c-30.881 30.882-87.739 32.471-115.31 17.57-26.574 14.362-83.693 14.047-115.31-17.57-3.36-3.359-5.05-8.03-4.62-12.76 2.47-27.13 11.12-47.54 22.01-62.83-2.92 7.98-5.04 16.99-6.02 27.16-.38 3.85 1.09 7.66 4 10.399 26.846 25.25 76.294 26.328 99.94 14.32 23.101 11.731 72.506 11.473 99.94-14.32 2.91-2.739 4.38-6.55 4-10.399-.98-10.17-3.1-19.18-6.02-27.16 10.89 15.29 19.54 35.7 22.01 62.83.43 4.729-1.26 9.4-4.62 12.76z" fill="#f2f2f2"/><circle cx="180" cy="235.955" r="20"/><path d="m464.232 127.222c-12.681-7.609-25.336-12.338-34.004-15.023-8.209-30.278-42.992-58.941-74.348-66.779-31.235-7.807-84.184 3.396-99.88 7.065-15.694-3.669-68.643-14.872-99.881-7.065-31.444 7.861-66.188 36.68-74.348 66.779-8.667 2.686-21.323 7.414-34.004 15.023-75.73 45.438-46.962 120.353-11.383 205.016 9.644 22.946 19.616 46.675 19.616 56.704 0 8.837 7.164 16 16 16 14.319 0 27.091-5.798 37.069-16.289 31.24 55.058 91.448 83.924 146.931 80.334 56.066 3.629 115.967-25.762 146.931-80.334 9.978 10.491 22.75 16.289 37.069 16.289 8.836 0 16-7.163 16-16 0-10.029 9.972-33.758 19.615-56.704 35.504-84.484 64.262-159.629-11.383-205.016zm-208.232 266.591c5.193 2.811 10.878 4.715 16 5.998v21.131c0 8.822-7.178 16-16 16s-16-7.178-16-16v-21.131c5.122-1.283 10.807-3.187 16-5.998zm171.593-25.724c-4.415-3.891-7.428-9.502-9.404-14.484 24.881-75.499 14.265-169.748 13.702-174.531-1.033-8.776-8.987-15.05-17.76-14.021-8.776 1.032-15.053 8.984-14.021 17.76.131 1.11 10.806 95.637-13.534 164.564-.611 1.421-5.622 17.292-15.889 32.691-16.686 25.029-39.475 42.13-67.753 50.922 1.377-6.439 1.066-8.967 1.066-28.178 22.89-.92 48.861-8.103 67.313-26.556 3.358-3.357 5.051-8.033 4.621-12.762-4.73-52.031-32.255-79.378-54.512-93.156-7.513-4.651-17.375-2.33-22.026 5.183-4.651 7.514-2.331 17.375 5.183 22.026 21.319 13.197 34.247 33.64 38.503 60.834-10.233 7.395-24.525 11.869-40.381 12.489-17.124.674-31.445-3.719-33.207-6.496-.281-.444-.482-.786-1.15-1.601 15.796-5.56 27.656-20.844 27.656-33.831 0-37.27-80-37.396-80 0 0 12.987 11.86 28.271 27.657 33.831-.473.576-1.243 1.706-1.46 2.076-8.385 6.795-48.289 11.589-73.278-6.469 4.256-27.194 17.184-47.637 38.503-60.834 7.513-4.651 9.833-14.513 5.183-22.026-4.651-7.513-14.512-9.833-22.026-5.183-22.257 13.778-49.782 41.125-54.512 93.156-.43 4.729 1.263 9.404 4.621 12.762 18.454 18.455 44.423 25.636 67.313 26.556 0 18.617-.326 21.684 1.072 28.204-22.047-6.903-47.985-21.286-67.759-50.948-10.193-15.29-15.203-31.073-15.833-32.571-24.336-68.88-13.719-163.578-13.589-164.69 1.029-8.773-5.248-16.722-14.021-17.754-8.771-1.026-16.728 5.245-17.76 14.021-.563 4.783-11.179 99.032 13.702 174.531-1.976 4.982-4.989 10.594-9.404 14.484-11.682-40.221-52.409-112.255-52.409-163.146 0-20.308 10.617-37.086 31.556-49.871 17.404-10.626 35.441-14.41 35.582-14.439 7.479-1.496 12.862-8.063 12.862-15.689 0-15.176 25.65-41.92 51.88-48.478 22.948-5.738 71.236 3.773 88.098 7.965 2.414.621 5.175.715 7.902.035 21.112-5.311 66.662-13.397 88.239-8 26.23 6.558 51.88 33.302 51.88 48.478 0 7.627 5.383 14.193 12.862 15.689.671.134 67.138 14.01 67.138 64.311.001 50.907-40.718 122.896-52.406 163.146z"/><circle cx="332" cy="235.955" r="20"/><g fill="#ece2e2"><path d="m160 167.955c16-16 72-16 72 8s-32 0-56 8-32 0-16-16z"/><path d="m352 167.955c-16-16-72-16-72 8s32 0 56 8 32 0 16-16z"/></g></svg>