<svg id="Layer_1" enable-background="new 0 0 512.002 512.002" height="512" viewBox="0 0 512.002 512.002" width="512" xmlns="http://www.w3.org/2000/svg"><path d="m232.743 79.415-94.966-71.923c-22.344-16.922-54.427-.966-54.427 27.054v133.903c0 8.915 7.248 16 16 16 6.394 0-2.461 4.314 132.13-78.66 9.538-5.88 10.251-19.566 1.263-26.374z" fill="#dfb7a4"/><path d="m374.225 7.492-94.966 71.923c-8.934 6.767-8.333 20.458 1.264 26.375 134.432 82.875 125.66 78.66 132.13 78.66 8.75 0 16-7.085 16-16v-133.904c-.001-28.03-32.092-43.969-54.428-27.054z" fill="#dfb7a4"/><path d="m83.35 98.578v69.872c0 12.494 13.741 20.189 24.396 13.62l123.733-76.279c9.539-5.88 10.252-19.567 1.264-26.375l-52.482-39.748c-36.875 11.611-70.088 31.659-96.911 58.91z" fill="#c69a85"/><path d="m428.652 98.578c-26.799-27.226-60.003-47.288-96.911-58.91l-52.482 39.748c-8.934 6.767-8.333 20.458 1.264 26.375l123.733 76.279c10.635 6.558 24.396-1.104 24.396-13.62z" fill="#c69a85"/><path d="m256.001 297.89c-88.418 0-160.353 71.934-160.353 160.353v37.207c0 8.836 7.164 16 16 16h288.705c8.836 0 16-7.164 16-16v-37.207c.001-88.419-71.934-160.353-160.352-160.353z" fill="#e8d9d4"/><path d="m416.109 450.566c-4.586-84.34-74.643-151.549-160.108-151.549s-155.521 67.209-160.108 151.549c94.212 60.434 223.07 62.316 320.216 0z" fill="#e0c8bf"/><path d="m406.021 402.752c-22.932-60.56-81.524-103.735-150.02-103.735s-127.088 43.175-150.02 103.735c119.393 92.821 180.48 92.951 300.04 0z" fill="#dfb7a4"/><path d="m403.896 89.212c-77.558-58.682-218.114-58.772-295.791 0-88.859 67.23-80.781 197.92-1.368 273.381 82.577 78.468 215.933 78.484 298.527 0 79.437-75.484 87.464-206.171-1.368-273.381z" fill="#dfb7a4"/><path d="m405.265 292.723c-82.577 78.468-215.933 78.484-298.527 0-31.23-29.676-51.538-67.002-59.014-107.57-23.153 119.412 74.136 236.253 208.277 236.253 132.787 0 231.693-115.483 208.278-236.253-7.477 40.568-27.784 77.894-59.014 107.57z" fill="#c69a85"/><path d="m322.964 253.82c-37.083-29.462-96.833-29.469-133.926 0-37.532 29.819-37.533 78.376 0 108.195 17.925 14.241 41.706-16.31 66.963-16.31s49.038 30.551 66.963 16.31c37.532-29.819 37.533-78.376 0-108.195z" fill="#f9f9f9"/><circle cx="187.438" cy="228.886" r="19.841"/><circle cx="324.564" cy="228.886" r="19.841"/><path d="m511.928 255.986c-.844-8.797-8.646-15.246-17.454-14.399l-28.529 2.736c6.146-48.396-5.153-95.676-37.292-132.21v-77.566c0-28.031-32.089-43.969-54.428-27.055l-57.828 43.796c-37.916-7.865-81.186-8.216-120.791 0l-57.83-43.796c-22.341-16.923-54.426-.967-54.426 27.055v77.566c-32.113 36.505-43.442 83.777-37.292 132.21l-28.529-2.736c-8.813-.846-16.61 5.604-17.454 14.399s5.604 16.61 14.399 17.454l38.705 3.712c4.107 13.252 9.634 26.043 16.518 38.199l-28.967 5.875c-8.66 1.757-14.257 10.201-12.5 18.861 1.539 7.587 8.211 12.822 15.664 12.822 2.272 0-.45.418 45.517-8.906 9.073 11.014 19.129 20.919 30.266 29.905-27.721 44.639-24.027 81.881-24.027 121.541 0 8.837 7.163 16 16 16h288.705c8.837 0 16-7.163 16-16 0-39.979 3.682-76.92-24.027-121.541 11.106-8.961 21.167-18.86 30.266-29.905l42.319 8.584c8.662 1.758 17.105-3.843 18.861-12.5 1.757-8.66-3.84-17.104-12.5-18.861l-28.967-5.875c6.884-12.156 12.41-24.946 16.518-38.199l38.705-3.712c8.794-.843 15.241-8.658 14.398-17.454zm-118.384-222.984c1.306-.981 3.108-.076 3.108 1.545v49.47c-12.597-8.564-26.683-15.795-41.93-21.613zm-277.119-.19c1.608-.799-1.431-2.432 40.854 29.593-15.246 5.818-29.333 13.048-41.929 21.613 0-54.249-.461-50.443 1.075-51.206zm139.576 328.97c7.48 10.473 17.233 19.21 28.551 25.468-18.483 2.806-37.714 2.943-57.101 0 11.317-6.257 21.07-14.995 28.55-25.468zm128.353 117.667h-256.706c0-25.212-2.167-53.31 18.408-87.371 66.628 38.812 152.203 39.428 219.888 0 20.232 33.492 18.41 60.828 18.41 87.371zm24.49-170.885-44.286-8.983c-8.658-1.754-17.104 3.84-18.861 12.5s3.84 17.104 12.5 18.861l27.808 5.641c-5.053 5.022-10.427 9.751-16.09 14.161-6.62-3.618-15.079-2.146-20.033 3.902-5.882 7.182-14.569 11.3-23.835 11.3-24.457 0-45.159-16.333-51.802-38.662l17.877-25.857c8.938-12.929-.316-30.577-16.033-30.577h-40.173c-15.718 0-24.972 17.648-16.033 30.577l17.877 25.857c-10.419 35.022-55.864 51.505-75.637 27.362-4.954-6.047-13.413-7.521-20.033-3.903-5.663-4.409-11.037-9.139-16.09-14.161l27.808-5.641c8.66-1.757 14.257-10.201 12.5-18.861s-10.196-14.259-18.861-12.5l-44.286 8.983c-5.771-8.841-10.708-18.216-14.709-28.029 54.72 5.248 50.681 4.893 51.793 4.893 8.148 0 15.114-6.197 15.908-14.474.844-8.796-5.604-16.61-14.399-17.454l-62.828-6.025c-18.677-106.6 64.469-170.213 177.075-170.213 112.664 0 195.744 63.655 177.077 170.214l-62.828 6.025c-8.796.844-15.243 8.658-14.399 17.454.794 8.277 7.76 14.474 15.908 14.474 1.195 0-2.611.324 51.793-4.893-4.001 9.813-8.937 19.188-14.708 28.029z"/></svg>