<svg id="Layer_1" enable-background="new 0 0 512.002 512.002" height="512" viewBox="0 0 512.002 512.002" width="512" xmlns="http://www.w3.org/2000/svg"><path d="m231.451 76.849-114.376-70.176c-26.8-16.439-60.543 5.925-55.913 36.974l22.362 149.939c1.837 12.316 16.391 17.814 25.927 10.047l123.733-100.738c8.518-6.937 7.686-20.265-1.733-26.046z" fill="#727272"/><path d="m395.792 6.603-115.201 70.221c-9.411 5.737-10.343 19.093-1.774 26.07l123.733 100.74c9.562 7.781 24.034 2.225 25.915-9.969l23.119-149.851c4.799-31.107-28.955-53.569-55.792-37.211z" fill="#727272"/><path d="m72.477 119.514 11.047 74.072c1.826 12.244 16.324 17.869 25.927 10.047l123.733-100.738c8.517-6.936 7.685-20.265-1.734-26.046l-59.89-36.746c-38.783 18.101-73.997 46.564-99.083 79.411z" fill="#606060"/><path d="m428.465 193.665 11.376-73.735c-24.843-32.678-59.996-61.391-99.176-79.725l-60.074 36.619c-9.411 5.737-10.343 19.093-1.774 26.07l123.733 100.74c9.562 7.781 24.034 2.225 25.915-9.969z" fill="#606060"/><path d="m256.001 297.333c-88.418 0-160.353 71.934-160.353 160.353v37.207c0 8.836 7.164 16 16 16h288.705c8.836 0 16-7.164 16-16v-37.207c.001-88.418-71.934-160.353-160.352-160.353z" fill="#727272"/><path d="m416.109 450.009c-4.586-84.34-74.643-151.549-160.108-151.549s-155.521 67.21-160.108 151.549c94.212 60.434 223.07 62.316 320.216 0z" fill="#606060"/><path d="m406.021 402.195c-22.932-60.56-81.524-103.735-150.02-103.735s-127.088 43.175-150.02 103.735c119.393 92.821 180.48 92.951 300.04 0z" fill="#3f3f3f"/><path d="m422.514 159.702c-32.67-54.545-104.58-87.668-166.553-87.668-78.288 0-186.737 54.872-186.737 157.899 0 50.458 18.703 97.369 52.663 132.093 71.687 73.298 196.502 73.344 267.731-.044 51.021-52.567 69.795-140.674 32.896-202.28z" fill="#727272"/><path d="m389.618 300.826c-100.498 103.543-291.342 56.258-317.61-98.771-1.816 8.861-2.785 18.155-2.785 27.879 0 104.105 79.341 186.986 186.737 186.986 106.107 0 185.817-81.567 185.817-186.986 0-9.528-.925-18.823-2.76-27.852-6.307 37.593-23.3 71.855-49.399 98.744z" fill="#606060"/><path d="m314.191 297.511c-32.225-25.602-84.147-25.608-116.38 0-32.615 25.912-32.616 68.108 0 94.02 15.576 12.375 36.242-47.01 58.19-47.01s42.614 59.385 58.19 47.01c32.615-25.911 32.616-68.107 0-94.02z" fill="#999"/><circle cx="187.438" cy="228.33" r="19.841"/><circle cx="324.564" cy="228.33" r="19.841"/><path d="m511.928 255.43c-.844-8.797-8.646-15.244-17.454-14.399l-53.352 5.116c1.947-24.395-.262-46.57-10.021-69.568l20.483-132.764c4.799-31.1-28.951-53.571-55.792-37.212l-111.104 67.724c-19.619-3.041-37.573-3.057-57.376-.017l-110.238-67.637c-26.774-16.428-60.545 5.9-55.911 36.973l19.57 131.226c-10.458 23.546-12.851 46.275-10.854 71.179l-52.351-5.021c-8.813-.844-16.61 5.604-17.454 14.399s5.604 16.61 14.399 17.454l60.826 5.833c4.345 17.008 10.969 33.181 19.721 48.113-17.337 15.714-31.06 32.311-40.984 49.614-6.143 10.71 1.687 23.963 13.864 23.963 5.545 0 10.938-2.888 13.894-8.043 7.74-13.494 18.44-26.62 31.941-39.265 3.931 4.594 7.577 8.446 11.347 12.111-18.526 26.15-29.434 58.06-29.434 92.475v37.207c0 8.837 7.163 16 16 16h288.705c8.837 0 16-7.163 16-16v-37.207c0-34.548-10.993-66.57-29.651-92.776 3.525-3.468 6.865-6.998 10.788-11.604 13.397 12.581 24.02 25.638 31.718 39.058 4.39 7.655 14.165 10.322 21.839 5.919 7.666-4.396 10.315-14.174 5.919-21.839-9.894-17.25-23.56-33.799-40.821-49.47 8.697-14.938 15.281-31.129 19.598-48.166l61.785-5.925c8.796-.841 15.243-8.655 14.4-17.451zm-99.48-221.504c3.666-2.236 8.156.819 7.511 5.01l-14.999 97.217c-20.781-22.865-48.47-39.794-77.31-50.537zm-319.635 5c-.518-3.472 2.415-5.77 4.918-5.77 1.903 0-4.787-3.746 86.58 52.313-28.655 10.543-56.186 27.217-77.135 49.765zm163.188 317.3c7.717 10.806 17.856 19.763 29.634 26.056-19.231 3.475-39.605 3.556-59.304.019 11.793-6.295 21.945-15.259 29.67-26.075zm128.353 122.667h-256.706c0-27.602-1.986-57.897 22.341-93.467 62.128 41.787 149.207 42.362 211.903-.176 24.716 36.011 22.462 67.476 22.462 93.643zm6.551-172.333c-3.076-2.236-6.205-4.457-9.44-6.649-7.315-4.956-17.265-3.045-22.221 4.27-4.957 7.315-3.046 17.264 4.27 22.221 3.192 2.163 6.272 4.349 9.282 6.548-3.661 4.269-6.57 7.266-9.743 10.316-4.892-.239-9.83 1.745-13.171 5.824-5.882 7.182-14.569 11.3-23.835 11.3-25.232 0-46.476-17.383-52.397-40.8l18.473-26.719c8.938-12.929-.316-30.577-16.033-30.577h-40.173c-15.718 0-24.972 17.648-16.033 30.577l18.473 26.719c-9.391 37.137-56.438 53.669-76.232 29.5-3.453-4.214-8.609-6.204-13.659-5.803-3.227-3.075-6.23-6.141-10.006-10.519 2.932-2.138 5.928-4.264 9.032-6.367 7.315-4.957 9.227-14.905 4.27-22.221s-14.905-9.227-22.221-4.27c-3.178 2.153-6.253 4.335-9.278 6.531-4.233-7.785-7.786-15.957-10.638-24.434 31.425 3.014 29.519 2.863 30.622 2.863 8.148 0 15.114-6.197 15.908-14.474.844-8.796-5.604-16.61-14.399-17.454l-39.43-3.781c-5.226-45.431 9.442-83.03 51.928-112.434 29.139-20.167 68.111-32.694 101.711-32.694 33.512 0 72.293 12.517 101.209 32.665 42.205 29.408 56.708 67.057 51.515 112.558l-38.435 3.686c-8.796.844-15.243 8.658-14.399 17.454.794 8.277 7.76 14.474 15.908 14.474 1.105 0-1.053.175 29.697-2.774-2.832 8.492-6.357 16.674-10.555 24.464z"/></svg>