<svg id="Layer_1" enable-background="new 0 0 512.024 512.024" height="512" viewBox="0 0 512.024 512.024" width="512" xmlns="http://www.w3.org/2000/svg"><path d="m400.364 512.024h-288.705c-8.334 0-16.124-6.482-15.99-16.884.129-10.606-9-18.972-19.557-18.093l-23.873 1.965c-16.566 1.381-23.95-20.49-9.914-29.437 15.268-9.734 24.332-24.259 28.523-45.711.392-2.002-.382-4.03-1.971-5.165-18.679-13.294-34.901-19.086-44.535-15.912-15.944 5.252-29.052-11.258-17.981-26.11 10.169-13.643 31.697-52.389 61.656-158.619 19.879-74.852 93.945-135.113 187.994-135.113 94.032 0 168.104 60.221 187.994 135.113 29.958 106.23 51.487 144.976 61.656 158.619 11.052 14.828-2.014 31.371-17.981 26.11-9.637-3.173-25.857 2.619-44.502 15.889-1.621 1.158-2.395 3.185-2.003 5.187 4.191 21.452 13.255 35.977 28.523 45.711 14.014 8.934 6.673 30.818-9.914 29.437l-23.873-1.965c-10.606-.875-19.685 7.516-19.556 18.115.13 10.301-7.584 16.863-15.991 16.863zm80.065-135.65h.01z" fill="#e8d9d4"/><path d="m232.754 78.863-94.966-71.923c-22.344-16.923-54.428-.967-54.428 27.054v133.903c0 8.915 7.248 16 16 16 6.394 0-2.461 4.314 132.13-78.66 9.539-5.88 10.252-19.567 1.264-26.374z" fill="#e0c8bf"/><path d="m374.235 6.94-94.965 71.923c-8.934 6.767-8.333 20.458 1.264 26.375 134.432 82.875 125.66 78.66 132.13 78.66 8.75 0 16-7.085 16-16v-133.904c-.001-28.031-32.092-43.97-54.429-27.054z" fill="#e0c8bf"/><path d="m83.36 98.025v69.872c0 12.494 13.741 20.189 24.396 13.62l123.733-76.279c9.539-5.88 10.252-19.567 1.264-26.375l-52.482-39.748c-36.874 11.611-70.087 31.66-96.911 58.91z" fill="#d6bfb9"/><path d="m428.663 98.025c-26.799-27.226-60.003-47.288-96.911-58.91l-52.482 39.748c-8.934 6.767-8.333 20.458 1.264 26.375l123.733 76.279c10.635 6.558 24.396-1.104 24.396-13.62z" fill="#d6bfb9"/><path d="m444.006 198.058c-19.879-74.852-93.945-135.113-187.994-135.113-94.032 0-168.104 60.221-187.994 135.113-21.503 76.246-38.662 117.725-50.396 140.112 8.868 17.655 20.16 34.397 33.734 49.895 5.478 2.7 11.362 6.25 17.522 10.634 3.008 2.149 1.982 5.333 1.232 8.618 103.251 95.695 267.122 97.038 371.803 0-.785-3.435-1.768-6.475 1.264-8.641 6.147-4.375 12.022-7.918 17.492-10.615 13.573-15.497 24.864-32.239 33.731-49.892-11.732-22.386-28.892-63.865-50.394-140.111z" fill="#e0c8bf"/><path d="m392.261 114.284c-75.453-68.492-197.027-68.509-272.499 0-74.796 67.895-78.319 180.232 1.287 251.595 75.18 67.395 192.835 69.109 269.926 0 79.541-71.305 76.151-183.638 1.286-251.595z" fill="#e0c8bf"/><path d="m121.049 309.728c-30.228-27.098-49.563-61.169-56.065-97.975-19.468 111.818 79.035 205.398 191.027 205.398 111.355 0 210.597-92.996 191.027-205.398-23.79 134.691-208.868 202.968-325.989 97.975z" fill="#d6bfb9"/><path d="m357.935 177.244c-56.444-51.237-147.389-51.249-203.847 0-55.952 50.79-58.588 134.825.962 188.209 56.239 50.416 144.253 51.698 201.922 0 59.503-53.34 56.967-137.372.963-188.209z" fill="#dfb7a4"/><path d="m311.506 278.016c-30.732-24.416-80.249-24.422-110.989 0-31.104 24.712-31.105 64.953 0 89.665 30.732 24.416 80.249 24.422 110.989 0 31.105-24.712 31.105-64.953 0-89.665z" fill="#e8d9d4"/><circle cx="205.919" cy="240.048" r="19.841"/><circle cx="306.104" cy="240.048" r="19.841"/><path d="m342.421 322.287c0-8.837-7.163-16-16-16s-16 7.163-16 16c0 6.619-5.386 12.005-12.005 12.005-14.297 0-25.929-11.632-25.929-25.929v-4.047l8.589-12.423c6.203-8.972-.219-21.218-11.126-21.218h-27.877c-10.907 0-17.328 12.246-11.126 21.218l8.589 12.423v4.047c0 14.297-11.632 25.929-25.929 25.929-6.619 0-12.005-5.386-12.005-12.005 0-8.837-7.163-16-16-16s-16 7.163-16 16c0 24.265 19.74 44.005 44.005 44.005 16.731 0 31.82-7.138 42.404-18.519 10.584 11.381 25.673 18.519 42.404 18.519 24.266 0 44.006-19.74 44.006-44.005z"/><path d="m505.661 356.677c-7.161-9.608-19.958-31.67-37.365-80.985l29.242-2.804c8.796-.844 15.243-8.658 14.399-17.454-.844-8.797-8.646-15.247-17.454-14.399l-36.596 3.51c-16.957-53.388-15.629-60.176-29.225-84.657v-125.894c0-28.031-32.089-43.969-54.428-27.055l-78.796 59.677c-25.703-4.846-52.636-4.944-78.854 0l-78.797-59.676c-22.341-16.923-54.427-.967-54.427 27.054v125.893c-13.432 24.186-12.831 33.043-29.225 84.657l-36.596-3.51c-8.813-.847-16.61 5.604-17.454 14.399-.844 8.796 5.604 16.61 14.399 17.454l29.242 2.804c-17.407 49.315-30.204 71.377-37.365 80.985-11.164 14.979 2.264 31.287 17.981 26.11 9.634-3.174 25.855 2.618 44.502 15.889 1.82 1.517 2.374 3.296 2.004 5.188-4.192 21.453-13.256 35.978-28.523 45.71-14.046 8.955-6.639 30.821 9.913 29.438l23.874-1.965c10.697-.902 19.681 7.662 19.558 18.021-.139 10.37 7.537 16.956 15.988 16.956h288.705c8.924 0 16.126-7.31 15.998-16.228-.15-12.174 9.683-19.582 19.549-18.749l23.873 1.965c16.613 1.342 23.917-20.511 9.913-29.438-15.268-9.732-24.331-24.257-28.523-45.709-.392-2.003.383-4.03 1.917-5.127 11.248-7.874 31.551-20.241 44.589-15.95 15.948 5.251 29.051-11.259 17.982-26.11zm-47.689-20.332-31.217-14.133c5.517-9.431 10.109-19.303 13.684-29.503 5.59 15.447 11.473 30.296 17.533 43.636zm-64.417-303.896c1.295-.978 3.108-.084 3.108 1.545v84.432c-18.299-17.705-39.663-31.326-62.934-40.667zm-277.119-.19c1.635-.813-3.466-3.974 61.859 45.5-23.257 9.335-44.624 22.951-62.934 40.667-.001-93.094-.461-85.404 1.075-86.167zm-44.852 260.449c3.575 10.2 8.168 20.073 13.685 29.504l-31.217 14.133c6.059-13.34 11.943-28.189 17.532-43.637zm353.07 79.875c-11.018 7.538-17.841 22.298-14.887 37.419 2.704 13.832 7.098 25.895 13.259 36.305-17.061 3.995-30.996 16.612-36.369 33.717h-261.283c-5.341-16.98-19.194-29.694-36.377-33.717 6.161-10.411 10.555-22.473 13.259-36.306 2.79-14.277-3.01-28.935-14.776-37.34-2.473-1.855-9.07-6.247-14.911-9.572l31.686-14.345c18.546 21.521 42.59 39.38 70.746 51.579 8.109 3.512 17.528-.213 21.042-8.321 3.513-8.108-.213-17.529-8.321-21.042-20.491-8.877-38.339-21.288-52.796-36.101l12.309-5.573c8.051-3.645 11.622-13.125 7.978-21.175s-13.123-11.621-21.175-7.978l-19.431 8.797c-5.427-8.801-9.836-18.083-13.127-27.699 40.786 3.912 37.671 3.645 38.774 3.645 8.148 0 15.114-6.197 15.908-14.474.844-8.796-5.604-16.61-14.399-17.454l-46.92-4.5c-5.573-82.271 67.699-153.502 161.169-153.502 93.744 0 166.727 71.449 161.169 153.502l-46.92 4.5c-8.796.844-15.243 8.658-14.399 17.454.794 8.277 7.76 14.474 15.908 14.474 1.1 0-1.883.255 38.774-3.645-3.29 9.616-7.699 18.898-13.127 27.699l-19.431-8.797c-8.047-3.643-17.529-.073-21.175 7.978-3.645 8.05-.073 17.53 7.978 21.175l12.309 5.573c-14.457 14.813-32.305 27.224-52.796 36.101-15.881 6.88-10.923 30.686 6.368 30.686 2.123 0 4.281-.425 6.353-1.322 28.156-12.198 52.2-30.058 70.746-51.579l31.684 14.344c-4.816 2.741-9.748 5.899-14.799 9.494z"/></svg>