<svg id="Layer_1" enable-background="new 0 0 512.024 512.024" height="512" viewBox="0 0 512.024 512.024" width="512" xmlns="http://www.w3.org/2000/svg"><path d="m232.754 78.862-94.966-71.922c-22.344-16.923-54.428-.965-54.428 27.054v158.362c0 13.54 15.764 20.829 26.102 12.407l123.733-100.738c8.044-6.55 7.816-18.909-.441-25.163z" fill="#e0e0e0"/><path d="m374.235 6.94-94.965 71.922c-8.271 6.263-8.473 18.623-.441 25.163l123.733 100.738c10.373 8.448 26.102 1.085 26.102-12.407v-158.362c-.001-28.03-32.091-43.971-54.429-27.054z" fill="#e0e0e0"/><path d="m328.976 41.217-49.706 37.645c-8.271 6.263-8.473 18.623-.441 25.163l123.733 100.738c10.373 8.448 26.102 1.085 26.102-12.407v-91.843c-26.88-27.629-60.987-48.06-99.688-59.296z" fill="#d3d1d1"/><path d="m83.36 100.513v91.843c0 13.452 15.669 20.907 26.102 12.407l123.733-100.738c8.043-6.55 7.816-18.91-.441-25.163l-49.706-37.645c-38.677 11.23-72.791 31.649-99.688 59.296z" fill="#d3d1d1"/><path d="m256.012 298.465c-88.418 0-160.353 71.934-160.353 160.353v37.207c0 8.836 7.164 16 16 16h288.705c8.836 0 16-7.164 16-16v-37.207c0-88.419-71.934-160.353-160.352-160.353z" fill="#e0e0e0"/><path d="m416.119 450.013c-4.586-84.34-74.643-151.549-160.108-151.549s-155.52 67.21-160.107 151.549c94.212 60.434 223.07 62.316 320.215 0z" fill="#f9f9f9"/><path d="m406.032 402.199c-22.932-60.56-81.524-103.735-150.02-103.735s-127.088 43.175-150.02 103.735c119.393 92.821 180.479 92.951 300.04 0z" fill="#f9f9f9"/><path d="m481.488 337.211-28.577-112.587c-6.436-44.704-29.033-85.279-63.699-114.331-73.453-61.557-192.122-62.249-266.4 0-34.666 29.052-57.264 69.627-63.699 114.331l-28.578 112.587c-3.456 13.614 11.126 24.767 23.358 17.878 18.61-10.481 33.996-10.761 49.687-.847 18.219 20.23 32.602 38.293 49.53 52.594 16.166 36.232 55.441 61.868 101.217 61.868 43.888 0 81.801-23.567 99.1-57.443 19.423-14.923 34.976-34.773 55.125-57.139 9.444-6.364 24.715-12.562 49.782 1.079 12.224 6.657 26.586-4.477 23.154-17.99z" fill="#e0e0e0"/><path d="m467.176 280.825c-3.009.226-6.081-.395-8.843-1.898-25.067-13.641-40.338-7.443-49.782-1.079-12.421 13.788-23.371 26.948-34.408 38.345-11.113 11.475-21.749 23.397-31.811 35.804-44.908 55.37-136.656 53.553-178.824-3.634-13.09-17.753-26.339-33.099-59.928-70.396-15.69-9.914-31.076-9.635-49.687.847-2.812 1.583-5.962 2.243-9.046 2.011l-14.312 56.386c-3.387 13.342 10.746 24.941 23.553 17.769 18.523-10.374 33.856-10.617 49.492-.737 18.219 20.23 32.602 38.293 49.53 52.594 16.166 36.232 55.441 61.868 101.217 61.868 43.888 0 81.801-23.567 99.1-57.443 19.423-14.923 34.976-34.773 55.125-57.139 9.444-6.364 24.715-12.562 49.782 1.079 12.224 6.656 26.587-4.477 23.155-17.99z" fill="#d3d1d1"/><path d="m322.975 315.623c-37.083-29.462-96.833-29.469-133.926 0-37.532 29.819-37.533 78.376 0 108.195 37.083 29.462 96.833 29.469 133.926 0 37.532-29.818 37.533-78.376 0-108.195z" fill="#f9f9f9"/><circle cx="202.586" cy="258.583" r="19.841"/><circle cx="309.438" cy="258.583" r="19.841"/><path d="m497.539 242.542c8.796-.844 15.243-8.658 14.399-17.454s-8.645-15.244-17.454-14.399l-43.264 4.149c-4.141-20.757-11.803-40.475-22.558-58.384v-122.46c0-28.025-32.089-43.974-54.428-27.055l-79.587 60.276c-25.179-4.291-52.074-4.294-77.273 0l-79.587-60.275c-22.341-16.923-54.427-.967-54.427 27.054v122.459c-10.755 17.91-18.416 37.627-22.558 58.384l-43.264-4.149c-8.812-.845-16.61 5.604-17.454 14.399-.844 8.796 5.604 16.61 14.399 17.454l39.127 3.752-15.751 62.055-21.539 9.751c-8.051 3.645-11.622 13.125-7.978 21.175 3.646 8.051 13.125 11.621 21.175 7.978l1.481-.67c3.371 9.333 14.309 13.34 22.893 8.506 18.61-10.481 33.996-10.761 49.687-.847 5.921 6.575 11.201 12.651 16.835 19.061-28.424 44.911-24.756 82.566-24.756 122.721 0 8.837 7.163 16 16 16h288.705c8.837 0 16-7.163 16-16 0-40.398 3.734-77.706-24.756-122.721 5.793-6.591 11.057-12.647 16.943-19.181 9.444-6.364 24.715-12.562 49.782 1.079 8.409 4.578 19.016.789 22.541-8.233 20.755 9.389 32.581-20.378 13.828-28.867l-20.409-9.24-15.881-62.566zm-103.984-210.093c1.295-.978 3.108-.084 3.108 1.545v82.908c-18-16.82-39.305-30.091-62.986-39.104zm-277.119-.19c1.642-.817-3.414-3.935 61.911 45.54-23.728 9.03-45.016 22.314-62.986 39.104-.001-91.209-.472-83.876 1.075-84.644zm267.928 447.765h-256.705c0-25.58-1.84-50.334 15.501-82.254 3.247 3.163 6.546 6.184 9.944 9.054 16.162 36.238 55.441 61.881 101.222 61.881 43.887 0 81.799-23.566 99.099-57.441 5.384-4.136 10.47-8.652 15.438-13.494 17.363 31.96 15.501 57.182 15.501 82.254zm52.628-188.05-49.005-22.187c-8.048-3.643-17.529-.073-21.175 7.978-3.645 8.05-.073 17.53 7.978 21.175l39.838 18.036c-12.845 3.062-25.166 10.557-28.06 13.746-10.212 11.26-17.733 20.17-26.344 29.724-9.217-12.305-28.799-5.757-28.799 9.572 0 36.771-34.586 66.687-77.099 66.687-42.512 0-77.098-29.915-77.098-66.687 0-14.09-17.029-21.287-27.137-11.474-23.933-26.779-24.793-29.345-29.887-31.649-7.688-4.796-15.549-8.127-23.562-10.03l39.593-17.925c8.051-3.645 11.622-13.125 7.978-21.175-3.646-8.05-13.124-11.62-21.175-7.978l-47.875 21.675 10.68-42.077 52.867 5.07c8.796.843 16.61-5.603 17.454-14.399s-5.604-16.61-14.399-17.454l-48.926-4.692c35.642-162.462 290.669-162.636 326.35 0l-48.926 4.692c-8.796.844-15.243 8.658-14.399 17.454s8.657 15.243 17.454 14.399l52.867-5.07z"/><path d="m290.905 362.747-18.894-5.842v-18.966l9.064-13.111c6.203-8.971-.219-21.218-11.126-21.218h-27.877c-10.907 0-17.328 12.247-11.126 21.218l9.064 13.111v18.966l-18.894 5.842c-8.442 2.61-13.17 11.57-10.56 20.013 2.61 8.44 11.567 13.17 20.013 10.56l25.44-7.867c28.031 8.668 26.954 8.585 30.172 8.585 6.831 0 13.157-4.409 15.281-11.277 2.613-8.443-2.114-17.403-10.557-20.014z"/></svg>